<svg width="21" height="21" viewBox="0 0 21 21" fill="none" xmlns="http://www.w3.org/2000/svg">
<path d="M17.3182 0.5H3.68182C2.83823 0.500926 2.02946 0.83645 1.43296 1.43296C0.83645 2.02946 0.500926 2.83823 0.5 3.68182V17.3182C0.500926 18.1618 0.83645 18.9705 1.43296 19.567C2.02946 20.1636 2.83823 20.4991 3.68182 20.5H17.3182C18.1618 20.4991 18.9705 20.1636 19.567 19.567C20.1636 18.9705 20.4991 18.1618 20.5 17.3182V3.68182C20.4991 2.83823 20.1636 2.02946 19.567 1.43296C18.9705 0.83645 18.1618 0.500926 17.3182 0.5ZM12.3182 15.9545C12.3182 16.1957 12.2224 16.4269 12.0519 16.5974C11.8814 16.7679 11.6502 16.8636 11.4091 16.8636H5.04545C4.80435 16.8636 4.57312 16.7679 4.40263 16.5974C4.23214 16.4269 4.13636 16.1957 4.13636 15.9545V5.04545C4.13636 4.80435 4.23214 4.57312 4.40263 4.40263C4.57312 4.23214 4.80435 4.13636 5.04545 4.13636H11.4091C11.6502 4.13636 11.8814 4.23214 12.0519 4.40263C12.2224 4.57312 12.3182 4.80435 12.3182 5.04545V6.86364C12.3182 7.10474 12.2224 7.33597 12.0519 7.50646C11.8814 7.67695 11.6502 7.77273 11.4091 7.77273C11.168 7.77273 10.9368 7.67695 10.7663 7.50646C10.5958 7.33597 10.5 7.10474 10.5 6.86364V5.95455H5.95455V15.0455H10.5V14.1364C10.5 13.8953 10.5958 13.664 10.7663 13.4935C10.9368 13.3231 11.168 13.2273 11.4091 13.2273C11.6502 13.2273 11.8814 13.3231 12.0519 13.4935C12.2224 13.664 12.3182 13.8953 12.3182 14.1364V15.9545ZM17.1189 11.0682L15.3007 13.3409C15.1491 13.5262 14.9305 13.6442 14.6925 13.6694C14.4544 13.6945 14.216 13.6247 14.0291 13.4751C13.8421 13.3255 13.7218 13.1082 13.6941 12.8705C13.6664 12.6327 13.7336 12.3935 13.8811 12.205L14.5175 11.4095H7.77273C7.53162 11.4095 7.30039 11.3138 7.1299 11.1433C6.95942 10.9728 6.86364 10.7416 6.86364 10.5005C6.86364 10.2593 6.95942 10.0281 7.1299 9.85763C7.30039 9.68714 7.53162 9.59136 7.77273 9.59136H14.5176L13.8812 8.79591C13.7337 8.60738 13.6665 8.36826 13.6942 8.13046C13.7218 7.89266 13.8422 7.67539 14.0292 7.52581C14.2161 7.37624 14.4545 7.30643 14.6925 7.33156C14.9306 7.35668 15.1492 7.4747 15.3008 7.66L17.119 9.93273C17.2479 10.0939 17.3182 10.2941 17.3181 10.5005C17.3181 10.7068 17.2478 10.9071 17.1189 11.0682Z" fill="currentColor"/>
</svg>
