<svg width="20" height="20" viewBox="0 0 20 20" fill="none" xmlns="http://www.w3.org/2000/svg">
<path d="M18.8603 6.30405L11.9314 0.658561C10.8615 -0.217815 9.1318 -0.217815 8.07196 0.648371L1.14302 6.30405C0.36314 6.93586 -0.136785 8.27083 0.0331898 9.26949L1.36299 17.3811C1.60295 18.8281 2.96275 20 4.40253 20H15.6008C17.0306 20 18.4004 18.8179 18.6404 17.3811L19.9702 9.26949C20.1302 8.27083 19.6302 6.93586 18.8603 6.30405ZM10.0017 13.5698C8.62188 13.5698 7.50207 12.4285 7.50207 11.0222C7.50207 9.61597 8.62188 8.47464 10.0017 8.47464C11.3815 8.47464 12.5013 9.61597 12.5013 11.0222C12.5013 12.4285 11.3815 13.5698 10.0017 13.5698Z" fill="currentColor"/>
</svg>
