<svg width="23" height="20" viewBox="0 0 23 20" fill="none" xmlns="http://www.w3.org/2000/svg">
<path d="M22.747 7.84218C22.5255 6.58776 21.4035 5.49531 20.1755 5.2979C19.6116 5.20265 18.0888 5.09266 16.783 5.05079C16.8077 5.49669 16.8203 5.9564 16.8212 6.4313V6.4336C16.8212 7.74693 16.7273 8.93048 16.5386 10.051V10.0607C16.384 10.935 15.9275 11.7799 15.253 12.4439C14.5871 13.0996 13.7518 13.5363 12.8994 13.6744C12.118 13.806 9.98956 13.9445 8.48654 13.968L8.4798 13.979C8.49418 14.0752 8.50901 14.1681 8.52474 14.2551C8.74671 15.5095 9.86869 16.602 11.0963 16.7989C11.8381 16.9246 14.2371 17.075 15.6206 17.0626L17.2018 19.635C17.2706 19.7467 17.366 19.8389 17.479 19.9027C17.592 19.9665 17.7189 20 17.8479 20C17.977 20 18.1039 19.9665 18.2169 19.9027C18.3299 19.8389 18.4252 19.7467 18.4941 19.635L20.2465 16.7865C21.4475 16.561 22.5331 15.4865 22.7506 14.2556C22.8782 13.4967 22.9982 12.4609 23 11.0468C23.0018 9.6327 22.8746 8.60054 22.747 7.84218Z" fill="currentColor"/>
<path d="M15.4759 3.00349C15.2387 1.6621 14.038 0.494185 12.726 0.282967C11.9298 0.148137 9.34701 -0.013383 7.87006 0.000882263C6.39355 -0.013383 3.81079 0.148137 3.01457 0.282967C1.70162 0.494185 0.501455 1.66348 0.264657 3.00349C0.12806 3.81477 0 4.92194 0 6.43498C0 7.94802 0.12806 9.05473 0.264657 9.86417C0.497411 11.1807 1.65759 12.3302 2.94223 12.5713L4.81505 15.6177C4.88866 15.7372 4.99063 15.8356 5.11143 15.9038C5.23224 15.972 5.36794 16.0078 5.5059 16.0078C5.64385 16.0078 5.77955 15.972 5.90036 15.9038C6.02116 15.8356 6.12313 15.7372 6.19674 15.6177L7.88803 12.8668C9.36768 12.8797 11.932 12.7191 12.726 12.5847C14.0389 12.3735 15.2387 11.2042 15.4759 9.86417C15.6107 9.05289 15.741 7.94572 15.7428 6.43314C15.7446 4.92056 15.6125 3.81477 15.4759 3.00349ZM8.63437 8.21262C8.63658 8.31368 8.61909 8.41418 8.58292 8.50823C8.54675 8.60229 8.49262 8.68801 8.42371 8.76038C8.3548 8.83275 8.27249 8.89033 8.18159 8.92973C8.09069 8.96913 7.99303 8.98956 7.89432 8.98985C6.58437 8.97635 5.27456 8.94644 3.96491 8.90011C3.76162 8.88866 3.56927 8.80217 3.42346 8.65666C3.27765 8.51114 3.18826 8.31644 3.17184 8.10862C3.14757 7.68756 3.47154 7.35532 3.89077 7.36498C5.2184 7.39566 6.54633 7.41576 7.87455 7.42527C8.07691 7.42804 8.27009 7.51213 8.41247 7.65941C8.55486 7.80669 8.63503 8.00537 8.63572 8.21262H8.63437ZM11.7087 5.58965C9.09599 5.60437 6.48312 5.59394 3.8701 5.55836C3.44953 5.55191 3.09905 5.20495 3.09231 4.78389C3.08557 4.36283 3.42706 4.02231 3.84943 4.02277C6.47203 4.0286 9.09464 4.03044 11.7172 4.02829C11.8172 4.02768 11.9163 4.04737 12.0088 4.08621C12.1013 4.12506 12.1854 4.18229 12.2562 4.2546C12.3269 4.32691 12.383 4.41287 12.4212 4.50751C12.4593 4.60215 12.4788 4.70359 12.4784 4.80598C12.4762 5.01412 12.3943 5.21306 12.2504 5.36003C12.1064 5.507 11.912 5.59027 11.7087 5.59195V5.58965Z" fill="currentColor"/>
</svg>
