<svg width="18" height="20" viewBox="0 0 18 20" fill="none" xmlns="http://www.w3.org/2000/svg">
<path fill-rule="evenodd" clip-rule="evenodd" d="M1.16626 15.1663C2.84501 17.7025 5.72376 19.375 8.98876 19.375C12.2575 19.375 15.1363 17.7 16.8013 15.1525C17.3138 14.3925 17.4613 13.4437 17.205 12.5637C16.9488 11.6812 16.3138 10.9587 15.47 10.5925C15.465 10.59 15.46 10.5875 15.455 10.585C13.5513 9.81625 11.3425 9.375 8.98876 9.375C6.63626 9.375 4.43001 9.81625 2.52126 10.5675C2.51376 10.57 2.50751 10.5738 2.50001 10.5763C1.65251 10.945 1.01376 11.6713 0.756263 12.5588C0.498763 13.4462 0.648762 14.4013 1.16626 15.1663ZM8.98876 0.625C6.75001 0.625 4.93126 2.44375 4.93126 4.6825C4.93126 6.9225 6.75001 8.74 8.98876 8.74C11.2288 8.74 13.0463 6.9225 13.0463 4.6825C13.0463 2.44375 11.2288 0.625 8.98876 0.625Z" fill="currentColor"/>
</svg>
