<svg width="18" height="11" viewBox="0 0 18 11" fill="none" xmlns="http://www.w3.org/2000/svg">
<path d="M17.8424 9.54955C17.8056 9.47768 17.5115 8.83089 16.041 7.53732C14.5337 6.17189 14.7175 6.38748 16.5556 4.01593C17.6585 2.57863 18.0997 1.68032 17.9526 1.32099C17.8056 0.961664 16.9968 1.06946 16.9968 1.06946H14.2763C14.2763 1.06946 14.0925 1.03353 13.9087 1.14133C13.7617 1.21319 13.6881 1.42879 13.6881 1.42879C13.6881 1.42879 13.2837 2.50676 12.7323 3.44101C11.5191 5.45323 11.0412 5.56103 10.8574 5.4173C10.4162 5.12984 10.5265 4.26746 10.5265 3.62067C10.5265 1.68032 10.8206 0.853867 9.93829 0.674204C9.60742 0.638271 9.38684 0.566406 8.65158 0.566406C7.69574 0.566406 6.85019 0.566406 6.40903 0.782002C6.07817 0.925732 5.85759 1.28506 6.00464 1.28506C6.18845 1.32099 6.59285 1.39285 6.81343 1.68032C7.10753 2.03964 7.07077 2.86609 7.07077 2.86609C7.07077 2.86609 7.21782 5.16577 6.70314 5.45323C6.33551 5.6329 5.82082 5.23764 4.75469 3.44101C4.20325 2.50676 3.79885 1.46472 3.79885 1.46472C3.79885 1.46472 3.68856 1.28506 3.54151 1.17726C3.39446 1.03353 3.13712 0.997597 3.13712 0.997597H0.563701C0.563701 0.997597 0.159307 0.997597 0.0490175 1.17726C-0.0612718 1.32099 0.0490175 1.60845 0.0490175 1.60845C0.0490175 1.60845 2.07099 6.20782 4.3503 8.54343C6.4458 10.6635 8.8354 10.5197 8.8354 10.5197H9.90153C9.90153 10.5197 10.2324 10.4838 10.3794 10.3041C10.5265 10.1604 10.5265 9.83701 10.5265 9.83701C10.5265 9.83701 10.4897 8.43564 11.1882 8.22004C11.85 8.00445 12.6955 9.58548 13.6146 10.1963C14.2763 10.6635 14.8278 10.5557 14.8278 10.5557L17.2174 10.5197C17.1806 10.5916 18.4306 10.5197 17.8424 9.54955Z" fill="#1A212A"/>
</svg>
