<svg width="32" height="32" viewBox="0 0 32 32" fill="none" xmlns="http://www.w3.org/2000/svg">
<path d="M20.4349 0H9.37864C8.1936 0 7.05086 0.423805 6.10577 1.33386L1.38892 5.98188C0.544369 6.82625 0 7.99185 0 9.30973V24.2439C0 26.8429 2.11779 28.9607 4.71685 28.9607H17.5607C17.547 28.947 17.547 28.9332 17.5332 28.9194C15.4705 25.2065 15.7181 20.9023 15.8556 19.5959C15.9519 18.4408 16.6257 17.4232 17.6571 16.8731L23.2265 13.8615C23.7352 13.5864 24.299 13.449 24.8629 13.449C24.9592 13.449 25.069 13.449 25.1654 13.4627V4.71677C25.1654 2.11771 23.0476 0 20.4349 0ZM10.905 20.476H6.83464C6.07824 20.476 5.45949 19.8572 5.45949 19.1008C5.45949 18.3307 6.07824 17.7257 6.83464 17.7257H10.905C11.675 17.7257 12.2802 18.3307 12.2802 19.1008C12.2802 19.8572 11.675 20.476 10.905 20.476ZM14.9894 14.1641H6.83464C6.07824 14.1641 5.45949 13.5452 5.45949 12.7889C5.45949 12.0188 6.07824 11.4138 6.83464 11.4138H14.9894C15.7456 11.4138 16.3645 12.0188 16.3645 12.7889C16.3645 13.5452 15.7456 14.1641 14.9894 14.1641Z" fill="currentColor"/>
<path d="M19.6097 19.3621C19.4036 19.4721 19.2659 19.6647 19.2521 19.8984C19.1286 21.0398 18.9359 24.6427 20.5998 27.6405C20.7374 27.8881 20.8887 28.1356 21.0537 28.3693C22.0575 29.8271 23.5566 31.0509 25.7979 31.6835C32.935 29.662 32.0962 21.6449 31.8212 19.8709C31.7937 19.6509 31.6561 19.4721 31.4637 19.3621L25.8667 16.3367C25.6606 16.2268 25.3992 16.2268 25.1929 16.3367L25.1654 16.3505C25.0264 16.4258 19.2472 19.5586 19.6097 19.3621Z" fill="currentColor"/>
</svg>
