<svg width="32" height="33" viewBox="0 0 32 33" fill="none" xmlns="http://www.w3.org/2000/svg">
<path d="M23.0902 13.8575H28.9882V24.2732H23.0902V13.8575Z" fill="currentColor"/>
<path d="M13.051 13.8575H18.949V24.2732H13.051V13.8575Z" fill="currentColor"/>
<path d="M30.1176 26.1556C29.1702 26.1556 3.02908 26.1556 1.88235 26.1556C0.844424 26.1556 0 27 0 28.0379V30.234C0 31.2719 0.844424 32.1163 1.88235 32.1163H30.1176C31.1556 32.1163 32 31.2719 32 30.234V28.0379C32 27 31.1556 26.1556 30.1176 26.1556Z" fill="currentColor"/>
<path d="M30.8204 5.90929C16.3216 -0.0190591 16.7096 0.139498 16.6992 0.135294C16.2518 -0.0437174 15.7544 -0.0473566 15.2942 0.13793L1.17961 5.90929C0.462871 6.19766 0 6.88271 0 7.65555V10.0929C0 11.1308 0.844424 11.9752 1.88235 11.9752H30.1176C31.1556 11.9752 32 11.1308 32 10.0929V7.65555C32 6.88271 31.5371 6.19766 30.8204 5.90929ZM16.9412 7.01831C16.9412 7.53809 16.5198 7.95948 16 7.95948C15.4802 7.95948 15.0588 7.53809 15.0588 7.01831V5.01046C15.0588 4.49068 15.4802 4.06929 16 4.06929C16.5198 4.06929 16.9412 4.49068 16.9412 5.01046V7.01831Z" fill="currentColor"/>
<path d="M3.01176 13.8575H8.9098V24.2732H3.01176V13.8575Z" fill="currentColor"/>
</svg>
