<svg width="36" height="35" viewBox="0 0 36 35" fill="none" xmlns="http://www.w3.org/2000/svg">
<path d="M3.77427 21.6977C4.68453 22.1171 5.6775 22.3265 6.67964 22.3102L10.7602 22.3102C10.9444 22.3111 11.1265 22.3506 11.2945 22.4262C11.4626 22.5018 11.6129 22.6118 11.7357 22.7491C11.8586 22.8864 11.9512 23.048 12.0077 23.2234C12.0642 23.3987 12.0832 23.584 12.0636 23.7672L11.4612 29.1948C11.3132 30.4687 11.6515 31.7515 12.4085 32.7867C13.1656 33.822 14.2855 34.5334 15.5445 34.7787C16.1152 34.8885 16.7031 34.8715 17.2664 34.7287C17.8298 34.586 18.3548 34.3211 18.8043 33.9527C19.2538 33.5844 19.6168 33.1216 19.8674 32.5973C20.118 32.073 20.2501 31.5 20.2545 30.919L20.2545 29.0013C20.2579 27.2356 20.9418 25.5391 22.1638 24.2645C23.3859 22.9898 25.0522 22.235 26.8164 22.157L26.8164 2.6272L23.1894 2.6272C21.4525 2.6254 19.74 2.21855 18.188 1.43898C16.1241 0.450702 13.8575 -0.0411274 11.5695 0.00280628L7.78921 0.00280595C6.19919 0.00279819 4.66325 0.580057 3.46693 1.62728C2.27061 2.6745 1.4953 4.12042 1.28511 5.69627L0.0598696 14.8823C-0.122896 16.2653 0.138345 17.6705 0.805923 18.8954C1.4735 20.1203 2.51292 21.1016 3.77427 21.6977Z" fill="#E7BB0B"/>
<path d="M28.1257 23.6221L32.0628 23.6221C34.2373 23.6221 36 21.8596 36 19.6855L36 5.25127C36 3.07714 34.2373 1.31466 32.0628 1.31466L28.1257 1.31466C25.9513 1.31466 24.1885 3.07714 24.1885 5.25127L24.1885 19.6855C24.1885 21.8596 25.9512 23.6221 28.1257 23.6221Z" fill="#C85343"/>
</svg>
