<svg width="23" height="23" viewBox="0 0 36 35" fill="none" xmlns="http://www.w3.org/2000/svg">
<path d="M32.2296 13.1543C31.3194 12.7348 30.3264 12.5254 29.3243 12.5417H25.2437C25.0595 12.5408 24.8774 12.5013 24.7094 12.4257C24.5413 12.3501 24.391 12.2401 24.2682 12.1027C24.1453 11.9654 24.0527 11.8038 23.9962 11.6284C23.9397 11.453 23.9207 11.2677 23.9403 11.0845L24.5427 5.65613C24.6907 4.38206 24.3524 3.09908 23.5954 2.06368C22.8383 1.02828 21.7184 0.316783 20.4594 0.0714354C19.8887 -0.0384394 19.3009 -0.0213906 18.7375 0.121372C18.1741 0.264135 17.6491 0.529114 17.1996 0.897515C16.7501 1.26592 16.3871 1.72871 16.1365 2.25308C15.8859 2.77744 15.7538 3.35053 15.7494 3.93169V5.84965C15.746 7.6156 15.0621 9.31231 13.8401 10.5871C12.618 11.862 10.9517 12.6168 9.1875 12.6949V32.2275H12.8145C14.5514 32.2293 16.2639 32.6362 17.8159 33.4159C19.8798 34.4043 22.1464 34.8962 24.4344 34.8522H28.2147C29.8047 34.8522 31.3407 34.2749 32.537 33.2275C33.7333 32.1802 34.5086 30.734 34.7188 29.158L35.944 19.9706C36.1268 18.5875 35.8656 17.182 35.198 15.957C34.5304 14.7319 33.491 13.7505 32.2296 13.1543Z" fill="#E7BB0B"/>
<path d="M7.87432 11.2295H3.93716C1.76273 11.2295 0 12.9922 0 15.1667V29.6029C0 31.7773 1.76273 33.5401 3.93716 33.5401H7.87432C10.0488 33.5401 11.8115 31.7773 11.8115 29.6029V15.1667C11.8115 12.9922 10.0488 11.2295 7.87432 11.2295Z" fill="#00A86C"/>
</svg>
