<svg width="16" height="20" viewBox="0 0 16 20" fill="none" xmlns="http://www.w3.org/2000/svg">
<path fill-rule="evenodd" clip-rule="evenodd" d="M7.99996 1.29159C7.99996 1.03846 7.79472 0.833252 7.54163 0.833252H4.33329C2.30825 0.833252 0.666626 2.47487 0.666626 4.49992V15.4999C0.666626 17.5249 2.30825 19.1666 4.33329 19.1666H11.6666C13.6916 19.1666 15.3333 17.5249 15.3333 15.4999V8.62492C15.3333 8.37183 15.1281 8.16659 14.875 8.16659H12.5833C10.052 8.16659 7.99996 6.11455 7.99996 3.58325V1.29159ZM14.6178 6.33325C14.9226 6.33325 15.1416 6.03894 14.9952 5.77161C14.8709 5.54463 14.7141 5.33438 14.5278 5.1481L11.0185 1.63871C10.8322 1.45242 10.6219 1.29563 10.3949 1.17132C10.1276 1.02492 9.83329 1.24396 9.83329 1.54876V3.58325C9.83329 5.10203 11.0645 6.33325 12.5833 6.33325H14.6178ZM7.99996 9.08325C8.50623 9.08325 8.91663 9.49364 8.91663 9.99992V13.2869L10.1018 12.1017C10.4597 11.7438 11.0402 11.7438 11.3981 12.1017C11.7561 12.4597 11.7561 13.0401 11.3981 13.3981L8.64813 16.1481C8.29018 16.5061 7.70974 16.5061 7.35178 16.1481L4.60177 13.3981C4.2438 13.0401 4.2438 12.4597 4.60177 12.1017C4.95976 11.7438 5.54016 11.7438 5.89814 12.1017L7.08329 13.2869V9.99992C7.08329 9.49364 7.49368 9.08325 7.99996 9.08325Z" fill="currentColor"/>
</svg>
