<svg width="17" height="20" viewBox="0 0 17 20" fill="none" xmlns="http://www.w3.org/2000/svg">
<path d="M10.75 3.99998V1.74998L15.25 6.24998H13C11.42 6.24998 10.75 5.57998 10.75 3.99998ZM16 7.74998V16C16.0581 16.4075 16.0206 16.8229 15.8904 17.2134C15.7602 17.6039 15.5409 17.9587 15.2498 18.2498C14.9587 18.5409 14.6039 18.7602 14.2134 18.8904C13.8229 19.0206 13.4075 19.0581 13 19H3.99998C3.59247 19.0581 3.17703 19.0206 2.78653 18.8904C2.39604 18.7602 2.04121 18.5409 1.75014 18.2498C1.45907 17.9587 1.23976 17.6039 1.10955 17.2134C0.979351 16.8229 0.941835 16.4075 0.999977 16V3.99998C0.941835 3.59247 0.979351 3.17703 1.10955 2.78653C1.23976 2.39604 1.45907 2.04121 1.75014 1.75014C2.04121 1.45907 2.39604 1.23976 2.78653 1.10955C3.17703 0.979351 3.59247 0.941835 3.99998 0.999977H9.24998V3.99998C9.19086 4.50672 9.24719 5.02026 9.41474 5.50214C9.58229 5.98402 9.85673 6.42173 10.2175 6.78248C10.5782 7.14323 11.0159 7.41766 11.4978 7.58521C11.9797 7.75277 12.4932 7.80909 13 7.74998H16ZM11.53 9.79998C11.4604 9.73031 11.3778 9.67505 11.2869 9.63734C11.1959 9.59963 11.0984 9.58022 11 9.58022C10.9015 9.58022 10.804 9.59963 10.7131 9.63734C10.6222 9.67505 10.5395 9.73031 10.47 9.79998L7.66998 12.6L6.52998 11.47C6.3878 11.3375 6.19976 11.2654 6.00546 11.2688C5.81115 11.2722 5.62577 11.3509 5.48836 11.4884C5.35094 11.6258 5.27223 11.8112 5.2688 12.0055C5.26537 12.1998 5.3375 12.3878 5.46998 12.53L7.13698 14.2C7.20648 14.2698 7.28907 14.3251 7.38002 14.3629C7.47097 14.4007 7.56849 14.4201 7.66698 14.4201C7.76546 14.4201 7.86298 14.4007 7.95393 14.3629C8.04489 14.3251 8.12748 14.2698 8.19698 14.2L11.53 10.867C11.6006 10.7972 11.6566 10.7141 11.6949 10.6226C11.7331 10.531 11.7528 10.4327 11.7528 10.3335C11.7528 10.2342 11.7331 10.136 11.6949 10.0444C11.6566 9.95281 11.6006 9.86973 11.53 9.79998Z" fill="currentColor"/>
</svg>
