<svg width="40" height="40" viewBox="0 0 40 40" fill="none" xmlns="http://www.w3.org/2000/svg">
<rect width="40" height="40" rx="12" fill="currentColor"/>
<path d="M24.8272 14.1042C22.9749 14.9034 15.0436 18.2971 12.859 19.2316C11.3867 19.8218 12.2534 20.3874 12.2534 20.3874C12.2534 20.3874 13.512 20.83 14.5806 21.162C15.661 21.494 16.231 21.1251 16.231 21.1251L21.2771 17.5962C23.0699 16.3298 22.6425 17.3749 22.2032 17.8175C21.2771 18.7766 19.7336 20.3013 18.4394 21.5309C17.8695 22.0473 18.1544 22.49 18.4038 22.7236C19.3299 23.5351 21.8826 25.2073 22.0251 25.318C22.785 25.8713 24.2691 26.6706 24.4947 24.986L25.3852 19.1578C25.6702 17.1905 25.9551 15.3707 25.9907 14.8542C26.1213 13.5878 24.8272 14.1042 24.8272 14.1042Z" fill="#E6E6F8"/>
</svg>
