<svg width="40" height="40" viewBox="0 0 40 40" fill="none" xmlns="http://www.w3.org/2000/svg">
<rect width="40" height="40" rx="12" fill="currentColor"/>
<path d="M28.8424 23.9831C28.8056 23.9113 28.5115 23.2645 27.041 21.9709C25.5337 20.6055 25.7175 20.8211 27.5556 18.4495C28.6585 17.0122 29.0997 16.1139 28.9526 15.7546C28.8056 15.3953 27.9968 15.5031 27.9968 15.5031H25.2763C25.2763 15.5031 25.0925 15.4671 24.9087 15.5749C24.7617 15.6468 24.6881 15.8624 24.6881 15.8624C24.6881 15.8624 24.2837 16.9404 23.7323 17.8746C22.5191 19.8868 22.0412 19.9946 21.8574 19.8509C21.4162 19.5634 21.5265 18.7011 21.5265 18.0543C21.5265 16.1139 21.8206 15.2875 20.9383 15.1078C20.6074 15.0719 20.3868 15 19.6516 15C18.6957 15 17.8502 15 17.409 15.2156C17.0782 15.3593 16.8576 15.7187 17.0046 15.7187C17.1885 15.7546 17.5928 15.8264 17.8134 16.1139C18.1075 16.4732 18.0708 17.2997 18.0708 17.2997C18.0708 17.2997 18.2178 19.5994 17.7031 19.8868C17.3355 20.0665 16.8208 19.6712 15.7547 17.8746C15.2032 16.9404 14.7989 15.8983 14.7989 15.8983C14.7989 15.8983 14.6886 15.7187 14.5415 15.6109C14.3945 15.4671 14.1371 15.4312 14.1371 15.4312H11.5637C11.5637 15.4312 11.1593 15.4312 11.049 15.6109C10.9387 15.7546 11.049 16.042 11.049 16.042C11.049 16.042 13.071 20.6414 15.3503 22.977C17.4458 25.097 19.8354 24.9533 19.8354 24.9533H20.9015C20.9015 24.9533 21.2324 24.9174 21.3794 24.7377C21.5265 24.594 21.5265 24.2706 21.5265 24.2706C21.5265 24.2706 21.4897 22.8692 22.1882 22.6536C22.85 22.438 23.6955 24.0191 24.6146 24.6299C25.2763 25.097 25.8278 24.9893 25.8278 24.9893L28.2174 24.9533C28.1806 25.0252 29.4306 24.9533 28.8424 23.9831Z" fill="#E6E6F8"/>
</svg>
