<svg width="10" height="10" viewBox="0 0 10 10" fill="none" xmlns="http://www.w3.org/2000/svg">
<path d="M5 10C7.76072 10 10 7.76072 10 5C10 2.23928 7.76072 0 5 0C2.23928 0 0 2.23928 0 5C0 7.76072 2.23928 10 5 10ZM4.64285 2.14286C4.64285 1.94643 4.80356 1.78571 5 1.78571C5.19644 1.78571 5.35715 1.94643 5.35715 2.14286V4.82858L7.00894 6.15001C7.16252 6.27322 7.1875 6.49821 7.06429 6.65179C6.99464 6.73928 6.89108 6.78571 6.78571 6.78571C6.70713 6.78571 6.62856 6.7607 6.56251 6.70713L4.7768 5.27858C4.69287 5.21071 4.64288 5.10894 4.64288 5V2.14286H4.64285Z" fill="currentColor"/>
</svg>
