<svg width="23" height="23" viewBox="0 0 23 23" fill="none" xmlns="http://www.w3.org/2000/svg">
<path d="M2.85539 14.5473C3.41879 14.8121 4.03338 14.9442 4.65365 14.934L7.17927 14.934C7.29332 14.9345 7.406 14.9594 7.51 15.0071C7.61401 15.0549 7.70704 15.1243 7.78308 15.211C7.85911 15.2977 7.91647 15.3997 7.95142 15.5104C7.98638 15.6211 7.99817 15.7381 7.98602 15.8537L7.61318 19.28C7.52156 20.0842 7.73096 20.894 8.19952 21.5475C8.66809 22.2011 9.36127 22.6501 10.1405 22.805C10.4937 22.8744 10.8576 22.8636 11.2063 22.7735C11.555 22.6834 11.88 22.5161 12.1582 22.2836C12.4364 22.0511 12.661 21.759 12.8161 21.428C12.9712 21.097 13.053 20.7353 13.0557 20.3685L13.0557 19.1579C13.0579 18.0432 13.4811 16.9723 14.2375 16.1676C14.9939 15.363 16.0252 14.8865 17.1172 14.8372L17.1172 2.50853L14.8723 2.50853C13.7973 2.50739 12.7373 2.25055 11.7767 1.75843C10.4992 1.13455 9.09636 0.824071 7.68022 0.851804L5.34041 0.851804C4.35628 0.8518 3.40562 1.21621 2.66516 1.8773C1.92471 2.53838 1.44483 3.45116 1.31474 4.44596L0.55638 10.2449C0.443259 11.1179 0.604953 12.005 1.01815 12.7783C1.43134 13.5515 2.07468 14.171 2.85539 14.5473Z" fill="#364152"/>
<path d="M17.929 15.7622L20.3659 15.7622C21.7117 15.7622 22.8027 14.6496 22.8027 13.2771L22.8027 4.16514C22.8027 2.79267 21.7117 1.68006 20.3659 1.68006L17.929 1.68006C16.5831 1.68006 15.4921 2.79267 15.4921 4.16514L15.4921 13.2771C15.4921 14.6496 16.5831 15.7622 17.929 15.7622Z" fill="#C85343"/>
</svg>
