<svg width="23" height="20" viewBox="0 0 23 20" fill="none" xmlns="http://www.w3.org/2000/svg">
<path d="M16.7273 3C16.7273 2.40666 16.9112 1.82664 17.2558 1.33329C17.6005 0.839943 18.0903 0.455425 18.6634 0.228363C19.2365 0.00129987 19.8671 -0.0581101 20.4755 0.0576455C21.0839 0.173401 21.6428 0.459123 22.0814 0.878681C22.52 1.29824 22.8187 1.83279 22.9397 2.41473C23.0608 2.99667 22.9986 3.59987 22.7613 4.14805C22.5239 4.69623 22.1219 5.16476 21.6061 5.49441C21.0903 5.82405 20.4839 6 19.8636 6C19.0318 6 18.2341 5.68393 17.6459 5.12132C17.0577 4.55871 16.7273 3.79565 16.7273 3ZM1.04545 4H13.5909C13.8682 4 14.1341 3.89464 14.3302 3.70711C14.5262 3.51957 14.6364 3.26522 14.6364 3C14.6364 2.73478 14.5262 2.48043 14.3302 2.29289C14.1341 2.10536 13.8682 2 13.5909 2H1.04545C0.768183 2 0.502267 2.10536 0.306206 2.29289C0.110146 2.48043 0 2.73478 0 3C0 3.26522 0.110146 3.51957 0.306206 3.70711C0.502267 3.89464 0.768183 4 1.04545 4ZM7.31818 7C6.6711 7.00174 6.04043 7.19488 5.51261 7.55294C4.9848 7.911 4.58569 8.41645 4.37 9H1.04545C0.768183 9 0.502267 9.10535 0.306206 9.29289C0.110146 9.48043 0 9.73478 0 10C0 10.2652 0.110146 10.5196 0.306206 10.7071C0.502267 10.8946 0.768183 11 1.04545 11H4.37C4.56179 11.5189 4.89911 11.9773 5.34504 12.3251C5.79097 12.6729 6.32832 12.8966 6.89829 12.9718C7.46826 13.0471 8.04888 12.9709 8.5766 12.7516C9.10433 12.5323 9.55883 12.1784 9.89036 11.7286C10.2219 11.2788 10.4177 10.7504 10.4563 10.2013C10.4949 9.65218 10.3748 9.10349 10.1093 8.61527C9.84369 8.12705 9.44283 7.71812 8.95055 7.43322C8.45827 7.14833 7.89355 6.99845 7.31818 7ZM21.9545 9H13.5909C13.3136 9 13.0477 9.10535 12.8517 9.29289C12.6556 9.48043 12.5455 9.73478 12.5455 10C12.5455 10.2652 12.6556 10.5196 12.8517 10.7071C13.0477 10.8946 13.3136 11 13.5909 11H21.9545C22.2318 11 22.4977 10.8946 22.6938 10.7071C22.8899 10.5196 23 10.2652 23 10C23 9.73478 22.8899 9.48043 22.6938 9.29289C22.4977 9.10535 22.2318 9 21.9545 9ZM9.40909 16H1.04545C0.768183 16 0.502267 16.1054 0.306206 16.2929C0.110146 16.4804 0 16.7348 0 17C0 17.2652 0.110146 17.5196 0.306206 17.7071C0.502267 17.8946 0.768183 18 1.04545 18H9.40909C9.68636 18 9.95228 17.8946 10.1483 17.7071C10.3444 17.5196 10.4545 17.2652 10.4545 17C10.4545 16.7348 10.3444 16.4804 10.1483 16.2929C9.95228 16.1054 9.68636 16 9.40909 16ZM21.9545 16H18.63C18.3834 15.3328 17.8981 14.7704 17.26 14.4124C16.6218 14.0543 15.8718 13.9235 15.1426 14.0432C14.4134 14.1629 13.7519 14.5253 13.2751 15.0663C12.7982 15.6074 12.5366 16.2923 12.5366 17C12.5366 17.7077 12.7982 18.3926 13.2751 18.9337C13.7519 19.4747 14.4134 19.8371 15.1426 19.9568C15.8718 20.0765 16.6218 19.9457 17.26 19.5876C17.8981 19.2295 18.3834 18.6672 18.63 18H21.9545C22.2318 18 22.4977 17.8946 22.6938 17.7071C22.8899 17.5196 23 17.2652 23 17C23 16.7348 22.8899 16.4804 22.6938 16.2929C22.4977 16.1054 22.2318 16 21.9545 16Z" fill="#E6E6F8"/>
</svg>
