<svg width="18" height="18" viewBox="0 0 18 18" fill="none" xmlns="http://www.w3.org/2000/svg">
<path d="M7.41782 5.44905C3.34698 5.44905 3.70232e-05 8.2485 3.70232e-05 11.6896C3.70232e-05 13.0652 0.533568 14.4631 1.512 15.5466L0.130326 17.1255C-0.00562313 17.2811 -0.0385997 17.502 0.0474276 17.6905C0.132928 17.879 0.32038 18 0.52738 18H7.94517C10.9508 18 14.8356 15.4117 14.8356 11.6896C14.8356 8.2485 11.4887 5.44905 7.41782 5.44905ZM4.21868 12.6562C3.63726 12.6562 3.16403 12.183 3.16403 11.6016C3.16403 11.0201 3.6373 10.5469 4.21868 10.5469C4.80006 10.5469 5.27333 11.0202 5.27333 11.6016C5.27336 12.183 4.80009 12.6562 4.21868 12.6562ZM7.41782 12.6562C6.83641 12.6562 6.36317 12.183 6.36317 11.6016C6.36317 11.0201 6.83644 10.5469 7.41782 10.5469C7.9992 10.5469 8.47247 11.0202 8.47247 11.6016C8.47247 12.183 7.99924 12.6562 7.41782 12.6562ZM10.617 12.6562C10.0356 12.6562 9.56232 12.183 9.56232 11.6016C9.56232 11.0201 10.0356 10.5469 10.617 10.5469C11.1983 10.5469 11.6716 11.0202 11.6716 11.6016C11.6716 12.183 11.1984 12.6562 10.617 12.6562Z" fill="currentColor"/>
<path d="M17.8724 10.7307L16.6308 9.28205C17.5171 8.28197 17.9996 7.06245 17.9996 5.80077C17.9996 2.60222 14.9242 0 11.1443 0C7.72625 0 4.82231 2.13013 4.30956 4.90264C5.26327 4.57857 6.33283 4.39434 7.41786 4.39434C12.0357 4.39434 15.8297 7.61982 15.8852 11.6015H17.4723C17.9227 11.6016 18.1647 11.0711 17.8724 10.7307Z" fill="currentColor"/>
</svg>
