<svg width="14" height="12" viewBox="0 0 14 12" fill="none" xmlns="http://www.w3.org/2000/svg">
<path d="M12 2.39957H4.01562C3.48438 2.39957 3.42813 1.78154 3.87813 1.67954H12C12.1156 1.67954 12.2344 1.68554 12.35 1.70054C12.1906 0.617489 11.1438 -0.135545 10.0188 0.0204618C9.9875 0.023462 9.95938 0.0294622 9.92813 0.0354625L2.025 1.32852C1.91875 1.34352 1.80938 1.36152 1.70312 1.38252H1.69688C1.65625 1.38852 1.61875 1.39752 1.57812 1.40652C0.36875 1.68554 0.015625 2.72958 0.015625 3.35961V4.08564C0.00625 4.16365 0 4.24165 0 4.31965V10.0799C0 11.139 0.896875 12 2 12H12C13.1031 12 14 11.139 14 10.0799V4.31965C14 3.26061 13.1031 2.39957 12 2.39957ZM10.5156 8.15983C9.9625 8.15983 9.51562 7.73081 9.51562 7.19978C9.51562 6.66876 9.9625 6.23974 10.5156 6.23974C11.0688 6.23974 11.5156 6.66876 11.5156 7.19978C11.5156 7.73081 11.0688 8.15983 10.5156 8.15983Z" fill="currentColor"/>
</svg>
