<svg width="24" height="24" viewBox="0 0 24 24" fill="none" xmlns="http://www.w3.org/2000/svg">
<rect width="24" height="24" rx="6" fill="#C85343"/>
<path d="M13.65 12.0003L16.7436 8.90668C17.0855 8.56487 17.0855 8.0107 16.7436 7.66942L16.3312 7.257C15.9893 6.91508 15.4351 6.91508 15.0939 7.257L12.0003 10.3505L8.90668 7.25636C8.56487 6.91455 8.0107 6.91455 7.66942 7.25636L7.25636 7.66878C6.91455 8.0107 6.91455 8.56487 7.25636 8.90615L10.3505 12.0003L7.257 15.0939C6.91508 15.4358 6.91508 15.9899 7.257 16.3312L7.66942 16.7436C8.01124 17.0855 8.5654 17.0855 8.90668 16.7436L12.0003 13.65L15.0939 16.7436C15.4358 17.0855 15.9899 17.0855 16.3312 16.7436L16.7436 16.3312C17.0855 15.9893 17.0855 15.4351 16.7436 15.0939L13.65 12.0003Z" fill="#171D25"/>
</svg>
