<svg width="24" height="24" viewBox="0 0 24 24" fill="none" xmlns="http://www.w3.org/2000/svg">
<rect width="24" height="24" rx="6" fill="#EEB536"/>
<path d="M16.226 13.0762C15.74 12.8267 15.134 12.9981 14.871 13.46C14.297 14.4686 13.197 15.0952 12 15.0952C11.389 15.0952 10.81 14.9191 10.304 14.6248L10.78 14.1714C10.994 13.9676 11.059 13.66 10.943 13.3933C10.827 13.1267 10.553 12.9524 10.25 12.9524H7.75C7.336 12.9524 7 13.2724 7 13.6667V16.0476C7 16.3362 7.183 16.5971 7.463 16.7076C7.556 16.7448 7.653 16.7619 7.75 16.7619C7.945 16.7619 8.137 16.6895 8.28 16.5524L8.853 16.0067C9.752 16.6457 10.851 17 12 17C13.932 17 15.706 15.9914 16.629 14.3676C16.892 13.9048 16.712 13.3276 16.226 13.0762Z" fill="#171D25"/>
<path d="M16.537 7.29238C16.257 7.1819 15.934 7.24286 15.72 7.44762L15.147 7.99333C14.248 7.35428 13.149 7 12 7C10.064 7 8.29 8.01333 7.369 9.6438C7.108 10.1076 7.29 10.6848 7.776 10.9333C7.927 11.0105 8.089 11.0467 8.249 11.0467C8.605 11.0467 8.95 10.8648 9.131 10.5457C9.702 9.53333 10.802 8.90476 12 8.90476C12.611 8.90476 13.19 9.08095 13.696 9.37523L13.22 9.82856C13.006 10.0324 12.941 10.34 13.057 10.6067C13.173 10.8733 13.447 11.0476 13.75 11.0476H16.25C16.664 11.0476 17 10.7276 17 10.3333V7.95238C17 7.66381 16.817 7.40286 16.537 7.29238Z" fill="#171D25"/>
</svg>
