<svg width="17" height="14" viewBox="0 0 17 14" fill="none" xmlns="http://www.w3.org/2000/svg">
<path d="M16.503 8.53563V9.87943H11.0725V8.53563H16.503ZM10.6308 4.09925V3.51939C10.6308 2.88737 10.7596 2.31979 11.0173 1.81663C11.2812 1.31347 11.6493 0.917693 12.1218 0.629298C12.5943 0.334766 13.1557 0.1875 13.8062 0.1875C14.4689 0.1875 15.0365 0.334766 15.5089 0.629298C15.9875 0.917693 16.3557 1.31347 16.6134 1.81663C16.8711 2.31979 17 2.88737 17 3.51939V4.09925C17 4.73127 16.8711 5.29885 16.6134 5.80201C16.3557 6.30517 15.9906 6.70095 15.5181 6.98934C15.0457 7.27774 14.4811 7.42193 13.8246 7.42193C13.168 7.42193 12.6004 7.27774 12.1218 6.98934C11.6493 6.70095 11.2812 6.30517 11.0173 5.80201C10.7596 5.29885 10.6308 4.73127 10.6308 4.09925ZM12.2231 3.51939V4.09925C12.2231 4.46741 12.2814 4.80183 12.3979 5.1025C12.5145 5.40317 12.6925 5.64247 12.9318 5.82042C13.1711 5.99836 13.4687 6.08734 13.8246 6.08734C14.1805 6.08734 14.475 5.99836 14.7082 5.82042C14.9413 5.64247 15.1162 5.40317 15.2328 5.1025C15.3494 4.80183 15.4077 4.46741 15.4077 4.09925V3.51939C15.4077 3.15736 15.3463 2.82601 15.2236 2.52535C15.107 2.22468 14.9321 1.98537 14.699 1.80742C14.4658 1.62948 14.1682 1.5405 13.8062 1.5405C13.4564 1.5405 13.1619 1.62948 12.9226 1.80742C12.6894 1.98537 12.5145 2.22468 12.3979 2.52535C12.2814 2.82601 12.2231 3.15736 12.2231 3.51939ZM9.59069 0.334766V13.736H6.42447L2.8993 5.21295V13.736H0V0.334766H3.17542L6.69139 8.85778V0.334766H9.59069Z" fill="#364152"/>
</svg>
