<svg width="20" height="20" viewBox="0 0 20 20" fill="none" xmlns="http://www.w3.org/2000/svg">
<path d="M8.24203 6.0545C3.71887 6.0545 4.11368e-05 9.165 4.11368e-05 12.9885C4.11368e-05 14.5168 0.592853 16.0701 1.68 17.274L0.144807 19.0284C-0.00624792 19.2012 -0.0428885 19.4467 0.0526973 19.6561C0.147697 19.8655 0.355978 20 0.585978 20H8.82796C12.1676 20 16.484 17.1242 16.484 12.9885C16.484 9.165 12.7652 6.0545 8.24203 6.0545ZM4.68742 14.0625C4.0414 14.0625 3.51558 13.5366 3.51558 12.8906C3.51558 12.2446 4.04144 11.7188 4.68742 11.7188C5.3334 11.7188 5.85925 12.2446 5.85925 12.8906C5.85929 13.5366 5.33343 14.0625 4.68742 14.0625ZM8.24203 14.0625C7.59601 14.0625 7.07019 13.5366 7.07019 12.8906C7.07019 12.2446 7.59605 11.7188 8.24203 11.7188C8.888 11.7188 9.41386 12.2446 9.41386 12.8906C9.41386 13.5366 8.88804 14.0625 8.24203 14.0625ZM11.7966 14.0625C11.1506 14.0625 10.6248 13.5366 10.6248 12.8906C10.6248 12.2446 11.1507 11.7188 11.7966 11.7188C12.4426 11.7188 12.9685 12.2446 12.9685 12.8906C12.9685 13.5366 12.4426 14.0625 11.7966 14.0625Z" fill="#364152"/>
<path d="M19.8582 11.923L18.4787 10.3134C19.4634 9.20219 19.9996 7.84716 19.9996 6.44529C19.9996 2.89135 16.5824 0 12.3826 0C8.58472 0 5.35812 2.36681 4.7884 5.44738C5.84808 5.0873 7.03648 4.88261 8.24206 4.88261C13.373 4.88261 17.5886 8.46647 17.6502 12.8906H19.4137C19.9142 12.8906 20.183 12.3012 19.8582 11.923Z" fill="#364152"/>
</svg>
