<svg width="15" height="16" viewBox="0 0 15 16" fill="none" xmlns="http://www.w3.org/2000/svg">
<path d="M8.91602 10.5645H0.633789V7.84668H8.80859C9.44596 7.84668 9.95085 7.75 10.3232 7.55664C10.6956 7.35612 10.9642 7.08398 11.1289 6.74023C11.2936 6.38932 11.376 5.99186 11.376 5.54785C11.376 5.10384 11.2865 4.69564 11.1074 4.32324C10.9284 3.95085 10.6562 3.65365 10.291 3.43164C9.93294 3.20247 9.47819 3.08789 8.92676 3.08789H6.27344V16H2.78223V0.359375H8.91602C10.1549 0.359375 11.222 0.584961 12.1172 1.03613C13.0124 1.48014 13.6999 2.08887 14.1797 2.8623C14.6667 3.63574 14.9102 4.52376 14.9102 5.52637C14.9102 6.5791 14.6595 7.48145 14.1582 8.2334C13.6641 8.98535 12.9694 9.56185 12.0742 9.96289C11.179 10.3639 10.1263 10.5645 8.91602 10.5645ZM9.66797 11.2949V14.002H0.633789V11.2949H9.66797Z" fill="#364152"/>
</svg>
