<svg width="15" height="17" viewBox="0 0 15 17" fill="none" xmlns="http://www.w3.org/2000/svg">
<path d="M8.47253 10.7989H0V8.01872H8.36264C9.01465 8.01872 9.53114 7.91981 9.91209 7.72201C10.293 7.51688 10.5678 7.2385 10.7363 6.88685C10.9048 6.52787 10.989 6.12128 10.989 5.66707C10.989 5.21285 10.8974 4.79527 10.7143 4.41432C10.5311 4.03337 10.2527 3.72934 9.87912 3.50223C9.51282 3.2678 9.04762 3.15058 8.48352 3.15058H5.76923V16.3594H2.1978V0.359375H8.47253C9.73993 0.359375 10.8315 0.590144 11.7473 1.05168C12.663 1.5059 13.3663 2.12861 13.8571 2.91981C14.3553 3.71102 14.6044 4.61945 14.6044 5.64509C14.6044 6.72201 14.348 7.64509 13.8352 8.41432C13.3297 9.18355 12.619 9.77329 11.7033 10.1836C10.7875 10.5938 9.71062 10.7989 8.47253 10.7989ZM9.24176 11.5462V14.3154H0V11.5462H9.24176Z" fill="#E7BB0B"/>
</svg>
