<svg width="18" height="18" viewBox="0 0 18 18" fill="none" xmlns="http://www.w3.org/2000/svg">
<path d="M5.44805 9.8707C6.04453 10.4613 6.83125 10.7875 7.6625 10.7875C7.76562 10.7875 7.86836 10.7824 7.97031 10.7723C8.02109 10.7672 8.07188 10.7609 8.12227 10.7535C8.17266 10.7461 8.22266 10.7371 8.27266 10.7273C8.6457 10.6527 9.00195 10.5098 9.32617 10.3047C9.32656 10.3043 9.32656 10.3047 9.32656 10.3047C9.39102 10.2637 9.45469 10.2203 9.5168 10.1742C9.64102 10.082 9.75977 9.98047 9.87188 9.86953C11.0895 8.65 11.0895 6.6668 9.8707 5.44805C9.83359 5.41133 9.79609 5.37578 9.75742 5.34102C9.71914 5.30664 9.68008 5.27305 9.64023 5.24062C9.60039 5.2082 9.55976 5.17656 9.51836 5.14609C9.45664 5.10039 9.39336 5.05742 9.32891 5.0168C9.30703 5.00352 9.28555 4.99023 9.26367 4.97695C8.9582 4.79453 8.62461 4.66641 8.275 4.59727C8.2 4.58242 8.12422 4.57031 8.04805 4.56094C7.92109 4.54531 7.79219 4.5375 7.6625 4.5375C7.53203 4.5375 7.40273 4.54531 7.275 4.56094C7.19844 4.57031 7.12227 4.58242 7.04727 4.59727C6.97187 4.61211 6.89766 4.62969 6.82383 4.65C6.79922 4.65664 6.775 4.66367 6.75039 4.67109C6.67773 4.69297 6.60547 4.71758 6.53438 4.74492C6.43945 4.78125 6.34648 4.82227 6.25586 4.86758C6.11953 4.93555 5.98789 5.01406 5.86211 5.10234C5.81992 5.13164 5.77891 5.16211 5.73789 5.19375C5.69727 5.225 5.65742 5.25781 5.61797 5.29141C5.57891 5.325 5.54023 5.35977 5.50234 5.3957C5.4832 5.41328 5.46484 5.43164 5.44609 5.45C4.2293 6.66758 4.2293 8.65117 5.44805 9.8707ZM17.7477 15.4656C17.7801 16.0773 17.55 16.6789 17.118 17.1148C16.7055 17.5238 16.1512 17.7512 15.5789 17.7512C14.9301 17.752 14.3062 17.4551 13.8961 16.9512L11.4563 14.0211C10.2781 14.7273 8.96445 15.075 7.65742 15.075C5.75195 15.075 3.85938 14.3367 2.4207 12.898C1.0207 11.4988 0.25 9.63828 0.25 7.65937C0.25 5.68047 1.0207 3.81992 2.4207 2.4207C3.81992 1.0207 5.68047 0.25 7.65937 0.25C9.63828 0.25 11.4988 1.0207 12.898 2.42109C15.3367 4.86016 15.7613 8.5832 14.0043 11.4789L16.952 13.8977C17.425 14.2832 17.7148 14.8551 17.7477 15.4656Z" fill="#364152"/>
</svg>
