<svg width="16" height="18" viewBox="0 0 16 18" fill="none" xmlns="http://www.w3.org/2000/svg">
<path d="M8 9.337C10.3621 9.337 12.2831 6.7796 12.2831 4.3702C12.2831 1.9606 10.3621 0 8 0C5.63831 0 3.71692 1.9604 3.71692 4.37C3.71711 6.7796 5.6385 9.337 8 9.337Z" fill="#364152"/>
<path d="M11.2156 9.3816C10.3846 10.0274 9.34817 10.4118 8.22545 10.4118H7.77455C6.65183 10.4118 5.61517 10.0274 4.78436 9.3816C2.07155 9.829 0 12.228 0 15.1216C0 16.7112 3.58165 18 8 18C12.4184 18 16 16.7112 16 15.1216C16 12.228 13.9283 9.829 11.2156 9.3816Z" fill="#364152"/>
</svg>
