<svg width="64" height="64" viewBox="0 0 64 64" fill="none" xmlns="http://www.w3.org/2000/svg">
<path d="M30.0007 0H5.00053C2.2391 0 0.000522612 2.23858 0.000522612 5V32.1841C0.000522612 38.5133 0.000522612 51.4941 0.000302382 59.0061C0.000221419 61.7678 2.23898 64 5.00064 64H32.0005H59.0081C61.7543 64 63.98 61.7917 63.9821 59.0454C63.9877 51.5395 63.9694 38.5243 63.9694 32.1841V5C63.9694 2.23857 61.7309 0 58.9694 0H30.0007Z" fill="#E7BB0B"/>
<path d="M26.1201 12.0006C16.8032 12.0006 8.68212 19.9501 8.04245 30.4812C8.01464 30.9377 8.00073 31.41 8.00073 31.8665C8.00073 44.3024 16.1913 52 29.2767 52L46.0007 52L44.0007 48.0006L41.029 41.5318L29.9164 41.5318C22.9913 41.5318 19.487 37.9585 19.487 31.8665C19.487 25.7745 22.9913 22.2011 29.9164 22.2011L34.4914 22.2011L48.0007 22.2006L38.0007 12.0006L26.1201 12.0006Z" fill="#7A640D"/>
<path d="M45.1763 52H32.0004L24.0005 32H37.6469L45.1763 52Z" fill="#7A640D"/>
<path d="M58.0012 36H44.0012L36.0012 12H48.0012L58.0012 36Z" fill="#7A640D"/>
<path d="M28.0002 12L40.0002 12L56.0002 52L44.0002 52L28.0002 12Z" fill="#7A640D"/>
<path d="M36.0005 12L24.0005 12.6047V22H34.0005H40.0005L36.0005 12Z" fill="#7A640D"/>
</svg>
