<svg width="76" height="40" viewBox="0 0 76 40" fill="none" xmlns="http://www.w3.org/2000/svg">
<path d="M20.6905 0.00152369C10.0515 0.00152276 0.778109 7.95073 0.0476703 18.4815C0.0159129 18.9379 3.61323e-05 19.4102 3.60924e-05 19.8667C3.50052e-05 32.3021 9.35284 39.9994 24.295 39.9994L45.676 40L39.8484 29.4535L25.0255 29.5316C17.1177 29.5316 13.1162 25.9584 13.1162 19.8667C13.1162 13.7749 17.1177 10.2017 25.0255 10.2017L30.2497 10.2017L24.7079 0.00152405L20.6905 0.00152369Z" fill="white"/>
<path d="M46.4487 39.9984H33.6749L20.9013 18.8379H33.6751L46.4487 39.9984Z" fill="#E7BB0B"/>
<path d="M75.0911 30.8375H62.3174L44.6418 0H57.4156L75.0911 30.8375Z" fill="#E7BB0B"/>
<path d="M27.8693 0.00114891L40.6652 0.00115003L63.6321 39.9443L50.8362 39.9443L27.8693 0.00114891Z" fill="white"/>
<rect x="21.7188" width="14.6544" height="10.2276" fill="white"/>
</svg>
