<svg width="8" height="5" viewBox="0 0 8 5" fill="none" xmlns="http://www.w3.org/2000/svg">
<path d="M3.53784 4.81148L0.1951 1.49197C0.0650154 1.36972 1.45134e-08 1.21707 1.23268e-08 1.03371C1.01403e-08 0.850346 0.0650873 0.697693 0.1951 0.575446L0.580264 0.188498C0.706932 0.0628803 0.8609 7.12838e-05 1.04233 7.12817e-05C1.22033 7.12795e-05 1.37613 0.0628624 1.5096 0.188498L4.00002 2.66292L6.49556 0.188391C6.62223 0.0628089 6.7762 -8.08054e-08 6.95765 -8.29691e-08C7.13563 -8.50915e-08 7.29149 0.0627911 7.4249 0.188391L7.81001 0.575374C7.93668 0.700974 8 0.853788 8 1.03364C8 1.21356 7.93668 1.36634 7.81001 1.4919L4.46727 4.81148C4.33376 4.93714 4.178 5 4 5C3.81857 5.00002 3.66451 4.93714 3.53784 4.81148Z" fill="#E7BB0B"/>
</svg>
