<svg width="36" height="36" viewBox="0 0 36 36" fill="none" xmlns="http://www.w3.org/2000/svg">
<path d="M36 11.7C36 17.568 31.68 22.41 26.0641 23.256V23.148C25.5061 16.164 19.8361 10.494 12.7981 9.936H12.7441C13.5901 4.32 18.4321 0 24.3001 0C30.762 0 36 5.238 36 11.7Z" fill="currentColor"/>
<path d="M23.3639 23.364C22.9139 17.658 18.3419 13.086 12.6359 12.636C12.3299 12.618 12.0059 12.6 11.6999 12.6C5.23797 12.6 0 17.838 0 24.3C0 30.762 5.23797 36 11.6999 36C18.1619 36 23.3999 30.762 23.3999 24.3C23.3999 23.994 23.3819 23.67 23.3639 23.364ZM13.2839 25.884L11.6999 28.8L10.116 25.884L7.19996 24.3L10.116 22.716L11.6999 19.8L13.2839 22.716L16.1999 24.3L13.2839 25.884Z" fill="currentColor"/>
</svg>
