<svg width="18" height="18" viewBox="0 0 18 18" preserveAspectRatio="xMidYMid meet"> fill="none" xmlns="http://www.w3.org/2000/svg">
<path d="M9 0C7.21997 0 5.47991 0.527841 3.99987 1.51677C2.51983 2.50571 1.36628 3.91131 0.685088 5.55585C0.0038996 7.20038 -0.17433 9.00998 0.172936 10.7558C0.520203 12.5016 1.37737 14.1053 2.63604 15.364C3.89472 16.6226 5.49836 17.4798 7.24419 17.8271C8.99002 18.1743 10.7996 17.9961 12.4442 17.3149C14.0887 16.6337 15.4943 15.4802 16.4832 14.0001C17.4722 12.5201 18 10.78 18 9C17.9974 6.61384 17.0484 4.32616 15.3611 2.63889C13.6738 0.951621 11.3862 0.00258081 9 0ZM9 14.25C8.85167 14.25 8.70666 14.206 8.58332 14.1236C8.45999 14.0412 8.36386 13.9241 8.30709 13.787C8.25033 13.65 8.23547 13.4992 8.26441 13.3537C8.29335 13.2082 8.36478 13.0746 8.46967 12.9697C8.57456 12.8648 8.7082 12.7933 8.85368 12.7644C8.99917 12.7355 9.14997 12.7503 9.28702 12.8071C9.42406 12.8639 9.54119 12.96 9.6236 13.0833C9.70602 13.2067 9.75 13.3517 9.75 13.5C9.75 13.6989 9.67099 13.8897 9.53033 14.0303C9.38968 14.171 9.19891 14.25 9 14.25ZM10.1453 9.525C10.0224 9.58475 9.91961 9.67898 9.84942 9.79619C9.77923 9.91339 9.74469 10.0485 9.75 10.185V10.5C9.75 10.6989 9.67099 10.8897 9.53033 11.0303C9.38968 11.171 9.19891 11.25 9 11.25C8.80109 11.25 8.61032 11.171 8.46967 11.0303C8.32902 10.8897 8.25 10.6989 8.25 10.5V10.185C8.24226 9.75082 8.36395 9.32416 8.59956 8.95938C8.83517 8.59461 9.17405 8.30824 9.573 8.13675C9.89149 8.00489 10.1548 7.76735 10.3188 7.46411C10.4827 7.16088 10.5371 6.81043 10.473 6.47175C10.4152 6.17496 10.2702 5.90219 10.0564 5.6884C9.84256 5.4746 9.56979 5.32952 9.273 5.27175C9.0563 5.23164 8.83341 5.23977 8.6202 5.29557C8.407 5.35138 8.20871 5.45347 8.03943 5.5946C7.87016 5.73574 7.73407 5.91243 7.64084 6.11213C7.5476 6.31182 7.49952 6.52961 7.5 6.75C7.5 6.94891 7.42099 7.13968 7.28033 7.28033C7.13968 7.42098 6.94892 7.5 6.75 7.5C6.55109 7.5 6.36033 7.42098 6.21967 7.28033C6.07902 7.13968 6 6.94891 6 6.75C6.0004 6.2067 6.14833 5.67371 6.428 5.20792C6.70767 4.74213 7.10858 4.36103 7.58794 4.1053C8.06729 3.84958 8.60709 3.72883 9.14971 3.75594C9.69234 3.78305 10.2174 3.95701 10.6689 4.25925C11.1204 4.56148 11.4813 4.98065 11.7131 5.472C11.945 5.96334 12.039 6.50843 11.9853 7.04906C11.9315 7.5897 11.7319 8.10558 11.4079 8.54165C11.0838 8.97772 10.6474 9.31759 10.1453 9.525Z" fill="#364152"/>
</svg>
