<svg width="35" height="23" viewBox="0 0 35 23" fill="none" xmlns="http://www.w3.org/2000/svg">
<path d="M34.9969 17.9741C34.9149 13.9078 34.3755 9.79588 33.491 5.64561C32.7705 2.76209 30.1783 0.193883 26.0365 0.00578806C22.9788 -0.106217 22.3875 1.44481 18.9231 1.41498C17.9743 1.4095 17.0261 1.4095 16.0773 1.41498C12.6122 1.44481 12.0196 -0.106217 8.96326 0.00578806C4.82073 0.193883 2.14792 2.75539 1.50603 5.64561C0.620788 9.79588 0.08144 13.9072 9.34379e-05 17.9735C-0.0197305 20.8046 3.11929 22.688 5.19055 22.8171C9.19157 23.0861 12.3702 16.8035 14.7922 16.8029C16.5975 16.812 18.4022 16.8126 20.2075 16.8029C22.6302 16.8029 25.8061 23.0867 29.8099 22.8177C31.8804 22.6886 35.1008 20.7925 34.9976 17.9741H34.9969ZM13.0497 10.04H11.1835V11.7018C11.1835 12.403 10.5451 12.9716 9.75758 12.9716C8.97009 12.9716 8.33162 12.403 8.33162 11.7018V10.04H6.46544C5.67795 10.04 5.03948 9.47143 5.03948 8.77018C5.03948 8.06893 5.67795 7.50039 6.46544 7.50039H8.33162V5.83857C8.33162 5.13732 8.97009 4.56878 9.75758 4.56878C10.5451 4.56878 11.1835 5.13732 11.1835 5.83857V7.50039H13.0497C13.8372 7.50039 14.4757 8.06893 14.4757 8.77018C14.4757 9.47143 13.8372 10.04 13.0497 10.04ZM24.5729 12.971C23.4566 12.9978 22.5283 12.2125 22.4982 11.2191C22.4688 10.222 23.3513 9.39412 24.467 9.36856C25.5839 9.3436 26.5136 10.1282 26.5423 11.1229C26.5703 12.1176 25.6892 12.9454 24.5729 12.971ZM27.9396 8.1712C26.8233 8.1992 25.8929 7.41334 25.8622 6.41929C25.8341 5.42342 26.7153 4.59678 27.8322 4.56939C28.9506 4.54321 29.8789 5.32907 29.909 6.32372C29.9384 7.31777 29.0552 8.14624 27.9396 8.1712Z" fill="currentColor"/>
</svg>
