<svg width="32" height="32" viewBox="0 0 32 32" fill="none" xmlns="http://www.w3.org/2000/svg">
<path fill-rule="evenodd" clip-rule="evenodd" d="M14.3473 0.0397007C11.6534 0.3781 9.25739 1.25112 7.02777 2.70662C5.79731 3.50979 3.69691 5.58622 2.82373 6.8627C1.31074 9.07447 0.34281 11.6542 0.0504546 14.2544L0 14.703L1.15041 15.18C1.78309 15.4422 3.70998 16.2397 5.43235 16.9521L8.56388 18.2472L9.29596 17.9137C9.75416 17.7048 10.2963 17.5534 10.7449 17.5088L11.4616 17.4377L13.3886 14.6604C15.3035 11.9006 15.3156 11.8795 15.3204 11.2956C15.3305 10.0585 16.1123 8.48686 17.2366 7.44379C19.6063 5.24515 23.216 5.31288 25.5288 7.59963C26.752 8.80881 27.3084 10.131 27.3107 11.834C27.313 13.476 26.7084 14.9642 25.5776 16.0997C24.5678 17.1136 23.5059 17.6245 21.9448 17.8473L21.0487 17.9752L18.4151 19.8428L15.7814 21.7104L15.7103 22.2979C15.44 24.5316 13.9621 26.1236 11.8491 26.4574C9.7265 26.7926 7.62869 25.5267 6.90331 23.4729L6.69577 22.8854L3.68805 21.6352C1.5507 20.7468 0.670711 20.4268 0.647375 20.5294C0.605131 20.7156 1.24494 22.3536 1.73814 23.3221C3.19852 26.1891 5.90967 28.8579 8.83722 30.3104C17.6459 34.6805 28.2683 30.2307 31.2881 20.9054C31.8742 19.0954 32.0045 18.1872 31.9999 15.9422C31.9964 14.2733 31.954 13.7201 31.7609 12.8287C31.0512 9.55355 29.6454 6.9724 27.316 4.66844C25.0112 2.38852 22.3356 0.939642 19.2305 0.289975C18.205 0.0753779 15.2633 -0.0753422 14.3473 0.0397007ZM20.1814 7.97254C16.6053 9.11613 16.2613 13.9139 19.6412 15.5048C20.265 15.7984 20.4522 15.8354 21.3158 15.8354C22.1588 15.8354 22.3776 15.7946 22.9604 15.5284C23.7004 15.1905 24.5522 14.3878 24.913 13.6886C25.2248 13.0843 25.4065 12.0497 25.3204 11.3687C25.1566 10.0724 24.1991 8.76523 23.0116 8.21726C22.5091 7.98535 22.2178 7.92895 21.4239 7.90973C20.8891 7.89669 20.33 7.925 20.1814 7.97254ZM22.6123 9.13418C23.6662 9.67222 24.2822 10.6861 24.2822 11.8831C24.2822 12.7314 24.0795 13.2783 23.54 13.8858C22.4218 15.1449 20.2092 15.1442 19.0902 13.8843C17.698 12.3165 18.2906 9.81269 20.2346 9.04926C20.9263 8.77762 21.9879 8.81554 22.6123 9.13418ZM10.3768 18.6722C10.1837 18.7309 10.0257 18.7957 10.0257 18.8159C10.0257 18.8362 10.5344 19.0587 11.1561 19.3104C12.4742 19.8439 12.9393 20.1867 13.2752 20.8728C14.0554 22.4663 12.9595 24.3117 11.1756 24.408C10.5897 24.4396 10.3731 24.3871 9.32999 23.9607C8.68003 23.695 8.1327 23.4929 8.11379 23.5116C8.09488 23.5303 8.22583 23.7454 8.40474 23.9896C9.91568 26.0518 13.0496 25.7633 14.2524 23.451C14.6086 22.7662 14.6542 21.5727 14.3543 20.7867C13.8758 19.5332 12.7612 18.7065 11.4249 18.6136C11.0416 18.587 10.5699 18.6134 10.3768 18.6722Z" fill="currentColor"/>
</svg>
