<svg width="35" height="36" viewBox="0 0 35 36" fill="none" xmlns="http://www.w3.org/2000/svg">
<path d="M17.5 0.501465C7.83535 0.501465 0 8.33682 0 18.0015C0 27.6661 7.83535 35.5015 17.5 35.5015C27.1646 35.5015 35 27.6661 35 18.0015C35 8.33682 27.1646 0.501465 17.5 0.501465ZM19.9493 25.1225C19.9493 25.7721 19.6913 26.3951 19.2319 26.8544C18.7726 27.3137 18.1496 27.5718 17.5 27.5718C16.8504 27.5718 16.2274 27.3137 15.7681 26.8544C15.3087 26.3951 15.0507 25.7721 15.0507 25.1225C15.0507 24.4729 15.3087 23.8499 15.7681 23.3905C16.2274 22.9312 16.8504 22.6731 17.5 22.6731C18.1496 22.6731 18.7726 22.9312 19.2319 23.3905C19.6913 23.8499 19.9493 24.4729 19.9493 25.1225ZM20.2747 10.981L19.9514 19.1458C19.9261 19.779 19.6568 20.3779 19.1999 20.8171C18.7429 21.2562 18.1337 21.5014 17.5 21.5015C16.8663 21.5014 16.2571 21.2562 15.8001 20.8171C15.3432 20.3779 15.0739 19.779 15.0486 19.1458L14.7253 10.981C14.7123 10.6509 14.7661 10.3217 14.8835 10.0129C15.0008 9.70419 15.1793 9.42232 15.4082 9.18422C15.6371 8.94612 15.9117 8.75669 16.2156 8.62729C16.5195 8.49788 16.8464 8.43117 17.1767 8.43115H17.8233C18.1536 8.43117 18.4805 8.49788 18.7844 8.62729C19.0883 8.75669 19.3629 8.94612 19.5918 9.18422C19.8207 9.42232 19.9992 9.70419 20.1165 10.0129C20.2339 10.3217 20.2877 10.6509 20.2747 10.981Z" fill="#E6E6F8"/>
</svg>
