<svg width="76" height="51" viewBox="90 90 76 51" fill="none" xmlns="http://www.w3.org/2000/svg">
  <path d="M166 131.917C166 134.402 163.984 136.409 161.508 136.409H132.636L101.436 141.774C98.9927 142.193 96.6643 140.556 96.2447 138.104L91.8263 112.409L124.425 106.806C125.47 106.625 126.474 107.266 126.753 108.287L127.444 110.796C127.535 111.142 127.543 111.495 127.461 111.841L125.7 118.876C125.47 119.806 126.745 120.316 127.214 119.476L130.974 112.795C131.114 112.54 131.205 112.261 131.229 111.964L131.6 107.711C131.69 106.649 132.579 105.835 133.648 105.835H166V131.917ZM161.417 129.391C161.417 128.255 160.496 127.334 159.36 127.334H147.487C146.352 127.334 145.43 128.255 145.43 129.391V129.786C145.43 130.921 146.352 131.843 147.487 131.843H159.36C160.496 131.843 161.417 130.921 161.417 129.786V129.391Z" fill="#364152"/>
  <path d="M125.132 93.8716L125.437 97.2039C125.536 98.2735 124.795 99.2362 123.734 99.4172L90.5592 105.061L90.0655 102.206C89.6459 99.7628 91.2833 97.4343 93.7352 97.0147L122.738 92.0286C123.923 91.8229 125.025 92.6704 125.132 93.8716Z" fill="#364152"/>
  <path d="M166 95.4924V98.3886H133.986C132.719 98.3886 131.756 97.2532 131.953 96.0025L132.48 92.7279C132.644 91.7323 133.5 91 134.512 91H161.499C163.984 90.9918 166 93.0076 166 95.4924Z" fill="#364152"/>
</svg>
