<svg width="20" height="27" viewBox="0 0 20 27" fill="none" xmlns="http://www.w3.org/2000/svg">
<path d="M20 15.5863V20.6561C20 24.1541 17.1236 27 13.5881 27H9.38468C7.29015 27 5.59933 26.0206 4.4951 24.1677C3.64441 22.7402 3.15484 20.7671 3.15209 18.7543V18.6988C3.14731 16.7159 4.664 15.7025 5.74253 15.6166C5.92639 15.6019 6.09688 15.6129 6.24954 15.647V8.32391C6.24954 7.21197 7.16478 6.30736 8.28981 6.30736C9.41484 6.30736 10.3285 7.21197 10.3285 8.32391V12.5418C10.6772 12.2668 11.1186 12.1022 11.5983 12.1022C12.4246 12.1022 13.1377 12.5906 13.4581 13.2908C13.8282 12.9205 14.3417 12.6908 14.9083 12.6908C15.8313 12.6908 16.6131 13.3013 16.8633 14.1356C17.1952 13.8609 17.6226 13.6953 18.0883 13.6953C19.1424 13.6953 20 14.5436 20 15.5863V15.5863ZM4.27531 10.4271C4.70643 10.2805 4.93586 9.81599 4.78771 9.38949C4.6553 9.00833 4.58816 8.60807 4.58816 8.19986C4.58816 6.18004 6.24871 4.5368 8.28981 4.5368C10.3309 4.5368 11.9915 6.18004 11.9915 8.19986C11.9915 8.60812 11.9243 9.00838 11.792 9.38949C11.6438 9.81593 11.8732 10.2805 12.3044 10.4271C12.3933 10.4573 12.4837 10.4716 12.5727 10.4716C12.9155 10.4716 13.2357 10.2588 13.3533 9.92023C13.5452 9.36798 13.6425 8.78917 13.6425 8.19986C13.6425 5.27957 11.2413 2.90374 8.28987 2.90374C5.33842 2.90374 2.93725 5.27957 2.93725 8.19986C2.93725 8.78906 3.03454 9.36787 3.22644 9.92023C3.37459 10.3467 3.84424 10.5736 4.27542 10.4271H4.27531ZM1.65097 8.19986C1.65097 4.57893 4.62916 1.63306 8.28981 1.63306C11.9505 1.63306 14.9286 4.57888 14.9286 8.19986C14.9286 8.84736 14.8327 9.4885 14.6436 10.1054C14.5113 10.5369 14.7578 10.9928 15.194 11.1237C15.2739 11.1477 15.3545 11.1591 15.4338 11.1591C15.788 11.1591 16.1154 10.9319 16.2235 10.5793C16.4598 9.80864 16.5796 9.00806 16.5796 8.19986C16.5796 3.67846 12.8608 0 8.28976 0C3.71876 0 0 3.67846 0 8.19991C0 9.01154 0.119255 9.81212 0.354464 10.5793C0.486762 11.0109 0.947659 11.2547 1.38401 11.1237C1.82031 10.9929 2.06674 10.5369 1.93439 10.1054C1.74634 9.49188 1.65097 8.85079 1.65097 8.19986Z" fill="#E6E6F8"/>
</svg>
