<svg width="74" height="70" viewBox="91 95 74 60" fill="none" xmlns="http://www.w3.org/2000/svg">
  <g>
    <path d="M145.63 161C156.328 161 165 152.2 165 141.346C165 130.491 156.328 121.691 145.63 121.691C134.932 121.691 126.26 130.491 126.26 141.346C126.26 152.2 134.932 161 145.63 161Z" fill="#364152"/>
    <path d="M104.979 105.916H139.268C141.9 105.916 144.063 103.721 144.063 101.05V95.8659C144.063 93.1944 141.9 91 139.268 91H104.979C102.346 91 100.215 93.1944 100.215 95.8659V101.05C100.215 103.721 102.346 105.916 104.979 105.916Z" fill="#364152"/>
    <path d="M104.916 110.336C103.913 111.259 103.349 112.594 103.349 113.962V119.146C103.349 121.817 105.48 124.012 108.113 124.012H130.304C130.367 123.948 130.429 123.884 130.492 123.853C130.555 123.789 130.774 123.598 130.993 123.375C135.037 119.941 140.24 118.033 145.63 118.033C146.195 118.033 146.727 118.033 147.198 118.096V113.962C147.198 112.562 146.602 111.259 145.599 110.336H104.979C104.948 110.336 104.916 110.336 104.916 110.336Z" fill="#364152"/>
    <path d="M122.656 141.344C122.656 136.669 124.004 132.217 126.48 128.464H92.5985C91.5642 129.386 91 130.69 91 132.058V137.242C91 139.913 93.1627 142.107 95.7954 142.107H122.656V141.344Z" fill="#364152"/>
    <path d="M123.252 146.56H98.7417C97.7387 147.482 97.1745 148.754 97.1745 150.122V155.337C97.1745 158.009 99.3372 160.203 101.97 160.203H132.122C127.671 156.928 124.474 152.094 123.252 146.56Z" fill="#364152"/>
  </g>
</svg>

