<svg width="19" height="21" viewBox="0 0 19 21" fill="none" xmlns="http://www.w3.org/2000/svg">
<path d="M17.0118 7.76814L12.2099 7.17149C12.6134 6.21755 13.0809 4.70366 13.0809 2.81149C13.0809 1.75069 12.7369 0.968674 12.0583 0.487381C11.6024 0.164062 11.0163 0 10.3166 0H10.2819L10.2476 0.00384522C9.09792 0.130737 8.75177 1.1941 8.79823 1.88688C8.80406 2.06536 8.78496 2.24032 8.74157 2.40678C8.61334 2.89769 8.40124 3.30688 7.88881 4.29559L7.86485 4.34157C7.52258 5.00294 7.12932 5.24055 6.58516 5.56947C6.12162 5.84969 5.59624 6.16708 5.02941 6.78072C4.77295 7.05773 4.47764 7.46276 4.21535 7.89711C4.16775 7.95992 4.12744 8.03089 4.09344 8.11068C4.08923 8.11885 4.0847 8.12622 4.08033 8.13359C4.06786 8.15522 4.05118 8.1839 4.03354 8.21851C4.00731 8.26641 3.97816 8.31992 3.94821 8.37664C3.45602 8.79945 2.69523 8.79144 2.23283 8.78632C2.18523 8.78584 2.14135 8.78535 2.10169 8.78535C1.29103 8.78535 0.811467 9.10002 0.552095 9.36406C0.191048 9.73112 0.00032379 10.2501 0.00032379 10.8647L0 17.5589C0 17.9998 0.0566667 18.6365 0.547076 19.0756C1.00494 19.4858 1.6537 19.5332 2.10169 19.5332H3.58134C3.94449 19.5332 4.29453 19.6875 4.73798 19.883C4.98845 19.9934 5.27243 20.1185 5.59737 20.2314C7.12268 20.7544 9.15264 20.9979 11.9855 20.9979C12.5345 20.9979 14.2382 21 14.2382 21C14.8523 21 15.4303 20.7614 15.9094 20.3103C16.1633 20.0715 16.3176 19.7713 16.3809 19.3925C16.3948 19.3087 16.404 19.1322 16.405 19.0365C16.4147 18.7965 16.3791 18.5682 16.3027 18.3585C16.7947 18.3035 17.2589 18.0933 17.6138 17.7578C18.0492 17.3461 18.2889 16.7741 18.2889 16.147C18.2889 15.6874 18.1418 15.2532 17.8693 14.8965C18.0302 14.818 18.1827 14.7164 18.3187 14.5855C18.6714 14.2462 18.8537 13.7758 18.8611 13.1872C18.8838 12.6 18.6772 12.0894 18.2886 11.712C18.6997 11.3062 18.9697 10.7249 18.9978 10.0804C19.0507 8.86482 18.1622 7.83382 17.0118 7.76814Z" fill="#364152"/>
</svg>
