<svg width="76" height="40" viewBox="0 0 76 40" fill="none" xmlns="http://www.w3.org/2000/svg">
<path d="M20.6906 0.00152369C10.0516 0.00152276 0.778171 7.95073 0.0477314 18.4815C0.015974 18.9379 9.71675e-05 19.4102 9.71275e-05 19.8667C9.60404e-05 32.3021 9.3529 39.9994 24.2951 39.9994L45.6761 40L39.8484 29.4535L25.0255 29.5316C17.1178 29.5316 13.1162 25.9584 13.1162 19.8667C13.1162 13.7749 17.1178 10.2017 25.0255 10.2017L30.2497 10.2017L24.7079 0.00152405L20.6906 0.00152369Z" fill="white"/>
<path d="M46.4487 39.9984H33.6749L20.9012 18.8379H33.675L46.4487 39.9984Z" fill="#E7BB0B"/>
<path d="M75.0912 30.8375H62.3174L44.6418 0H57.4156L75.0912 30.8375Z" fill="#E7BB0B"/>
<path d="M27.8694 0.000904771L40.6653 0.00090589L63.6322 39.9441L50.8362 39.9441L27.8694 0.000904771Z" fill="white"/>
<rect x="21.7188" width="14.6544" height="10.2276" fill="white"/>
</svg>
