<svg width="75" height="40" viewBox="90 90 75 40" fill="none" xmlns="http://www.w3.org/2000/svg">
  <path d="M110.691 90.0015C100.052 90.0015 90.7782 97.9507 90.0477 108.481C90.016 108.938 90.0001 109.41 90.0001 109.867C90.0001 122.302 99.3529 129.999 114.295 129.999L135.676 130L129.848 119.454L115.026 119.532C107.118 119.532 103.116 115.958 103.116 109.867C103.116 103.775 107.118 100.202 115.026 100.202L120.25 100.202L114.708 90.0015L110.691 90.0015Z" fill="#364152"/>
  <path d="M136.449 129.998H123.675L110.901 108.838H123.675L136.449 129.998Z" fill="#364152"/>
  <path d="M165.091 120.838H152.317L134.642 90H147.416L165.091 120.838Z" fill="#364152"/>
  <path d="M117.869 90.0009L130.665 90.0009L153.632 129.944L140.836 129.944L117.869 90.0009Z" fill="#364152"/>
  <rect x="111.719" y="90" width="14.6544" height="10.2276" fill="#364152"/>
</svg>