<svg width="73" height="69" viewBox="91 90 72 69" fill="none" xmlns="http://www.w3.org/2000/svg">
  <path fill-rule="evenodd" clip-rule="evenodd" d="M122.614 92.1975C123.012 91.5285 123.58 90.9737 124.261 90.5883C124.943 90.2028 125.715 90 126.5 90C127.286 90 128.057 90.2028 128.739 90.5883C129.421 90.9737 129.988 91.5285 130.386 92.1975C130.386 92.1975 140.005 108.359 140.017 108.359C140.113 108.525 140.243 108.669 140.4 108.781C140.556 108.893 140.734 108.972 140.924 109.011L159.457 113.057C160.224 113.226 160.935 113.589 161.517 114.111C162.099 114.633 162.534 115.295 162.777 116.034C163.021 116.772 163.066 117.561 162.907 118.321C162.748 119.082 162.39 119.788 161.871 120.371L149.272 134.393C149.143 134.535 149.046 134.703 148.987 134.886C148.928 135.068 148.909 135.261 148.93 135.451L150.767 154.113C150.841 154.886 150.709 155.665 150.385 156.372C150.061 157.08 149.555 157.691 148.919 158.147C148.284 158.605 147.539 158.89 146.758 158.974C145.977 159.058 145.187 158.937 144.468 158.624L127.065 151.136C126.886 151.061 126.694 151.023 126.5 151.023C126.306 151.023 126.114 151.061 125.935 151.136L108.532 158.624C107.812 158.933 107.022 159.052 106.241 158.968C105.46 158.884 104.714 158.6 104.078 158.145C103.442 157.689 102.937 157.078 102.614 156.371C102.29 155.663 102.159 154.885 102.233 154.113L104.07 135.451C104.091 135.261 104.072 135.068 104.013 134.886C103.955 134.703 103.857 134.535 103.728 134.393L91.1295 120.371C90.6096 119.788 90.2525 119.081 90.0934 118.321C89.9344 117.56 89.9789 116.772 90.2226 116.034C90.4663 115.295 90.9008 114.632 91.4831 114.11C92.0654 113.588 92.7755 113.225 93.5433 113.057L112.076 109.011C112.267 108.97 112.446 108.891 112.604 108.779C112.762 108.667 112.895 108.524 112.995 108.359L122.614 92.1975Z" fill="#364152"/>
</svg>

