<svg width="73" height="81" viewBox="90 91 73 78" fill="none" xmlns="http://www.w3.org/2000/svg">
  <path d="M120.249 91.8225C124.282 89.3925 129.122 89.3925 132.751 91.8225L156.547 105.593C160.58 108.023 163 112.073 163 116.528V144.473C163 148.928 160.58 153.382 156.547 155.408L132.751 169.177C128.718 171.607 123.878 171.607 120.249 169.177L96.453 155.408C92.4199 152.978 90 148.928 90 144.473V116.933C90 112.478 92.4199 108.023 96.453 105.998L120.249 91.8225Z" fill="#364152"/>
  <path d="M123.042 142C122.232 142 121.422 141.584 121.016 141.167L112.912 132.842C111.696 131.593 111.696 129.511 112.912 128.262C114.127 127.014 116.154 127.014 117.369 128.262L123.448 134.507L137.631 119.937C138.846 118.688 140.873 118.688 142.088 119.937C143.304 121.186 143.304 123.267 142.088 124.516L125.879 141.167C124.663 141.584 123.853 142 123.042 142Z" fill="#17212C"/>
</svg>
