<svg width="72" height="73" viewBox="0 0 72 73" fill="none" xmlns="http://www.w3.org/2000/svg">
<mask id="mask0_360_11" style="mask-type:luminance" maskUnits="userSpaceOnUse" x="0" y="0" width="72" height="73">
<path d="M71.1924 0H0V73H71.1924V0Z" fill="white"/>
</mask>
<g mask="url(#mask0_360_11)">
<path d="M0 1.01904H70.7492V36.9397C70.7492 46.1508 65.827 54.643 57.8238 59.2658L35.3747 72.4493L12.949 59.2658C4.94605 54.6775 0.0343471 46.1508 0.0343471 36.9397V1.01904H0Z" fill="#E7BB0B"/>
<path fill-rule="evenodd" clip-rule="evenodd" d="M19.0479 19.9211V31.084C20.5935 29.372 23.3756 28.2077 26.5355 28.2077H30.0047V41.1858C30.0047 44.6441 29.0774 47.6575 27.6691 49.3353H43.0754C41.6672 47.6575 40.8168 44.6441 40.8168 41.1858V28.2077H44.191C47.3854 28.2077 50.1899 29.372 51.7013 31.084V19.9211H19.0479Z" fill="#333333"/>
</g>
</svg>
