<svg width="18" height="18" viewBox="0 0 18 18" fill="none" xmlns="http://www.w3.org/2000/svg">
<path d="M10.0938 5.34375H1.78125C0.797493 5.34375 0 6.14124 0 7.125V16.0312C0 17.015 0.797493 17.8125 1.78125 17.8125H10.0938C11.0775 17.8125 11.875 17.015 11.875 16.0312V7.125C11.875 6.14124 11.0775 5.34375 10.0938 5.34375Z" fill="currentColor"/>
<path d="M17.2188 1.78125V10.6875C17.2173 11.1595 17.0292 11.6117 16.6955 11.9455C16.3617 12.2792 15.9095 12.4673 15.4375 12.4688H13.0625V7.125C13.0625 6.73514 12.9857 6.34909 12.8365 5.98891C12.6873 5.62872 12.4686 5.30145 12.193 5.02578C11.9173 4.7501 11.59 4.53143 11.2298 4.38223C10.8697 4.23304 10.4836 4.15625 10.0938 4.15625H5.34375V1.78125C5.34516 1.30927 5.53328 0.857017 5.86702 0.523273C6.20077 0.189529 6.65302 0.00140962 7.125 0H15.4375C15.9095 0.00140962 16.3617 0.189529 16.6955 0.523273C17.0292 0.857017 17.2173 1.30927 17.2188 1.78125Z" fill="currentColor"/>
</svg>
