<svg width="19" height="18" viewBox="0 0 19 18" fill="none" xmlns="http://www.w3.org/2000/svg">
<path d="M15.9803 4.10915C15.9803 3.07841 15.4646 2.16526 14.6843 1.63258C14.2161 1.30746 13.6529 1.12067 13.0489 1.12067H12.3228V2.94004C12.3228 3.32051 12.0243 3.63182 11.6443 3.63182C11.2711 3.63182 10.9657 3.32051 10.9657 2.94004V1.12067H5.01465V2.94004C5.01465 3.32051 4.70929 3.63182 4.33608 3.63182C3.95608 3.63182 3.65751 3.32051 3.65751 2.94004V1.12067H2.93143C2.12393 1.12067 1.39106 1.45275 0.861799 1.99924C0.325701 2.5388 0 3.28593 0 4.10915V4.56574H15.9803V4.10915Z" fill="#364152"/>
<path d="M2.93143 16.2913H9.03178C8.51606 15.3851 8.21749 14.3267 8.21749 13.1991C8.21749 9.78171 10.9386 7.00768 14.2839 7.00768C14.8743 7.00768 15.4443 7.09069 15.9803 7.24979V5.94929H0V13.3097C0 14.9562 1.31643 16.2913 2.93143 16.2913Z" fill="#364152"/>
<path d="M5.01465 0.691775C5.01465 0.311307 4.70929 0 4.33608 0C3.95608 0 3.65751 0.311307 3.65751 0.691775V1.12067H5.01465V0.691775Z" fill="#364152"/>
<path d="M12.3228 0.691775C12.3228 0.311307 12.0243 0 11.6443 0C11.2711 0 10.9657 0.311307 10.9657 0.691775V1.12067H12.3228V0.691775Z" fill="#364152"/>
<path d="M14.2839 8.39123C11.685 8.39123 9.57463 10.5496 9.57463 13.1991C9.57463 15.8486 11.685 18 14.2839 18C16.8829 18 19 15.8486 19 13.1991C19 10.5496 16.8829 8.39123 14.2839 8.39123ZM15.6207 13.8909H14.2839C13.9107 13.8909 13.6053 13.5795 13.6053 13.1991V11.774C13.6053 11.3936 13.9107 11.0822 14.2839 11.0822C14.6639 11.0822 14.9625 11.3936 14.9625 11.774V12.5073H15.6207C15.9939 12.5073 16.2993 12.8117 16.2993 13.1991C16.2993 13.5795 15.9939 13.8909 15.6207 13.8909Z" fill="#364152"/>
</svg>
