<svg width="20" height="21" viewBox="0 0 20 21" fill="none" xmlns="http://www.w3.org/2000/svg">
<path d="M3.03837 0C1.37551 0 0 1.37551 0 3.03837V17.9616C0 19.6245 1.37551 21 3.03837 21H8.13307C6.37456 19.4565 5.25256 17.2026 5.25256 14.6998C5.25256 13.9748 5.35554 13.2732 5.5314 12.6004H5.25462C4.6749 12.6026 4.20313 12.1345 4.20082 11.5548C4.19855 10.9751 4.66668 10.5033 5.24641 10.501H5.25462H6.39862C6.86085 9.70973 7.44776 9.00109 8.13307 8.39957H5.25462C4.6749 8.40183 4.20313 7.9337 4.20082 7.35397C4.19855 6.77425 4.66668 6.30248 5.24641 6.30017H5.25462H9.45544C9.88071 6.30204 10.2628 6.56026 10.4231 6.95419C11.4183 6.53517 12.5093 6.30223 13.6501 6.30223C14.0058 6.30223 14.3553 6.33225 14.6998 6.37604V6.30017C14.6998 4.67795 14.0571 3.12344 12.91 1.97634L12.7234 1.79797C11.5763 0.650973 10.0238 4.92043e-05 8.40163 4.92043e-05H3.03837V0ZM13.6501 8.40163C10.1841 8.40163 7.35191 11.2339 7.35191 14.6998C7.35191 18.1658 10.1842 20.9979 13.6501 20.9979C17.116 20.9979 19.9482 18.1658 19.9482 14.6998C19.9482 11.2339 17.116 8.40163 13.6501 8.40163ZM13.6458 11.5548C14.2256 11.5525 14.6974 12.0206 14.6997 12.6003V12.6004V13.6542H15.7453C16.3251 13.6508 16.7978 14.118 16.8011 14.6978V14.6998C16.7989 15.2796 16.3271 15.7477 15.7474 15.7454C15.7467 15.7454 15.746 15.7454 15.7453 15.7454H13.6459C13.0694 15.7431 12.6026 15.2763 12.6003 14.6998V12.6004C12.6026 12.0239 13.0694 11.5571 13.6459 11.5548H13.6458Z" fill="#364152"/>
</svg>
