<svg width="17" height="14" viewBox="0 0 17 14" fill="none" xmlns="http://www.w3.org/2000/svg">
<path d="M16.503 8.34813V9.69193H11.0725V8.34813H16.503ZM10.6308 3.91175V3.33189C10.6308 2.69987 10.7596 2.13229 11.0173 1.62913C11.2812 1.12597 11.6493 0.730193 12.1218 0.441798C12.5943 0.147266 13.1557 0 13.8062 0C14.4689 0 15.0365 0.147266 15.5089 0.441798C15.9875 0.730193 16.3557 1.12597 16.6134 1.62913C16.8711 2.13229 17 2.69987 17 3.33189V3.91175C17 4.54377 16.8711 5.11135 16.6134 5.61451C16.3557 6.11767 15.9906 6.51345 15.5181 6.80184C15.0457 7.09024 14.4811 7.23443 13.8246 7.23443C13.168 7.23443 12.6004 7.09024 12.1218 6.80184C11.6493 6.51345 11.2812 6.11767 11.0173 5.61451C10.7596 5.11135 10.6308 4.54377 10.6308 3.91175ZM12.2231 3.33189V3.91175C12.2231 4.27991 12.2814 4.61433 12.3979 4.915C12.5145 5.21567 12.6925 5.45497 12.9318 5.63292C13.1711 5.81086 13.4687 5.89984 13.8246 5.89984C14.1805 5.89984 14.475 5.81086 14.7082 5.63292C14.9413 5.45497 15.1162 5.21567 15.2328 4.915C15.3494 4.61433 15.4077 4.27991 15.4077 3.91175V3.33189C15.4077 2.96986 15.3463 2.63851 15.2236 2.33785C15.107 2.03718 14.9321 1.79787 14.699 1.61992C14.4658 1.44198 14.1682 1.353 13.8062 1.353C13.4564 1.353 13.1619 1.44198 12.9226 1.61992C12.6894 1.79787 12.5145 2.03718 12.3979 2.33785C12.2814 2.63851 12.2231 2.96986 12.2231 3.33189ZM9.59069 0.147266V13.5485H6.42447L2.8993 5.02545V13.5485H0V0.147266H3.17542L6.69139 8.67028V0.147266H9.59069Z" fill="#364152"/>
</svg>
