<svg width="72" height="68" viewBox="0 0 72 68" fill="none" xmlns="http://www.w3.org/2000/svg">
<path d="M71.9995 25.4999C71.9995 23.8774 71.9055 22.2769 71.7285 20.7017L53.4784 2.45166L38.6777 43.9277L54.5692 59.8185C65.1352 52.0871 71.9995 39.5957 71.9995 25.4999Z" fill="#FFA300"/>
<path d="M53.9436 23.2645C52.3879 12.6201 41.9134 4.6377 29.4998 4.6377C17.0862 4.6377 6.61169 12.6201 5.05594 23.2652L0.228516 56.312C7.85032 63.5544 18.1556 67.9999 29.4998 67.9999C40.844 67.9999 51.1493 63.5544 58.7711 56.312L53.9436 23.2645Z" fill="#555A66"/>
<path d="M58.7717 56.312L53.9437 23.2645C52.3886 12.6201 41.914 4.6377 29.5005 4.6377C29.4849 4.6377 29.4687 4.63834 29.4531 4.63834V67.9992C29.4687 67.9992 29.4843 67.9999 29.5005 67.9999C40.8447 67.9999 51.1499 63.5544 58.7717 56.312Z" fill="#333940"/>
<path d="M18.6573 7.8228C18.6573 12.0568 15.2248 15.4893 10.9908 15.4893C6.75672 15.4893 3.32422 12.0568 3.32422 7.8228C3.32422 3.58875 6.75672 0.15625 10.9908 0.15625C15.2248 0.15625 18.6573 3.58875 18.6573 7.8228Z" fill="#555A66"/>
<path d="M14.9895 7.82237C14.9895 10.0305 13.199 11.821 10.9908 11.821C8.78269 11.821 6.99219 10.0305 6.99219 7.82237C6.99219 5.61424 8.78269 3.82373 10.9908 3.82373C13.199 3.82373 14.9895 5.61424 14.9895 7.82237Z" fill="#AFB4C8"/>
<path d="M55.6768 7.8228C55.6768 12.0568 52.2443 15.4893 48.0103 15.4893C43.7763 15.4893 40.3438 12.0568 40.3438 7.8228C40.3438 3.58875 43.7763 0.15625 48.0103 0.15625C52.2443 0.15625 55.6768 3.58875 55.6768 7.8228Z" fill="#333940"/>
<path d="M52.009 7.82237C52.009 10.0305 50.2185 11.821 48.0104 11.821C45.8022 11.821 44.0117 10.0305 44.0117 7.82237C44.0117 5.61424 45.8022 3.82373 48.0104 3.82373C50.2185 3.82373 52.009 5.61424 52.009 7.82237Z" fill="#9196AA"/>
<path d="M54.5716 25.5547C54.5716 39.5824 43.2002 50.9538 29.1725 50.9538C15.1449 50.9538 3.77344 39.5824 3.77344 25.5547C3.77344 11.5277 15.1449 0.15625 29.1725 0.15625C43.2002 0.15625 54.5716 11.5277 54.5716 25.5547Z" fill="white"/>
<path d="M54.5721 25.555C54.5721 11.6207 43.3511 0.309631 29.4531 0.15918V50.9502C43.3511 50.7998 54.5721 39.4887 54.5721 25.555Z" fill="#F2F6FC"/>
<path d="M22.6215 23.1248C22.6215 19.2189 19.1501 16.0522 14.8674 16.0522C10.5853 16.0522 7.11328 19.2189 7.11328 23.1248C7.11328 27.0313 10.5853 30.1979 14.8674 30.1979C19.1501 30.1979 22.6215 27.0313 22.6215 23.1248Z" fill="#7E8596"/>
<path d="M51.8871 23.1248C51.8871 19.2189 48.415 16.0522 44.133 16.0522C39.8503 16.0522 36.3789 19.2189 36.3789 23.1248C36.3789 27.0313 39.8503 30.1979 44.133 30.1979C48.415 30.1979 51.8871 27.0313 51.8871 23.1248Z" fill="#707789"/>
<path d="M18.0721 21.3808C18.0721 22.7199 16.9865 23.8062 15.6474 23.8062C14.3082 23.8062 13.2227 22.7199 13.2227 21.3808C13.2227 20.0416 14.3082 18.9561 15.6474 18.9561C16.9865 18.9561 18.0721 20.0416 18.0721 21.3808Z" fill="#555A66"/>
<path d="M45.7772 21.3808C45.7772 22.7199 44.6916 23.8062 43.3525 23.8062C42.0133 23.8062 40.9277 22.7199 40.9277 21.3808C40.9277 20.0416 42.0133 18.9561 43.3525 18.9561C44.6916 18.9561 45.7772 20.0416 45.7772 21.3808Z" fill="#333940"/>
<path d="M32.6014 36.1127L30.5969 36.8831C29.8901 37.1555 29.1073 37.1555 28.4005 36.8831L26.3966 36.1127C25.215 35.6581 24.4355 34.5232 24.4355 33.2567C24.4355 31.5674 25.8052 30.1978 27.4952 30.1978H31.5029C33.1922 30.1978 34.5619 31.5674 34.5619 33.2567C34.5625 34.5226 33.783 35.6581 32.6014 36.1127Z" fill="#555A66"/>
<path d="M31.5043 30.1973H29.4531V37.085C29.8416 37.0908 30.2307 37.0253 30.599 36.8833L32.6029 36.1129C33.7844 35.6583 34.5639 34.5228 34.5639 33.2569C34.5639 31.5675 33.1943 30.1973 31.5043 30.1973Z" fill="#333940"/>
</svg>
