<svg width="85" height="85" viewBox="0 0 85 85" fill="none" xmlns="http://www.w3.org/2000/svg">
<g clip-path="url(#clip0_20_58)">
<path d="M85 42.5C85 65.9724 65.9724 85 42.5 85C19.0276 85 0 65.9724 0 42.5C0 19.0276 19.0276 0 42.5 0C65.9724 0 85 19.0276 85 42.5Z" fill="#FFCE00"/>
<path d="M84.9995 42.4999C84.9995 40.8774 84.9055 39.2769 84.7285 37.7017L66.4784 19.4517L51.6777 60.9277L67.5692 76.8185C78.1352 69.0871 84.9995 56.5957 84.9995 42.4999Z" fill="#FFA300"/>
<path d="M66.9436 40.2645C65.3879 29.6201 54.9134 21.6377 42.4998 21.6377C30.0862 21.6377 19.6117 29.6201 18.0559 40.2652L13.2285 73.312C20.8503 80.5544 31.1556 84.9999 42.4998 84.9999C53.844 84.9999 64.1493 80.5544 71.7711 73.312L66.9436 40.2645Z" fill="#555A66"/>
<path d="M71.7717 73.312L66.9437 40.2645C65.3886 29.6201 54.914 21.6377 42.5005 21.6377C42.4849 21.6377 42.4687 21.6383 42.4531 21.6383V84.9992C42.4687 84.9992 42.4843 84.9999 42.5005 84.9999C53.8447 84.9999 64.1499 80.5544 71.7717 73.312Z" fill="#333940"/>
<path d="M31.6573 24.8228C31.6573 29.0568 28.2248 32.4893 23.9908 32.4893C19.7567 32.4893 16.3242 29.0568 16.3242 24.8228C16.3242 20.5888 19.7567 17.1562 23.9908 17.1562C28.2248 17.1562 31.6573 20.5888 31.6573 24.8228Z" fill="#555A66"/>
<path d="M27.9895 24.8224C27.9895 27.0305 26.199 28.821 23.9908 28.821C21.7827 28.821 19.9922 27.0305 19.9922 24.8224C19.9922 22.6142 21.7827 20.8237 23.9908 20.8237C26.199 20.8237 27.9895 22.6142 27.9895 24.8224Z" fill="#AFB4C8"/>
<path d="M68.6768 24.8228C68.6768 29.0568 65.2443 32.4893 61.0103 32.4893C56.7763 32.4893 53.3438 29.0568 53.3438 24.8228C53.3438 20.5888 56.7763 17.1562 61.0103 17.1562C65.2443 17.1562 68.6768 20.5888 68.6768 24.8228Z" fill="#333940"/>
<path d="M65.009 24.8224C65.009 27.0305 63.2185 28.821 61.0104 28.821C58.8022 28.821 57.0117 27.0305 57.0117 24.8224C57.0117 22.6142 58.8022 20.8237 61.0104 20.8237C63.2185 20.8237 65.009 22.6142 65.009 24.8224Z" fill="#9196AA"/>
<path d="M67.5716 42.5547C67.5716 56.5824 56.2002 67.9538 42.1725 67.9538C28.1449 67.9538 16.7734 56.5824 16.7734 42.5547C16.7734 28.5277 28.1449 17.1562 42.1725 17.1562C56.2002 17.1562 67.5716 28.5277 67.5716 42.5547Z" fill="white"/>
<path d="M67.5721 42.555C67.5721 28.6207 56.3511 17.3096 42.4531 17.1592V67.9502C56.3511 67.7998 67.5721 56.4887 67.5721 42.555Z" fill="#F2F6FC"/>
<path d="M35.6215 40.1248C35.6215 36.2189 32.1501 33.0522 27.8674 33.0522C23.5853 33.0522 20.1133 36.2189 20.1133 40.1248C20.1133 44.0313 23.5853 47.1979 27.8674 47.1979C32.1501 47.1979 35.6215 44.0313 35.6215 40.1248Z" fill="#7E8596"/>
<path d="M64.8871 40.1248C64.8871 36.2189 61.415 33.0522 57.133 33.0522C52.8503 33.0522 49.3789 36.2189 49.3789 40.1248C49.3789 44.0313 52.8503 47.1979 57.133 47.1979C61.415 47.1979 64.8871 44.0313 64.8871 40.1248Z" fill="#707789"/>
<path d="M31.0721 38.3808C31.0721 39.7199 29.9865 40.8062 28.6474 40.8062C27.3082 40.8062 26.2227 39.7199 26.2227 38.3808C26.2227 37.0416 27.3082 35.9561 28.6474 35.9561C29.9865 35.9561 31.0721 37.0416 31.0721 38.3808Z" fill="#555A66"/>
<path d="M58.7772 38.3808C58.7772 39.7199 57.6916 40.8062 56.3525 40.8062C55.0133 40.8062 53.9277 39.7199 53.9277 38.3808C53.9277 37.0416 55.0133 35.9561 56.3525 35.9561C57.6916 35.9561 58.7772 37.0416 58.7772 38.3808Z" fill="#333940"/>
<path d="M45.6014 53.1127L43.5969 53.8831C42.8901 54.1555 42.1073 54.1555 41.4005 53.8831L39.3966 53.1127C38.215 52.6581 37.4355 51.5232 37.4355 50.2567C37.4355 48.5674 38.8052 47.1978 40.4952 47.1978H44.5029C46.1922 47.1978 47.5619 48.5674 47.5619 50.2567C47.5625 51.5226 46.783 52.6581 45.6014 53.1127Z" fill="#555A66"/>
<path d="M44.5043 47.1973H42.4531V54.085C42.8416 54.0908 43.2307 54.0253 43.599 53.8833L45.6029 53.1129C46.7844 52.6583 47.5639 51.5228 47.5639 50.2569C47.5639 48.5675 46.1943 47.1973 44.5043 47.1973Z" fill="#333940"/>
</g>
<rect x="2.5" y="2.5" width="80" height="80" rx="40" stroke="#364152" stroke-width="5"/>
<defs>
<clipPath id="clip0_20_58">
<rect width="85" height="85" rx="42.5" fill="white"/>
</clipPath>
</defs>
</svg>
