<svg width="19" height="19" viewBox="0 0 19 19" fill="none" xmlns="http://www.w3.org/2000/svg">
<path d="M18.1224 6.2125L18.0224 0.949975C18.0161 0.7 17.8599 0.475006 17.6286 0.381244C17.3974 0.287481 17.1286 0.343744 16.9536 0.518725L15.3411 2.15C13.6661 0.762481 11.5473 0 9.37861 0C6.72236 0 4.18486 1.13125 2.40359 3.10623C0.603589 5.10624 -0.227636 7.69375 0.0536261 10.3875C0.491095 14.5187 3.77234 17.9875 7.86613 18.6313C8.36612 18.7125 8.87237 18.75 9.37861 18.75C10.7974 18.75 12.1911 18.4312 13.4724 17.8062C14.0036 17.55 14.3598 17.0688 14.4599 16.4812C14.5599 15.8875 14.3661 15.275 13.9224 14.8312C13.3536 14.2625 12.5036 14.1187 11.7599 14.475C10.8224 14.9125 9.76611 15.0813 8.70986 14.9625C6.23485 14.6812 4.07238 12.525 3.79111 10.0437C3.60362 8.41873 4.0911 6.84997 5.17238 5.63747C6.2411 4.43749 7.77236 3.75 9.37861 3.75C10.5661 3.75 11.7036 4.11873 12.6536 4.81251L11.1536 6.31248C10.9724 6.49376 10.9223 6.75625 11.0161 6.98749C11.1099 7.21874 11.3286 7.37499 11.5786 7.38124L16.8474 7.48748C17.1536 7.48748 17.5161 7.36248 17.7536 7.11875C17.9911 6.88126 18.1286 6.54999 18.1224 6.2125Z" fill="#364152"/>
</svg>
