<svg width="15" height="16" viewBox="0 0 15 16" fill="none" xmlns="http://www.w3.org/2000/svg">
<path d="M8.47253 10.4396H0V7.65934H8.36264C9.01465 7.65934 9.53114 7.56044 9.91209 7.36264C10.293 7.15751 10.5678 6.87912 10.7363 6.52747C10.9048 6.1685 10.989 5.7619 10.989 5.30769C10.989 4.85348 10.8974 4.4359 10.7143 4.05494C10.5311 3.67399 10.2527 3.36996 9.87912 3.14286C9.51282 2.90842 9.04762 2.79121 8.48352 2.79121H5.76923V16H2.1978V0H8.47253C9.73993 0 10.8315 0.230769 11.7473 0.692308C12.663 1.14652 13.3663 1.76923 13.8571 2.56044C14.3553 3.35165 14.6044 4.26007 14.6044 5.28571C14.6044 6.36264 14.348 7.28571 13.8352 8.05494C13.3297 8.82418 12.619 9.41392 11.7033 9.82418C10.7875 10.2344 9.71062 10.4396 8.47253 10.4396ZM9.24176 11.1868V13.956H0V11.1868H9.24176Z" fill="#364152"/>
</svg>
