<svg width="60" height="49" viewBox="0 0 60 49" fill="none" xmlns="http://www.w3.org/2000/svg">
<path d="M59.9717 26.7283C60.0674 28.9889 59.2521 31.1947 57.7048 32.8618C56.1575 34.5289 54.0044 35.5211 51.718 35.6209C51.5843 35.627 51.4508 35.6301 51.3176 35.6301C50.7101 35.6297 50.1044 35.5647 49.5109 35.4362C47.7501 38.1239 45.4412 40.4187 42.7319 42.1738C40.0226 43.9289 36.9726 45.1057 33.777 45.6288C33.399 46.7265 32.6449 47.6592 31.6451 48.2656C30.6453 48.872 29.4626 49.1141 28.3015 48.9499C27.1403 48.7857 26.0737 48.2256 25.2859 47.3664C24.4982 46.5072 24.0389 45.4029 23.9874 44.2444C23.9359 43.0859 24.2954 41.946 25.0038 41.0218C25.7123 40.0976 26.7251 39.4471 27.8672 39.1828C29.0093 38.9185 30.2089 39.057 31.2587 39.5744C32.3084 40.0917 33.1424 40.9554 33.6163 42.0161C38.1153 41.1935 42.1797 38.8363 45.1011 35.3553C48.0225 31.8742 49.6156 27.4901 49.6029 22.967C49.6029 12.2811 40.8091 3.58766 30 3.58766C19.1909 3.58766 10.3971 12.2811 10.3971 22.967C10.3965 26.2712 11.2507 29.5207 12.8785 32.4066C12.9337 32.5018 12.9751 32.6042 13.0016 32.7108C13.1588 33.1428 13.142 33.6181 12.9546 34.0382C12.7673 34.4583 12.4237 34.7912 11.995 34.9678C10.9453 35.4045 9.81787 35.6294 8.67901 35.6292C8.54497 35.6292 8.41066 35.6262 8.27606 35.62C5.99059 35.519 3.8389 34.5262 2.29279 32.8592C0.746683 31.1922 -0.0676563 28.9871 0.0283345 26.7274C0.0669234 25.8263 0.0453911 25.0223 0.0243426 24.2449C0.00474577 23.5129 -0.0156978 22.7559 0.0179314 21.966C0.118296 19.7597 1.07833 17.6773 2.69696 16.155C4.31558 14.6328 6.46724 13.7887 8.70126 13.7997C12.2887 5.68536 20.4846 0 30 0C39.5154 0 47.7114 5.68536 51.2989 13.7998C53.5331 13.7872 55.6855 14.6305 57.3044 16.1528C58.9233 17.6751 59.8829 19.7581 59.9819 21.9647C60.0157 22.7558 59.9954 23.5127 59.9755 24.2447C59.9547 25.0222 59.9331 25.8266 59.9717 26.7283ZM45.2184 22.967C45.2175 25.2719 44.6812 27.5458 43.6507 29.6133C42.6202 31.6808 41.1232 33.4868 39.2751 34.8919C37.4269 36.297 35.277 37.2637 32.9912 37.7174C30.7053 38.1712 28.3446 38.0998 26.091 37.5089L19.9312 41.0257C19.6204 41.2031 19.2634 41.2855 18.9052 41.2623C18.5471 41.2391 18.2039 41.1114 17.9192 40.8954C17.6345 40.6794 17.4209 40.3848 17.3055 40.0488C17.1902 39.7128 17.1782 39.3506 17.2711 39.0079L18.8454 33.2021C16.2383 30.4162 14.7877 26.7622 14.7822 22.967C14.7822 14.669 21.6086 7.91867 30 7.91867C38.3914 7.91867 45.2184 14.669 45.2184 22.967ZM25.7691 22.967C25.7691 22.4912 25.578 22.035 25.2377 21.6985C24.8974 21.3621 24.4359 21.1731 23.9546 21.1731H23.9516C23.5929 21.1738 23.2424 21.2796 22.9444 21.4771C22.6465 21.6746 22.4144 21.955 22.2776 22.2828C22.1408 22.6107 22.1053 22.9712 22.1757 23.319C22.2461 23.6667 22.4192 23.986 22.6731 24.2366C22.927 24.4871 23.2503 24.6576 23.6022 24.7266C23.9541 24.7955 24.3188 24.7598 24.6502 24.6239C24.9815 24.4881 25.2647 24.2581 25.4639 23.9632C25.6632 23.6683 25.7691 23.3216 25.7691 22.967ZM31.8149 22.967C31.8147 22.9083 31.8115 22.8496 31.8052 22.7912C31.7995 22.7326 31.7906 22.6743 31.7787 22.6166C31.7679 22.5591 31.7533 22.5024 31.735 22.4468C31.7182 22.3906 31.6977 22.3355 31.6759 22.2805C31.6541 22.2255 31.6275 22.1741 31.5997 22.1227C31.572 22.071 31.5418 22.0207 31.509 21.972C31.4759 21.9228 31.4403 21.8753 31.4024 21.8297C31.3651 21.784 31.3252 21.7405 31.2827 21.6993C31.2416 21.6575 31.1969 21.618 31.1509 21.5797C31.1048 21.5439 31.0564 21.508 31.0068 21.4757C30.9576 21.4433 30.9068 21.4133 30.8545 21.386C30.8024 21.3585 30.7481 21.3334 30.6935 21.3107C30.639 21.2881 30.5833 21.2686 30.5267 21.2521C30.4136 21.2162 30.2967 21.1929 30.1783 21.1827C30.0006 21.1658 29.8213 21.1743 29.646 21.2078C29.5877 21.2196 29.53 21.2344 29.4732 21.2521C29.4165 21.2685 29.3607 21.2881 29.3062 21.3107C29.2518 21.3334 29.1974 21.3585 29.1454 21.386C29.0933 21.4135 29.0425 21.4434 28.9928 21.4757C28.9431 21.508 28.8948 21.5439 28.8502 21.5797C28.803 21.618 28.7595 21.6575 28.7171 21.6993C28.6747 21.7405 28.6347 21.784 28.5973 21.8297C28.5598 21.8753 28.5247 21.9228 28.4921 21.972C28.4589 22.0206 28.4282 22.0709 28.4002 22.1227C28.3723 22.1739 28.3472 22.2266 28.3251 22.2805C28.3021 22.3349 28.2819 22.3904 28.2646 22.4468C28.2478 22.5018 28.2333 22.5592 28.2212 22.6166C28.2092 22.6743 28.2003 22.7326 28.1944 22.7912C28.1885 22.8498 28.186 22.9084 28.186 22.967C28.186 23.0256 28.1885 23.0854 28.1944 23.144C28.2004 23.2022 28.2093 23.2601 28.2212 23.3174C28.2333 23.3748 28.2478 23.4322 28.2646 23.4884C28.2819 23.5444 28.3021 23.5994 28.3251 23.6534C28.3472 23.7077 28.3723 23.7608 28.4002 23.8125C28.4279 23.8639 28.4595 23.9141 28.4921 23.9631C28.5247 24.0119 28.5598 24.059 28.5973 24.1043C28.635 24.1501 28.675 24.194 28.7171 24.2358C28.7595 24.2765 28.803 24.3171 28.8502 24.3542C28.8957 24.3915 28.9433 24.4263 28.9928 24.4582C29.0425 24.4905 29.0932 24.5216 29.1454 24.5491C29.2504 24.6033 29.3601 24.6481 29.4732 24.6831C29.5299 24.6998 29.588 24.7142 29.646 24.7261C29.7627 24.7497 29.8814 24.7613 30.0005 24.7608C30.4812 24.7595 30.9419 24.5709 31.2827 24.2358C31.3664 24.1519 31.4421 24.0606 31.509 23.9631C31.5416 23.9141 31.5719 23.8639 31.5997 23.8125C31.6275 23.761 31.6529 23.7072 31.6759 23.6534C31.6989 23.5996 31.7182 23.5434 31.735 23.4884C31.7531 23.4323 31.7677 23.3752 31.7787 23.3174C31.7906 23.2601 31.7994 23.2022 31.8052 23.144C31.8114 23.0851 31.8149 23.0262 31.8149 22.967ZM37.8633 22.967C37.8633 22.4912 37.6721 22.035 37.3318 21.6985C36.9915 21.3621 36.53 21.1731 36.0488 21.1731H36.0453C35.6865 21.1738 35.3361 21.2796 35.0381 21.4771C34.7402 21.6747 34.5082 21.9551 34.3714 22.2829C34.2346 22.6107 34.1991 22.9713 34.2695 23.3191C34.34 23.6668 34.513 23.9861 34.7669 24.2366C35.0209 24.4872 35.3442 24.6576 35.6961 24.7266C36.0479 24.7955 36.4126 24.7598 36.744 24.6239C37.0753 24.4881 37.3585 24.2581 37.5577 23.9632C37.757 23.6683 37.8633 23.3216 37.8633 22.967Z" fill="#E7BB0B"/>
</svg>
