<svg width="18" height="20" viewBox="0 0 18 20" fill="none" xmlns="http://www.w3.org/2000/svg">
<path fill-rule="evenodd" clip-rule="evenodd" d="M1.16614 15.1663C2.84489 17.7025 5.72364 19.375 8.98864 19.375C12.2574 19.375 15.1361 17.7 16.8011 15.1525C17.3136 14.3925 17.4611 13.4437 17.2049 12.5637C16.9486 11.6812 16.3136 10.9587 15.4699 10.5925C15.4649 10.59 15.4599 10.5875 15.4549 10.585C13.5511 9.81625 11.3424 9.375 8.98864 9.375C6.63614 9.375 4.42989 9.81625 2.52114 10.5675C2.51364 10.57 2.50739 10.5738 2.49989 10.5763C1.65239 10.945 1.01364 11.6713 0.756141 12.5588C0.498641 13.4462 0.64864 14.4013 1.16614 15.1663ZM8.98864 0.625C6.74989 0.625 4.93114 2.44375 4.93114 4.6825C4.93114 6.9225 6.74989 8.74 8.98864 8.74C11.2286 8.74 13.0461 6.9225 13.0461 4.6825C13.0461 2.44375 11.2286 0.625 8.98864 0.625Z" fill="#364152"/>
</svg>
