<svg width="18" height="17" viewBox="0 0 18 17" fill="none" xmlns="http://www.w3.org/2000/svg">
<path d="M10.8622 2.85182C11.6945 3.4242 12.2781 4.39279 12.3844 5.51711C12.7238 5.69106 13.1005 5.7911 13.4999 5.7911C14.958 5.7911 16.1398 4.4948 16.1398 2.89567C16.1398 1.2963 14.958 0 13.4999 0C12.0557 0.000492797 10.8842 1.27363 10.8622 2.85182ZM9.13276 8.78065C10.5909 8.78065 11.7727 7.48411 11.7727 5.88498C11.7727 4.28585 10.5906 2.98955 9.13276 2.98955C7.67488 2.98955 6.4924 4.2861 6.4924 5.88523C6.4924 7.48435 7.67488 8.78065 9.13276 8.78065ZM10.2526 8.97802H8.0125C6.14871 8.97802 4.63242 10.6415 4.63242 12.6858V15.6907L4.63939 15.7377L4.82808 15.8025C6.60674 16.4121 8.152 16.6154 9.42389 16.6154C11.9081 16.6154 13.348 15.8385 13.4368 15.789L13.6131 15.6911H13.632V12.6858C13.6326 10.6415 12.1164 8.97802 10.2526 8.97802ZM14.6201 5.98871H12.3974C12.3733 6.96421 11.9937 7.84262 11.3933 8.47438C13.0499 9.01473 14.2621 10.6999 14.2621 12.6903V13.6162C16.4568 13.528 17.7215 12.8457 17.8048 12.7999L17.9811 12.7018H18V9.69602C18 7.6519 16.4837 5.98871 14.6201 5.98871ZM4.50056 5.7916C5.017 5.7916 5.49749 5.62626 5.90453 5.34463C6.03392 4.41891 6.48633 3.60998 7.13261 3.05904C7.13531 3.00483 7.14002 2.95111 7.14002 2.89641C7.14002 1.29704 5.95799 0.000739142 4.50056 0.000739142C3.04223 0.000739142 1.86065 1.29704 1.86065 2.89641C1.86065 4.49505 3.04223 5.7916 4.50056 5.7916ZM6.87136 8.47438C6.27383 7.84582 5.89554 6.97209 5.86791 6.00251C5.78547 5.99586 5.70393 5.98871 5.61992 5.98871H3.38008C1.51629 5.98871 0 7.6519 0 9.69602V12.7013L0.00696368 12.7477L0.195657 12.813C1.62254 13.3016 2.89599 13.5268 4.0021 13.5977V12.6903C4.00255 10.6999 5.21423 9.01523 6.87136 8.47438Z" fill="#364152"/>
</svg>
