<svg width="30" height="24" viewBox="0 0 30 24" fill="none" xmlns="http://www.w3.org/2000/svg">
<path d="M22.1661 16.5641C21.9356 15.0151 21.1513 13.5991 19.9555 12.573C18.7596 11.5469 17.2315 10.9787 15.6482 10.9714H14.1727C12.5895 10.9787 11.0613 11.5469 9.8655 12.573C8.66966 13.5991 7.88534 15.0151 7.65482 16.5641L6.94756 21.4546C6.92496 21.6127 6.93989 21.7738 6.99116 21.9252C7.04243 22.0766 7.12863 22.2141 7.24294 22.3269C7.5203 22.6011 9.22188 24 14.9119 24C20.6018 24 22.2993 22.6066 22.5808 22.3269C22.6951 22.2141 22.7813 22.0766 22.8326 21.9252C22.8838 21.7738 22.8988 21.6127 22.8762 21.4546L22.1661 16.5641Z" fill="#FCD434"/>
<path d="M8.75176 11.7257C7.41148 12.9476 6.53943 14.59 6.28329 16.3749L5.77018 19.8857C1.65142 19.8583 0.403318 18.3771 0.1953 18.0754C0.114892 17.9658 0.0575106 17.8414 0.0265461 17.7095C-0.00441837 17.5776 -0.00833826 17.4409 0.015018 17.3074L0.320111 15.6069C0.479067 14.7181 0.852389 13.8804 1.40842 13.1647C1.96446 12.4489 2.6868 11.8764 3.51422 11.4955C4.34164 11.1147 5.24972 10.9367 6.16148 10.9768C7.07323 11.0169 7.96178 11.2738 8.75176 11.7257Z" fill="#FCD434"/>
<path d="M29.8032 17.3074C29.8265 17.4409 29.8226 17.5776 29.7916 17.7095C29.7607 17.8414 29.7033 17.9658 29.6229 18.0754C29.4149 18.3771 28.1668 19.8583 24.048 19.8857L23.5349 16.3749C23.2788 14.59 22.4067 12.9476 21.0664 11.7257C21.8564 11.2738 22.7449 11.0169 23.6567 10.9768C24.5685 10.9367 25.4765 11.1147 26.304 11.4955C27.1314 11.8764 27.8537 12.4489 28.4098 13.1647C28.9658 13.8804 29.3391 14.7181 29.4981 15.6069L29.8032 17.3074Z" fill="#FCD434"/>
<path d="M8.98752 8.70857C8.63843 9.19817 8.17501 9.5972 7.63661 9.87177C7.09822 10.1463 6.50075 10.2883 5.89499 10.2857C5.29071 10.2857 4.69507 10.1437 4.15718 9.8714C3.61928 9.59909 3.15452 9.20427 2.80119 8.71948C2.44786 8.23469 2.21608 7.6738 2.12494 7.08305C2.03381 6.49229 2.08594 5.88858 2.27703 5.32165C2.46812 4.75473 2.79271 4.24083 3.22403 3.8223C3.65536 3.40377 4.18108 3.09259 4.75788 2.91441C5.33467 2.73622 5.94603 2.69614 6.54156 2.79746C7.13709 2.89877 7.69976 3.13859 8.18318 3.49714C8.04414 4.03488 7.97425 4.58782 7.97517 5.14286C7.97622 6.40066 8.3264 7.63404 8.98752 8.70857Z" fill="#FCD434"/>
<path d="M27.7369 6.51429C27.7372 7.00966 27.6388 7.50024 27.4473 7.95798C27.2558 8.41571 26.9749 8.83161 26.6207 9.18189C26.2665 9.53217 25.8459 9.80996 25.3831 9.99937C24.9202 10.1888 24.4241 10.2861 23.9232 10.2857C23.3174 10.2883 22.72 10.1463 22.1816 9.87177C21.6432 9.5972 21.1798 9.19817 20.8307 8.70857C21.4918 7.63404 21.842 6.40066 21.843 5.14286C21.8439 4.58782 21.774 4.03488 21.635 3.49714C22.2016 3.0769 22.8753 2.821 23.5807 2.7581C24.2861 2.6952 24.9952 2.82779 25.6287 3.14102C26.2622 3.45425 26.7949 3.93573 27.1673 4.53153C27.5396 5.12732 27.7369 5.81389 27.7369 6.51429Z" fill="#FCD434"/>
<path d="M14.9091 10.2857C17.7812 10.2857 20.1095 7.98318 20.1095 5.14286C20.1095 2.30254 17.7812 0 14.9091 0C12.037 0 9.70865 2.30254 9.70865 5.14286C9.70865 7.98318 12.037 10.2857 14.9091 10.2857Z" fill="#FCD434"/>
</svg>
