<svg width="28" height="24" viewBox="0 0 28 24" fill="none" xmlns="http://www.w3.org/2000/svg">
<path d="M23.3143 4.79914H7.80179C6.76964 4.79914 6.66036 3.56308 7.53464 3.35907H23.3143C23.5389 3.35907 23.7696 3.37107 23.9943 3.40107C23.6846 1.23498 21.6507 -0.27109 19.465 0.0409236C19.4043 0.0469239 19.3496 0.0589245 19.2889 0.070925L3.93429 2.65704C3.72786 2.68704 3.51536 2.72304 3.30893 2.76505H3.29679C3.21786 2.77705 3.145 2.79505 3.06607 2.81305C0.716429 3.37107 0.0303571 5.45917 0.0303571 6.71922V8.17129C0.0121429 8.3273 0 8.4833 0 8.63931V20.1598C0 22.2779 1.7425 24 3.88571 24H23.3143C25.4575 24 27.2 22.2779 27.2 20.1598V8.63931C27.2 6.52121 25.4575 4.79914 23.3143 4.79914ZM20.4304 16.3197C19.3557 16.3197 18.4875 15.4616 18.4875 14.3996C18.4875 13.3375 19.3557 12.4795 20.4304 12.4795C21.505 12.4795 22.3732 13.3375 22.3732 14.3996C22.3732 15.4616 21.505 16.3197 20.4304 16.3197Z" fill="#FCD434"/>
</svg>
