<svg width="18" height="18" viewBox="0 0 18 18" fill="none" xmlns="http://www.w3.org/2000/svg">
<path d="M17.0093 12.1812C17.644 12.8226 18 13.6889 18 14.5916C18 15.4944 17.644 16.3607 17.0093 17.002C16.3707 17.641 15.5047 18 14.6017 18C13.6988 18 12.8328 17.641 12.1941 17.002L9 13.8042L5.80587 17.002C5.15696 17.6214 4.29481 17.9669 3.39826 17.9669C2.50171 17.9669 1.63956 17.6214 0.990651 17.002C0.356029 16.3607 0 15.4944 0 14.5916C0 13.6889 0.356029 12.8226 0.990651 12.1812L4.18478 8.9834L0.990651 5.78557C0.356029 5.14422 0 4.27795 0 3.37517C0 2.4724 0.356029 1.60613 0.990651 0.964777C1.63959 0.345475 2.50173 0 3.39826 0C4.29479 0 5.15693 0.345475 5.80587 0.964777L9 4.16261L12.1941 0.964777C12.8431 0.345475 13.7052 0 14.6017 0C15.4983 0 16.3604 0.345475 17.0093 0.964777C17.644 1.60613 18 2.4724 18 3.37517C18 4.27795 17.644 5.14422 17.0093 5.78557L13.8152 8.9834L17.0093 12.1812Z" fill="#C5D4EB"/>
</svg>
