<svg width="65" height="57" viewBox="0 0 65 57" fill="none" xmlns="http://www.w3.org/2000/svg">
<path d="M54.8156 43.5528C55.1704 43.7934 55.2724 44.3006 55.0309 44.665C49.9232 52.3738 41.6717 57 32.6988 57C18.2626 57 6.46369 45.0154 5.70023 29.9615L3.90346 32.0579C3.47762 32.5547 2.74979 32.5937 2.27824 32.145L0.378968 30.3375C-0.0932756 29.8881 -0.129053 29.1203 0.299141 28.6244L7.08096 20.7697C7.50714 20.2761 8.2322 20.2383 8.7026 20.6852L16.2279 27.8341C16.6999 28.2825 16.737 29.0489 16.3107 29.5454L14.5958 31.5431C14.1683 32.0411 13.4377 32.078 12.9669 31.6254L10.628 29.3769C10.975 41.8731 20.7612 51.8846 32.6988 51.8846C40.0215 51.8846 46.7589 48.1189 50.9599 41.8467C51.1928 41.499 51.6388 41.3985 51.9786 41.6289L54.8156 43.5528ZM60.8307 20.2776L59.2116 22.6538C56.6436 9.71923 45.747 0 32.7682 0C24.915 0 17.5637 3.56777 12.3851 9.76097C11.9477 10.284 12.0059 11.0845 12.5227 11.5198L14.5374 13.2169C15.0117 13.6164 15.7074 13.5661 16.1067 13.0843C20.3209 7.99928 26.3267 5.11538 32.7682 5.11538C43.3872 5.11538 52.3405 13.1538 54.4227 23.75L51.8863 21.8272C51.3706 21.4363 50.6515 21.5597 50.2804 22.1029L48.7794 24.3001C48.4081 24.8436 48.526 25.6012 49.0427 25.9914L57.2401 32.182C57.7546 32.5705 58.4707 32.4481 58.8421 31.9081L64.7813 23.2725C65.1547 22.7295 65.0382 21.9705 64.5213 21.579L62.4369 20.0004C61.9208 19.6095 61.2013 19.7336 60.8307 20.2776Z" fill="#C5D4EB"/>
</svg>
