<svg width="47" height="17" viewBox="0 0 47 17" fill="none" xmlns="http://www.w3.org/2000/svg">
<path fill-rule="evenodd" clip-rule="evenodd" d="M43.55 6.9945C43.557 6.82759 43.613 6.66653 43.711 6.53129C43.81 6.39606 43.945 6.29262 44.102 6.2338C44.258 6.17499 44.428 6.16339 44.591 6.20044C44.754 6.2375 44.902 6.32158 45.018 6.44224C45.134 6.56291 45.211 6.71486 45.241 6.87922C45.271 7.04359 45.252 7.21313 45.187 7.36682C45.121 7.52051 45.012 7.65157 44.873 7.74374C44.733 7.83591 44.57 7.88514 44.403 7.8853C44.288 7.88436 44.174 7.8604 44.069 7.81482C43.963 7.76925 43.868 7.70299 43.788 7.61995C43.709 7.53692 43.647 7.43879 43.606 7.33137C43.565 7.22394 43.546 7.1094 43.55 6.9945ZM44.403 7.69154C44.579 7.68627 44.745 7.61154 44.866 7.48371C44.987 7.35588 45.052 7.18538 45.047 7.0096C45.05 6.83394 44.985 6.66392 44.864 6.53598C44.744 6.40803 44.578 6.33235 44.403 6.32515C44.229 6.33571 44.065 6.41229 43.946 6.53925C43.826 6.66622 43.76 6.83399 43.76 7.00834C43.76 7.18269 43.826 7.35047 43.946 7.47743C44.065 7.60439 44.229 7.68097 44.403 7.69154ZM44.285 7.39461H44.106V6.6095H44.428C44.495 6.60247 44.562 6.61561 44.622 6.64724C44.652 6.66875 44.677 6.69797 44.693 6.73199C44.709 6.766 44.716 6.8036 44.712 6.841C44.714 6.88298 44.702 6.92434 44.678 6.95915C44.655 6.99396 44.621 7.02043 44.581 7.03476L44.725 7.38202H44.531L44.415 7.07251H44.285V7.39461ZM44.285 6.95676H44.39C44.425 6.95943 44.46 6.95516 44.493 6.94417C44.507 6.9334 44.517 6.91947 44.524 6.90365C44.53 6.88784 44.533 6.87063 44.531 6.85358C44.532 6.8385 44.528 6.82351 44.522 6.80992C44.515 6.79633 44.506 6.78455 44.493 6.77558C44.46 6.76535 44.425 6.76109 44.39 6.763H44.3L44.285 6.95676Z" fill="#cbcfd3"/>
<path fill-rule="evenodd" clip-rule="evenodd" d="M31.353 1.04577L31.119 2.56818C30.733 2.33309 30.292 2.20377 29.841 2.19324C28.784 2.19324 28.034 3.2778 28.034 4.8153C28.034 5.87218 28.537 6.51889 29.365 6.51889C29.792 6.49516 30.208 6.37102 30.578 6.15653L30.326 7.75695C29.92 7.89109 29.496 7.96072 29.068 7.96329C27.53 7.96329 26.577 6.80072 26.577 4.94364C26.577 2.44488 27.893 0.683414 29.79 0.683414C30.005 0.679914 30.219 0.706165 30.427 0.761425L31.021 0.914925C31.177 0.980345 31.214 0.992934 31.345 1.04577H31.353Z" fill="#cbcfd3"/>
<path fill-rule="evenodd" clip-rule="evenodd" d="M26.6141 2.08992C26.5681 2.08331 26.5201 2.08331 26.4741 2.08992C26.0081 2.08992 25.7361 2.34155 25.2981 3.01846L25.4271 2.15534H24.1361L23.2581 7.8348H24.6921C25.2081 4.34962 25.3361 3.75576 26.0211 3.75576H26.1241C26.2181 3.18011 26.4001 2.62246 26.6651 2.1025H26.6141V2.08992Z" fill="#cbcfd3"/>
<path fill-rule="evenodd" clip-rule="evenodd" d="M18.081 7.75664C17.759 7.87556 17.419 7.94101 17.075 7.9504C16.353 7.9504 15.953 7.51255 15.953 6.69221C15.954 6.52381 15.967 6.35569 15.99 6.18893L16.081 5.63533L16.146 5.18238L16.753 1.28955H18.172L18.003 2.13002H18.741L18.534 3.50899H17.812L17.437 5.88445C17.437 5.98762 17.412 6.06563 17.412 6.11847C17.412 6.41541 17.566 6.54374 17.9 6.54374C18.032 6.55075 18.163 6.53282 18.288 6.4909L18.081 7.74909V7.75664Z" fill="#cbcfd3"/>
<path fill-rule="evenodd" clip-rule="evenodd" d="M12.455 3.93675C12.455 4.65895 12.79 5.14964 13.539 5.52458C14.106 5.80642 14.209 5.89701 14.209 6.15619C14.209 6.50345 13.957 6.67205 13.396 6.67205C12.959 6.67375 12.526 6.59528 12.118 6.44054L11.924 7.75661L11.989 7.76919L12.241 7.82204C12.332 7.83462 12.447 7.85978 12.613 7.87236C12.951 7.89753 13.222 7.92521 13.401 7.92521C14.911 7.92521 15.595 7.31876 15.595 6.02786C15.623 5.68968 15.5399 5.35158 15.3589 5.06497C15.1769 4.77836 14.907 4.55892 14.589 4.44003C13.995 4.15567 13.932 4.09025 13.932 3.821C13.932 3.50897 14.163 3.35547 14.629 3.35547C14.966 3.36344 15.302 3.3937 15.636 3.44606L15.8419 2.12999C15.4259 2.06028 15.005 2.02075 14.584 2.01172C12.971 2.01172 12.4169 2.87736 12.4299 3.93675H12.455Z" fill="#cbcfd3"/>
<path fill-rule="evenodd" clip-rule="evenodd" d="M42.724 7.82203H41.368L41.433 7.26591C41.277 7.46491 41.077 7.62534 40.849 7.73484C40.621 7.84435 40.37 7.9 40.117 7.89753C39.071 7.89753 38.386 6.9564 38.386 5.53716C38.386 3.63982 39.445 2.0394 40.711 2.0394C41.265 2.0394 41.677 2.29104 42.078 2.81193L42.387 0.798828H43.796L42.724 7.80945V7.82203ZM40.621 6.49087C41.29 6.49087 41.756 5.70324 41.756 4.56836C41.756 3.84616 41.484 3.44605 41.001 3.44605C40.356 3.44605 39.891 4.24626 39.891 5.35598C39.891 6.1109 40.143 6.49087 40.628 6.49087H40.621Z" fill="#cbcfd3"/>
<path fill-rule="evenodd" clip-rule="evenodd" d="M22.601 7.70654C22.125 7.86017 21.629 7.93829 21.129 7.93805C19.541 7.93805 18.701 7.05983 18.701 5.38141C18.701 3.42115 19.76 1.98682 21.194 1.98682C22.374 1.98682 23.129 2.79961 23.129 4.06534C23.117 4.53751 23.0521 5.00683 22.9361 5.46445H20.11C20.099 5.52418 20.094 5.58488 20.095 5.64563C20.095 6.3175 20.522 6.65218 21.353 6.65218C21.869 6.64806 22.3771 6.52401 22.8371 6.28982L22.619 7.69899L22.601 7.70654ZM21.801 4.30943C21.806 4.21556 21.806 4.12147 21.801 4.0276C21.801 3.56207 21.549 3.2903 21.129 3.2903C20.709 3.2903 20.3611 3.65266 20.2381 4.30943H21.801Z" fill="#cbcfd3"/>
<path fill-rule="evenodd" clip-rule="evenodd" d="M6.722 7.82227H5.30299L6.116 2.43974L4.284 7.82227H3.315L3.2 2.47748L2.334 7.82227H1.005L2.11501 0.824219H4.166L4.21899 5.16246L5.61301 0.824219H7.832L6.722 7.82227Z" fill="#cbcfd3"/>
<path fill-rule="evenodd" clip-rule="evenodd" d="M10.4009 5.29093C10.2479 5.29093 10.1829 5.26577 10.0789 5.26577C9.26693 5.26577 8.86594 5.5627 8.86594 6.1314C8.85794 6.20324 8.86494 6.27605 8.88594 6.34518C8.90694 6.41431 8.94294 6.47826 8.98994 6.53294C9.03694 6.58762 9.09593 6.63185 9.16093 6.66279C9.22593 6.69374 9.29693 6.71073 9.36993 6.71269C9.93793 6.71269 10.3759 6.1314 10.3889 5.29093H10.4009ZM11.4359 7.82241H10.2479L10.2729 7.22854C10.1009 7.45697 9.87594 7.63912 9.61594 7.75859C9.35594 7.87807 9.07093 7.93113 8.78593 7.913C8.01093 7.913 7.48193 7.27887 7.48193 6.36291C7.48193 4.96884 8.41093 4.16863 9.98593 4.16863C10.1739 4.17064 10.3609 4.18324 10.5469 4.20638C10.5769 4.08433 10.5939 3.95951 10.5979 3.83395C10.5979 3.45901 10.3459 3.31558 9.68195 3.31558C9.27995 3.31541 8.87994 3.37217 8.49394 3.48418L8.31294 3.5496L8.18494 3.58735L8.37794 2.30903C8.92594 2.11669 9.50094 2.01223 10.0819 1.99951C11.3069 1.99951 11.9539 2.5808 11.9539 3.66535C11.9439 4.04601 11.9049 4.42536 11.8379 4.80024L11.5539 6.82844L11.5009 7.18828L11.4729 7.47766L11.4479 7.68401V7.82744L11.4359 7.82241Z" fill="#cbcfd3"/>
<path fill-rule="evenodd" clip-rule="evenodd" d="M33.816 5.29089C33.675 5.29089 33.597 5.26573 33.494 5.26573C32.681 5.26573 32.269 5.56267 32.269 6.13137C32.259 6.20502 32.265 6.27996 32.286 6.35117C32.307 6.42239 32.343 6.48822 32.392 6.54423C32.441 6.60025 32.502 6.64516 32.569 6.67594C32.637 6.70672 32.71 6.72268 32.785 6.72271C33.366 6.72271 33.791 6.14142 33.816 5.30095V5.29089ZM34.851 7.82237H33.663L33.698 7.22599C33.524 7.45794 33.295 7.6423 33.031 7.76195C32.767 7.8816 32.477 7.93268 32.188 7.91044C31.413 7.91044 30.885 7.27631 30.885 6.36035C30.885 4.96627 31.813 4.16607 33.401 4.16607C33.595 4.16769 33.79 4.18029 33.982 4.20381C34.012 4.08176 34.029 3.95695 34.033 3.8314C34.033 3.45646 33.781 3.31301 33.117 3.31301C32.715 3.31315 32.315 3.36991 31.929 3.48162L31.723 3.53446L31.594 3.57221L31.788 2.29388C32.336 2.10155 32.911 1.99709 33.492 1.98438C34.717 1.98438 35.364 2.56566 35.364 3.65022C35.354 4.03087 35.315 4.41022 35.248 4.78509L34.951 6.7982L34.911 7.16056L34.873 7.44492L34.848 7.63868L34.861 7.81986L34.851 7.82237Z" fill="#cbcfd3"/>
<path fill-rule="evenodd" clip-rule="evenodd" d="M38.8389 2.09009C38.7909 2.08325 38.743 2.08325 38.696 2.09009C38.233 2.09009 37.9609 2.34173 37.5229 3.01864L37.6509 2.15552H36.3599L35.4819 7.84756H36.9139C37.4319 4.36238 37.5609 3.76852 38.2449 3.76852H38.3479C38.4479 3.1943 38.6309 2.6375 38.8889 2.11526H38.8389V2.09009Z" fill="#cbcfd3"/>
<path fill-rule="evenodd" clip-rule="evenodd" d="M32.8499 13.3584C32.8499 14.6493 32.4499 15.4118 31.8159 15.4118C31.3529 15.4118 31.0809 14.9085 31.0809 14.1536C31.0809 13.2502 31.4939 12.2185 32.1379 12.2185C32.6689 12.2185 32.8499 12.7721 32.8499 13.366V13.3584ZM34.2569 13.371C34.2569 11.9392 33.5469 10.8169 32.2159 10.8169C30.6809 10.8169 29.7 12.1707 29.7 14.1737C29.7 15.6055 30.2929 16.7807 31.7379 16.7807C33.1819 16.7807 34.269 15.7464 34.269 13.371H34.2569Z" fill="#cbcfd3"/>
<path fill-rule="evenodd" clip-rule="evenodd" d="M30.137 9.82266L29.918 11.3326C29.565 11.1 29.154 10.9702 28.731 10.9576C27.724 10.9576 27.04 12.0422 27.04 13.5797C27.04 14.6366 27.505 15.2833 28.28 15.2833C28.684 15.2673 29.077 15.1468 29.42 14.9335L29.184 16.5364C28.802 16.6712 28.401 16.7409 27.996 16.7428C26.562 16.7428 25.658 15.5827 25.658 13.7231C25.658 11.2067 26.899 9.46286 28.678 9.46286C28.879 9.45856 29.079 9.48486 29.272 9.54086L29.813 9.69686C29.93 9.72166 30.043 9.76496 30.147 9.82526L30.137 9.82266Z" fill="#cbcfd3"/>
<path fill-rule="evenodd" clip-rule="evenodd" d="M21.322 10.8547C21.276 10.8436 21.227 10.8394 21.179 10.8421C20.741 10.8421 20.497 11.0937 20.082 11.7706L20.213 10.9075H19.012L18.197 16.5995H19.528C20.006 13.1144 20.135 12.5104 20.766 12.5104C20.801 12.5096 20.836 12.5138 20.87 12.523C20.958 11.9509 21.128 11.3943 21.373 10.8698L21.322 10.8446V10.8547Z" fill="#cbcfd3"/>
<path fill-rule="evenodd" clip-rule="evenodd" d="M38.731 16.5365H37.473L37.538 15.9829C37.397 16.18 37.211 16.3403 36.995 16.4502C36.779 16.5602 36.54 16.6165 36.297 16.6145C35.329 16.6145 34.684 15.6734 34.684 14.2517C34.684 12.3543 35.678 10.7539 36.854 10.7539C37.369 10.7539 37.77 11.0055 38.132 11.5415L38.426 9.54102H39.737L38.731 16.5365ZM36.755 15.1953C37.387 15.1953 37.812 14.4077 37.812 13.2728C37.812 12.5481 37.561 12.1606 37.103 12.1606C36.496 12.1606 36.071 12.9482 36.071 14.073C36.071 14.8279 36.302 15.1953 36.755 15.1953Z" fill="#cbcfd3"/>
<path fill-rule="evenodd" clip-rule="evenodd" d="M8.82607 16.5214C8.38706 16.6759 7.92507 16.7542 7.46007 16.7529C5.97507 16.7529 5.19507 15.8772 5.19507 14.1988C5.20007 12.2587 6.19406 10.8042 7.52806 10.8042C8.62506 10.8042 9.32207 11.6044 9.32207 12.8827C9.31407 13.3561 9.25907 13.8274 9.15607 14.2894H6.50406C6.49406 14.3485 6.49006 14.4083 6.49106 14.4681C6.49106 15.1274 6.89106 15.462 7.66606 15.462C8.14606 15.4564 8.61706 15.3328 9.03806 15.1022L8.81606 16.5214H8.82607ZM8.07106 13.1268C8.07106 13.0111 8.07106 12.9079 8.07106 12.8425C8.07106 12.377 7.84006 12.1077 7.44006 12.1077C7.04006 12.1077 6.71507 12.4675 6.58707 13.1268H8.07106Z" fill="#cbcfd3"/>
<path fill-rule="evenodd" clip-rule="evenodd" d="M24.679 16.5214C24.24 16.676 23.777 16.7543 23.31 16.7529C21.801 16.7529 21.046 15.8772 21.046 14.1988C21.046 12.2486 22.052 10.8042 23.368 10.8042C24.466 10.8042 25.175 11.6044 25.175 12.8827C25.168 13.3561 25.112 13.8274 25.009 14.2894H22.354C22.349 14.3489 22.349 14.4086 22.354 14.4681C22.354 15.1274 22.754 15.462 23.529 15.462C24.006 15.4551 24.473 15.3315 24.891 15.1022L24.672 16.5214H24.679ZM23.924 13.1268C23.93 13.0321 23.93 12.9372 23.924 12.8425C23.924 12.377 23.693 12.1077 23.293 12.1077C22.893 12.1077 22.571 12.4675 22.44 13.1268H23.924Z" fill="#cbcfd3"/>
<path fill-rule="evenodd" clip-rule="evenodd" d="M43.26 16.5214C42.821 16.6739 42.359 16.7522 41.894 16.7529C40.409 16.7529 39.629 15.8772 39.629 14.1988C39.629 12.2486 40.623 10.8042 41.964 10.8042C43.061 10.8042 43.759 11.6044 43.759 12.8827C43.751 13.3562 43.695 13.8276 43.59 14.2894H40.943C40.938 14.3489 40.938 14.4086 40.943 14.4681C40.943 15.1274 41.343 15.462 42.118 15.462C42.6 15.4583 43.074 15.3346 43.497 15.1022L43.26 16.5214ZM42.505 13.1268C42.505 13.0111 42.505 12.9079 42.505 12.8425C42.505 12.377 42.274 12.1077 41.874 12.1077C41.474 12.1077 41.149 12.4675 41.021 13.1268H42.505Z" fill="#cbcfd3"/>
<path fill-rule="evenodd" clip-rule="evenodd" d="M4.87804 11.1136C4.55004 10.893 4.16104 10.7803 3.76604 10.7915C3.22504 10.7915 2.79903 10.9072 2.79903 11.4734C2.79903 12.4825 4.76003 12.1076 4.76003 14.2716C4.76003 16.2445 3.46904 16.7629 2.29604 16.7629C1.75604 16.7472 1.22403 16.6213 0.733032 16.3929L1.05603 14.946C1.41803 15.2194 1.86003 15.3646 2.31403 15.3587C2.73903 15.3587 3.38603 15.243 3.38603 14.5082C3.38603 13.3582 1.42303 13.786 1.42303 11.7704C1.42303 9.92592 2.57003 9.38232 3.68803 9.38232C4.30703 9.38232 4.90103 9.47292 5.23503 9.70692L4.88803 11.1136H4.87804Z" fill="#cbcfd3"/>
<path fill-rule="evenodd" clip-rule="evenodd" d="M12.724 16.5211C12.35 16.6816 11.945 16.7564 11.539 16.7401C10.376 16.7401 9.65405 15.58 9.65405 14.1583C9.65405 12.3012 10.698 10.8291 12.236 10.8291C12.679 10.8522 13.111 10.9808 13.494 11.204L13.19 12.5578C12.933 12.3722 12.6261 12.2679 12.3091 12.2584C11.5991 12.2584 11.083 12.9177 11.083 14.0777C11.083 14.7496 11.458 15.3057 12.037 15.3057C12.352 15.3088 12.661 15.2215 12.928 15.0541L12.734 16.5262L12.724 16.5211Z" fill="#cbcfd3"/>
<path fill-rule="evenodd" clip-rule="evenodd" d="M17.709 15.0896C17.644 15.5929 17.578 16.0559 17.54 16.5591H16.262L16.365 15.6432C15.965 16.2647 15.552 16.69 14.815 16.69C14.015 16.69 13.577 15.8369 13.577 14.7398C13.581 14.3418 13.616 13.9448 13.68 13.5521L14.043 10.9199H15.474L15.077 13.5647C15.027 13.8509 14.997 14.14 14.986 14.4303C14.986 14.765 15.142 15.1022 15.53 15.077C16.109 15.077 16.458 14.3649 16.562 13.5269L16.962 10.9199H18.348L17.709 15.0896Z" fill="#cbcfd3"/>
<path fill-rule="evenodd" clip-rule="evenodd" d="M44.5959 16.4962H44.3749V15.5525H44.0649V15.3462H44.9059V15.5525H44.5959V16.4962Z" fill="#cbcfd3"/>
<path fill-rule="evenodd" clip-rule="evenodd" d="M46.028 16.4962H45.822V15.54L45.628 16.4962H45.422L45.228 15.54V16.4962H45.022V15.3462H45.344L45.525 16.2496H45.538L45.719 15.3462H46.028V16.4962Z" fill="#cbcfd3"/>
</svg>
