<svg width="53" height="22" viewBox="0 0 53 22" fill="none" xmlns="http://www.w3.org/2000/svg">
<path d="M35.663 18.1886C30.378 18.1886 25.0921 18.1872 19.8071 18.1843C19.7131 18.1794 19.618 18.1967 19.532 18.2347C19.446 18.2727 19.3691 18.3305 19.3091 18.4033C16.9281 21.0006 13.966 22.2067 10.456 21.9711C5.58005 21.6405 1.50005 17.8733 0.71105 13.0393C0.25105 10.2651 0.897046 7.42129 2.51005 5.11807C4.12305 2.81485 6.57506 1.23586 9.33906 0.71998C13.8791 -0.138851 18.5221 2.07755 20.7291 6.14779C20.8921 6.449 20.8921 6.45023 20.5521 6.45084C19.8261 6.45084 19.1 6.44102 18.374 6.45636C18.144 6.46188 18.006 6.38643 17.866 6.20669C16.521 4.49638 14.7801 3.4345 12.6261 3.08422C10.6141 2.75753 8.55105 3.18253 6.83205 4.27825C5.11205 5.37398 3.85605 7.06388 3.30205 9.02611C1.94405 13.8429 5.13104 18.791 10.111 19.4731C13.534 19.9418 16.2461 18.6419 18.2311 15.8335C18.3761 15.6293 18.5141 15.5655 18.7511 15.5655C29.1171 15.5708 39.4831 15.5675 49.8501 15.5556C51.3251 15.5514 51.992 16.9052 51.874 18.0242C51.863 18.1321 51.826 18.1972 51.7051 18.1892C51.6231 18.1843 51.5411 18.1892 51.4601 18.1892L35.663 18.1886Z" fill="#cbcfd3"/>
<path d="M4.85196 10.8856C4.85196 9.78131 4.85895 8.6771 4.84595 7.57289C4.84595 7.32751 4.89695 7.2361 5.16095 7.24347C5.80395 7.26248 6.44995 7.24899 7.09195 7.25021C7.85795 7.25021 8.29896 7.59313 8.51396 8.3397C8.79796 9.32981 9.08396 10.3191 9.37296 11.3076C9.39996 11.4015 9.37295 11.5647 9.53595 11.553C9.66795 11.5463 9.64895 11.4033 9.67595 11.3138C9.96395 10.3249 10.251 9.33554 10.534 8.34584C10.755 7.58148 11.1929 7.24776 11.9799 7.24715C12.6339 7.24715 13.2879 7.2539 13.9429 7.24285C14.1429 7.23917 14.205 7.29438 14.205 7.49866C14.198 9.7672 14.198 12.0358 14.205 14.3043C14.205 14.527 14.1319 14.5755 13.9259 14.5712C13.3229 14.5589 12.72 14.5565 12.117 14.5712C11.894 14.5767 11.849 14.4994 11.85 14.2933C11.86 13.0768 11.8549 11.861 11.8549 10.6451C11.8549 10.5733 11.8549 10.5015 11.8549 10.4304C11.8549 10.3592 11.869 10.2715 11.768 10.2641C11.667 10.2568 11.663 10.3433 11.645 10.4108L11.213 11.8137C10.958 12.6425 10.6979 13.47 10.4539 14.3006C10.3959 14.4957 10.322 14.5847 10.1 14.5718C9.71196 14.5497 9.32296 14.5558 8.93396 14.5718C8.74996 14.5785 8.67095 14.5196 8.61595 14.3381C8.24395 13.0977 7.85696 11.8616 7.47496 10.6248C7.45696 10.5635 7.43996 10.5077 7.41896 10.45C7.39096 10.3697 7.39895 10.2396 7.26495 10.2727C7.15995 10.2991 7.20296 10.4114 7.20296 10.485C7.20296 11.7119 7.20296 12.9388 7.20296 14.1657C7.20296 14.6356 7.26095 14.565 6.79495 14.5687C6.23395 14.5724 5.67195 14.5601 5.10995 14.5742C4.90495 14.5792 4.85096 14.516 4.85196 14.3166C4.85596 13.1731 4.85196 12.0303 4.85196 10.8856Z" fill="#cbcfd3"/>
<path d="M25.798 14.5712C24.96 14.5712 24.126 14.5712 23.292 14.5712C23.137 14.5712 23.119 14.4485 23.071 14.3546C22.736 13.7234 22.402 13.0922 22.078 12.4529C21.999 12.2977 21.912 12.218 21.728 12.2333C21.514 12.2502 21.299 12.2502 21.084 12.2333C20.889 12.2186 20.843 12.2947 20.846 12.4787C20.857 13.0922 20.842 13.7056 20.855 14.3191C20.859 14.5215 20.798 14.5773 20.599 14.573C19.985 14.5608 19.372 14.5595 18.758 14.573C18.547 14.5779 18.509 14.5006 18.51 14.3105C18.517 13.1449 18.515 11.9794 18.51 10.8138C18.51 10.6684 18.507 10.5684 18.71 10.5684C21.01 10.5758 23.311 10.5739 25.61 10.5758C25.639 10.5822 25.667 10.5918 25.693 10.6046C25.59 10.9036 25.428 11.1787 25.216 11.4137C25.004 11.6487 24.747 11.8388 24.461 11.9726C24.238 12.0787 24.231 12.1505 24.362 12.3407C24.803 12.9793 25.23 13.6289 25.657 14.2761C25.714 14.3595 25.799 14.4276 25.798 14.5712Z" fill="#cbcfd3"/>
<path d="M21.019 7.25323C21.836 7.25323 22.653 7.23851 23.473 7.25691C24.859 7.28758 25.966 8.53166 25.865 9.90763C25.846 10.1696 25.768 10.2677 25.482 10.2628C24.278 10.2444 23.072 10.2628 21.867 10.2536C20.121 10.2401 18.693 9.14941 18.251 7.53542C18.183 7.28574 18.242 7.24464 18.479 7.24771C19.326 7.25937 20.174 7.252 21.022 7.252L21.019 7.25323Z" fill="#cbcfd3"/>
<path d="M17.528 10.885C17.528 12.0291 17.525 13.1725 17.532 14.3166C17.532 14.5068 17.496 14.5822 17.287 14.5773C16.664 14.5626 16.041 14.5663 15.418 14.5773C15.249 14.5773 15.191 14.5375 15.191 14.3583C15.197 12.0603 15.197 9.76257 15.191 7.46499C15.191 7.31347 15.222 7.24783 15.392 7.25028C16.025 7.25948 16.6581 7.26378 17.2941 7.25028C17.5161 7.24415 17.536 7.33923 17.534 7.51897C17.525 8.63852 17.528 9.76175 17.528 10.885Z" fill="#cbcfd3"/>
<path d="M39.971 12.1504C39.971 11.4866 39.977 10.8229 39.967 10.1585C39.967 9.97443 40.021 9.91309 40.213 9.91309C40.989 9.92229 41.7651 9.92106 42.5441 9.91309C42.7171 9.91309 42.795 9.94437 42.799 10.145C42.814 10.875 42.822 10.875 42.096 10.875C41.83 10.875 41.564 10.8854 41.298 10.8719C41.12 10.8627 41.078 10.9296 41.076 11.0989C41.066 11.6786 41.059 11.678 41.647 11.678H41.739C42.492 11.678 42.487 11.678 42.444 12.427C42.436 12.5761 42.388 12.6184 42.246 12.6148C41.939 12.6074 41.633 12.6209 41.326 12.6098C41.149 12.6031 41.076 12.643 41.073 12.8423C41.065 13.4558 41.0561 13.4558 41.6711 13.4558C42.0071 13.4558 42.3461 13.4675 42.6821 13.4521C42.9001 13.4423 42.9011 13.5871 42.8631 13.7061C42.7871 13.9361 43.078 14.3539 42.693 14.3846C41.85 14.452 40.999 14.4017 40.151 14.4085C39.958 14.4085 39.9731 14.295 39.9731 14.168C39.9721 13.4973 39.972 12.8248 39.971 12.1504Z" fill="#cbcfd3"/>
<path d="M35.25 12.1688C35.289 11.2265 35.662 10.4959 36.512 10.099C37.412 9.67816 38.296 9.76465 39.122 10.3346C39.255 10.4266 39.293 10.5137 39.19 10.6591C39.061 10.8431 38.992 11.1026 38.822 11.2112C38.62 11.3406 38.454 11.0621 38.259 10.9873C37.689 10.7671 37.072 10.8486 36.721 11.2265C36.371 11.6044 36.296 12.3234 36.564 12.8368C36.825 13.3362 37.401 13.5803 37.975 13.4337C38.161 13.379 38.339 13.302 38.507 13.2043C38.635 13.135 38.77 12.9025 38.866 12.992C39.076 13.189 39.223 13.4583 39.378 13.7079C39.421 13.7754 39.322 13.8306 39.27 13.8723C38.452 14.5422 37.537 14.6698 36.575 14.2723C35.644 13.8871 35.288 13.1117 35.25 12.1688Z" fill="#cbcfd3"/>
<path d="M30.886 12.1853C30.902 11.2387 31.281 10.5112 32.124 10.1063C33.02 9.67686 33.903 9.75968 34.736 10.3241C34.877 10.4204 34.939 10.5192 34.811 10.6676C34.798 10.6837 34.787 10.701 34.777 10.7192C34.664 10.9001 34.589 11.1578 34.426 11.2412C34.263 11.3246 34.094 11.0719 33.908 11.0001C33.4 10.8057 32.901 10.7731 32.46 11.132C32.036 11.4762 31.965 11.9546 32.064 12.4675C32.205 13.1981 32.883 13.6214 33.607 13.4331C33.772 13.3821 33.932 13.3151 34.085 13.2331C34.236 13.1619 34.379 12.9024 34.5 13.0018C34.712 13.1766 34.851 13.4459 35.003 13.687C35.058 13.776 34.945 13.8281 34.887 13.876C34.069 14.5508 33.151 14.6735 32.192 14.268C31.281 13.8852 30.91 13.1233 30.886 12.1853Z" fill="#cbcfd3"/>
<path d="M50.738 9.77809C51.371 9.77809 52.005 9.78299 52.64 9.77441C52.805 9.77441 52.865 9.81183 52.87 9.99157C52.89 10.8246 52.896 10.8246 52.063 10.8246C51.344 10.8246 51.344 10.8246 51.344 11.5313C51.344 12.5226 51.34 13.5134 51.348 14.5041C51.348 14.6955 51.308 14.785 51.097 14.7666C50.893 14.7463 50.688 14.7463 50.484 14.7666C50.197 14.7992 50.101 14.7157 50.107 14.4072C50.128 13.3146 50.107 12.2208 50.12 11.1283C50.12 10.8994 50.078 10.7988 49.824 10.8185C49.508 10.8424 49.19 10.8142 48.874 10.8277C48.683 10.8356 48.611 10.7884 48.609 10.5786C48.603 9.77747 48.595 9.77747 49.39 9.77747L50.738 9.77809Z" fill="#cbcfd3"/>
<path d="M43.202 9.90934C44.387 9.90934 45.571 9.87376 46.753 9.92099C47.634 9.95657 48.291 10.808 48.206 11.6828C48.198 11.7724 48.215 11.8779 48.074 11.8736C47.045 11.8399 46.008 11.9852 44.99 11.7926C44.055 11.6153 43.337 10.8203 43.202 9.90934Z" fill="#cbcfd3"/>
<path d="M48.193 12.0571C47.981 12.6736 47.523 13.022 46.918 13.0331C46.296 13.0447 45.672 13.0484 45.05 13.0331C44.804 13.0263 44.701 13.0852 44.72 13.349C44.742 13.6435 44.72 13.941 44.727 14.2373C44.727 14.3784 44.683 14.4262 44.534 14.4354C43.614 14.4925 43.614 14.4968 43.614 13.5852C43.614 13.1459 43.62 12.7067 43.614 12.2681C43.611 12.1104 43.66 12.0546 43.823 12.0552C45.27 12.0595 46.719 12.0571 48.193 12.0571Z" fill="#cbcfd3"/>
<path d="M30.693 14.1313C30.263 12.9099 29.8521 11.6818 29.4351 10.4561C29.2511 9.91932 29.251 9.91932 28.691 9.91932C28.62 9.92577 28.5491 9.92577 28.4771 9.91932C28.1791 9.86411 28.0481 10.0003 27.9681 10.2813C27.8311 10.761 27.655 11.2297 27.495 11.7027C27.216 12.5235 26.9361 13.3436 26.6621 14.165C26.6331 14.2515 26.5111 14.3975 26.7231 14.4067C27.0391 14.4202 27.3841 14.4791 27.6621 14.3748C27.8581 14.3018 27.8231 13.9405 27.9071 13.7135C27.9201 13.6856 27.9301 13.6564 27.9361 13.6264C27.9521 13.5007 28.0221 13.462 28.1451 13.4645C28.4921 13.4712 28.8401 13.4731 29.1881 13.4645C29.3261 13.4602 29.3871 13.5136 29.4251 13.6399C29.4991 13.8914 29.4861 14.2301 29.6841 14.3681C29.8941 14.5141 30.2201 14.3883 30.4931 14.4166C30.7491 14.4399 30.774 14.3656 30.693 14.1313ZM28.4461 11.875C28.5231 11.6057 28.5891 11.3327 28.6741 11.0095C28.8231 11.5616 28.9601 12.0628 29.0981 12.5701C28.2141 12.6701 28.2161 12.6707 28.4461 11.875Z" fill="#cbcfd3"/>
</svg>
