<svg width="57" height="22" viewBox="0 0 57 22" fill="none" xmlns="http://www.w3.org/2000/svg">
<path fill-rule="evenodd" clip-rule="evenodd" d="M38.2913 12.7258L38.848 12.8941C38.8104 13.0501 38.7517 13.1804 38.6718 13.2852C38.5919 13.3904 38.492 13.4698 38.3719 13.5234C38.2531 13.576 38.1017 13.6023 37.9178 13.6023C37.6942 13.6023 37.5113 13.5704 37.3692 13.5065C37.2285 13.4407 37.1064 13.3261 37.0031 13.1626C36.9005 12.9991 36.8492 12.7896 36.8492 12.534C36.8492 12.1939 36.9394 11.9327 37.1198 11.7504C37.3015 11.5672 37.5575 11.4755 37.8879 11.4755C38.1467 11.4755 38.3502 11.5282 38.4982 11.6334C38.647 11.7386 38.7574 11.8993 38.8294 12.1154L38.2684 12.2394C38.2494 12.1765 38.229 12.1309 38.207 12.1027C38.1717 12.0539 38.1285 12.0167 38.0773 11.9914C38.0259 11.9651 37.9684 11.9519 37.9047 11.9519C37.7609 11.9519 37.6506 12.0097 37.5737 12.1253C37.5158 12.2117 37.4868 12.347 37.4868 12.5312C37.4868 12.7595 37.5215 12.9159 37.5911 13.0005C37.6608 13.0851 37.7583 13.1273 37.8837 13.1273C38.0053 13.1273 38.0969 13.0935 38.1585 13.0259C38.2214 12.9582 38.2669 12.8596 38.2949 12.7299L38.2913 12.7258ZM39.0752 12.5392C39.0752 12.2038 39.1686 11.9426 39.3556 11.7556C39.5424 11.5686 39.8027 11.4751 40.1364 11.4751C40.4786 11.4751 40.7424 11.5672 40.9278 11.7514C41.1133 11.9346 41.206 12.1918 41.206 12.5231C41.206 12.7635 41.1653 12.9606 41.0839 13.1145C41.0041 13.2677 40.8876 13.3875 40.7344 13.4739C40.5822 13.559 40.3924 13.6016 40.165 13.6016C39.9339 13.6016 39.7422 13.565 39.59 13.4917C39.4397 13.4184 39.317 13.3015 39.2221 13.141C39.1282 12.9813 39.0812 12.7812 39.0812 12.5406L39.0752 12.5392ZM39.7101 12.542C39.7101 12.7495 39.7484 12.8986 39.8251 12.9894C39.9021 13.08 40.0069 13.1254 40.1394 13.1254C40.2756 13.1254 40.3813 13.0806 40.4565 12.9912C40.5307 12.9017 40.5678 12.7423 40.5678 12.513C40.5678 12.3194 40.5284 12.1784 40.4494 12.0898C40.3715 11.9996 40.2657 11.9545 40.1323 11.9545C40.0036 11.9545 39.9007 11.9996 39.8237 12.0898C39.7457 12.179 39.7067 12.3289 39.7067 12.5393L39.7101 12.542ZM41.5427 11.5101H42.3782L42.7009 12.7608L43.0218 11.5101H43.8548V13.5655H43.3361V11.9983L42.9345 13.5655H42.4651L42.0649 11.9983V13.5655H41.5434L41.5427 11.5101ZM44.2555 11.5101H45.3115C45.5414 11.5101 45.7134 11.5648 45.8273 11.6741C45.9424 11.7834 46 11.9388 46 12.1404C46 12.3477 45.9373 12.5097 45.812 12.6262C45.6876 12.7427 45.4974 12.8009 45.2415 12.8009H44.8936V13.564H44.2556V11.5078L44.2555 11.5101ZM44.8936 12.3863H45.0492C45.1717 12.3863 45.2576 12.3653 45.3071 12.3233C45.3568 12.2804 45.3816 12.2257 45.3816 12.1594C45.3816 12.0948 45.36 12.0401 45.317 11.9953C45.2741 11.9502 45.1933 11.9277 45.0746 11.9277H44.8931L44.8936 12.3863ZM46.3336 11.5101H46.9678V13.0595H47.9586V13.5655H46.3322V11.5102L46.3336 11.5101ZM48.2757 11.5101H48.9113V13.5655H48.2743V11.5102L48.2757 11.5101ZM50.6308 13.2263H49.9064L49.8063 13.5657H49.1566L49.9289 11.5108H50.6209L51.3933 13.5671H50.7294L50.628 13.2288L50.6308 13.2263ZM50.4969 12.7819L50.2686 12.0431L50.0417 12.7819H50.4941H50.4969ZM51.6018 11.5101H52.1952L52.9689 12.6472V11.5101H53.5679V13.5655H52.9689L52.1994 12.4369V13.5658H51.6018V11.5101ZM53.847 11.5101H55.7778V12.0177H55.1295V13.5655H54.4953V12.018H53.847V11.5101Z" fill="#cbcfd3"/>
<path fill-rule="evenodd" clip-rule="evenodd" d="M32.4832 14.068L30.6436 14.6479L30.6431 14.6466C31.0082 13.994 31.4445 13.2865 31.8876 12.7411L32.4832 14.068ZM26.4094 0.536621L30.0168 8.57346C29.6076 9.13721 28.3821 10.8317 27.2274 12.4946V7.16235H23.952V14.3135C23.4986 14.0064 23.022 13.7907 22.5631 13.7139V13.3565C22.5631 13.3289 22.5448 13.319 22.5208 13.3333C22.5208 13.3333 22.1671 13.618 20.6125 13.7688C20.1714 13.8181 19.9628 13.7956 19.8035 13.7688C17.5993 13.3981 17.4936 11.783 17.4936 11.783C17.4907 11.7562 17.4879 11.7125 17.4879 11.6857V11.0698C17.4879 11.043 17.4907 10.9993 17.4936 10.9726C17.4936 10.9726 17.6415 9.24188 19.8021 9.05866H20.6097C21.5639 9.18692 22.3291 9.65906 22.3291 9.65906L22.3348 9.65836C22.3573 9.67203 22.3771 9.66075 22.3771 9.63383V7.46734C22.3771 7.43971 22.3573 7.40673 22.3334 7.39377C22.3334 7.39377 21.9035 7.11372 20.5928 7.03578C20.5223 6.99703 19.3807 6.99125 19.065 7.03578C14.3013 7.41773 14.1251 10.8639 14.1251 11.0215V11.8579C14.1251 11.9601 14.1251 15.4837 19.065 15.7957C19.4563 15.8253 20.153 15.8069 20.455 15.7989C20.5251 15.797 20.5739 15.7957 20.5928 15.7957C20.6 15.7957 20.6071 15.7957 20.6143 15.7957C20.7193 16.3723 21.0045 16.9904 21.4003 17.5608L7.31637 22L0 2.0362L26.4094 0.536621ZM27.5913 4.45563C27.5913 5.49829 26.6951 6.3435 25.5897 6.3435C24.4838 6.3435 23.5874 5.49928 23.5874 4.45634C23.5874 3.41354 24.4834 2.56834 25.5892 2.56834C26.6941 2.56834 27.5913 3.41298 27.5913 4.45563ZM5.08934 15.7299C5.062 15.7299 5.04044 15.7079 5.04044 15.6806L5.04058 7.20787C5.04058 7.18151 5.06313 7.15826 5.0899 7.15826C5.0899 7.15826 9.20275 7.15967 9.22389 7.15826C10.2759 7.10893 13.4713 7.40462 13.4713 10.1024C13.4713 13.5214 8.37827 13.1532 8.37827 13.1532C8.35078 13.1522 8.32894 13.173 8.32894 13.1992V15.6816C8.32894 15.7079 8.30695 15.7299 8.27989 15.7299H5.08934ZM8.27256 9.02047V11.2566L8.2751 11.2556L9.1461 11.257C9.1461 11.257 10.1327 11.2124 10.2778 10.3037C10.2933 10.2825 10.299 9.90486 10.2778 9.84425C10.189 9.07177 9.05308 9.02047 9.05308 9.02047H8.27256Z" fill="#cbcfd3"/>
<path fill-rule="evenodd" clip-rule="evenodd" d="M25.6795 19.844C25.9459 19.844 26.1495 19.844 26.4861 19.6946C27.6492 19.0833 31.5637 9.52343 35.6924 6.5829C35.7164 6.56402 35.7506 6.53667 35.7704 6.50863C35.7969 6.46987 35.7979 6.43027 35.7979 6.43027C35.7979 6.43027 35.7979 6.23436 35.1856 6.23436C31.51 6.1343 27.6877 13.8394 25.6794 16.8879C25.654 16.9217 25.5159 16.8879 25.5159 16.8879C25.5159 16.8879 24.1699 15.2995 23.0001 14.6906C22.9762 14.678 22.8423 14.6371 22.7042 14.647C22.6126 14.647 22.0685 14.7555 21.8148 15.0247C21.5161 15.3404 21.5217 15.5179 21.5245 15.9027C21.5259 15.9337 21.5457 16.062 21.5823 16.1268C21.8684 16.6271 23.1749 18.4227 24.2446 19.4135C24.4109 19.5319 24.6632 19.8462 25.6808 19.8462L25.6795 19.844Z" fill="#cbcfd3"/>
<path fill-rule="evenodd" clip-rule="evenodd" d="M36.778 3.68545H39.8363C40.4396 3.68545 40.9259 3.7672 41.2953 3.93068C41.6681 4.09436 41.9756 4.32926 42.2179 4.63537C42.4603 4.94074 42.636 5.29651 42.745 5.7027C42.854 6.1086 42.9085 6.53846 42.9085 6.99228C42.9085 7.70354 42.8268 8.25649 42.6633 8.65112C42.5028 9.04198 42.2786 9.37084 41.9907 9.63768C41.7029 9.90077 41.3939 10.076 41.0636 10.1634C40.6122 10.2837 40.2031 10.3438 39.8365 10.3438H36.7781V3.6832L36.778 3.68545ZM38.8368 5.19419V8.83462H39.3402C39.7706 8.83462 40.0766 8.78764 40.2583 8.69368C40.44 8.5969 40.5822 8.4306 40.6848 8.19476C40.7874 7.95516 40.8387 7.569 40.8387 7.03625C40.8387 6.33062 40.7233 5.84767 40.4924 5.58741C40.2622 5.32714 39.8804 5.19701 39.3469 5.19701H38.8334L38.8368 5.19419ZM43.4685 8.14402L45.4261 8.02141C45.4684 8.33993 45.5543 8.58234 45.684 8.74865C45.8954 9.01831 46.1984 9.15314 46.593 9.15314C46.8871 9.15314 47.1126 9.08502 47.2695 8.94878C47.4293 8.80972 47.5091 8.64905 47.5091 8.46677C47.5091 8.29483 47.433 8.14073 47.2808 8.00449C47.1286 7.86825 46.7772 7.74 46.2266 7.61973C45.3237 7.41678 44.6796 7.14712 44.2943 6.81075C43.9063 6.47532 43.7123 6.04687 43.7123 5.5254C43.7123 5.18339 43.8109 4.86111 44.0082 4.55856C44.2074 4.2532 44.5058 4.01407 44.9032 3.84119C45.3035 3.66549 45.8503 3.57764 46.5437 3.57764C47.394 3.57764 48.0419 3.7369 48.4872 4.05541C48.9345 4.37112 49.2009 4.87426 49.2864 5.56486L47.3457 5.67902C47.294 5.37929 47.1845 5.16131 47.0173 5.02507C46.8528 4.88883 46.6255 4.82071 46.3351 4.82071C46.0955 4.82071 45.9151 4.87238 45.7939 4.97574C45.6718 5.07627 45.6107 5.19889 45.6107 5.34359C45.6107 5.44976 45.6605 5.54513 45.7601 5.62969C45.8569 5.71801 46.0871 5.80023 46.4507 5.87633C47.3508 6.07083 47.9946 6.26814 48.3821 6.46827C48.773 6.66558 49.0563 6.91129 49.232 7.20538C49.4114 7.49947 49.5012 7.82832 49.5012 8.19194C49.5012 8.61945 49.3828 9.01361 49.146 9.37441C48.9092 9.73521 48.579 10.0095 48.1552 10.1971C47.7324 10.3803 47.1985 10.4719 46.5534 10.4719C45.4203 10.4719 44.6354 10.2539 44.1988 9.81794C43.7619 9.38197 43.5148 8.82762 43.4575 8.15487L43.4685 8.14402ZM50.0347 8.14402L51.9924 8.02141C52.0347 8.33993 52.1206 8.58234 52.2503 8.74865C52.4617 9.01831 52.7647 9.15314 53.1593 9.15314C53.4534 9.15314 53.6789 9.08502 53.8358 8.94878C53.9965 8.80972 54.0768 8.64905 54.0768 8.46677C54.0768 8.29483 54.0007 8.14073 53.8485 8.00449C53.6963 7.86825 53.3449 7.74 52.7943 7.61973C51.8914 7.41678 51.2473 7.14712 50.8621 6.81075C50.474 6.47532 50.28 6.04687 50.28 5.5254C50.28 5.18339 50.3782 4.86111 50.5745 4.55856C50.7747 4.2532 51.073 4.01407 51.4695 3.84119C51.8688 3.66549 52.4157 3.57764 53.11 3.57764C53.9603 3.57764 54.6082 3.7369 55.0535 4.05541C55.5017 4.37112 55.7681 4.87426 55.8527 5.56486L53.9134 5.67761C53.8607 5.37788 53.7513 5.1599 53.585 5.02366C53.4215 4.88742 53.1941 4.8193 52.9028 4.8193C52.6632 4.8193 52.4828 4.87098 52.3616 4.97433C52.2395 5.07487 52.1784 5.19795 52.1784 5.34359C52.1784 5.44976 52.2282 5.54513 52.3278 5.62969C52.4246 5.71801 52.6548 5.80023 53.0184 5.87633C53.9185 6.06989 54.5626 6.26673 54.9507 6.46686C55.3406 6.66417 55.6239 6.90988 55.8005 7.20397C55.979 7.49806 56.0683 7.82691 56.0683 8.19053C56.0683 8.61804 55.9504 9.0122 55.7145 9.373C55.4778 9.7338 55.147 10.0082 54.7223 10.1961C54.2995 10.3803 53.7658 10.4724 53.1213 10.4724C51.9881 10.4724 51.2031 10.2539 50.7662 9.81695C50.3302 9.38099 50.0831 8.82663 50.0249 8.15389L50.0347 8.14402Z" fill="#cbcfd3"/>
</svg>
