<svg width="80" height="40" viewBox="0 0 80 40" fill="none" xmlns="http://www.w3.org/2000/svg">
<g clip-path="url(#clip0_250_2)">
<path d="M79 16.0009V29H74.6124V19.8814H70.3876V29H66V16H79V16.0009Z" fill="#364152"/>
<path fill-rule="evenodd" clip-rule="evenodd" d="M56.5828 28.9996C60.2656 28.9996 63 26.6674 63 23.1323C63 19.7103 60.9825 17.4885 57.6108 17.4885C56.0547 17.4885 54.7707 18.0543 53.8036 19.0305C54.0345 17.0127 55.6864 15.5396 57.5052 15.5396C57.9249 15.5396 61.085 15.5327 61.085 15.5327L62.8716 12C62.8716 12 58.9046 12.0933 57.0603 12.0933C52.8464 12.1695 50 16.1261 50 20.9311C50 26.5299 52.7761 29 56.5832 29L56.5828 28.9996ZM56.6056 20.6172C57.9728 20.6172 58.9207 21.5452 58.9207 23.1319C58.9207 24.5596 58.0785 25.7366 56.6056 25.7398C55.1968 25.7398 54.2489 24.6496 54.2489 23.1562C54.2489 21.5691 55.1968 20.6172 56.6056 20.6172Z" fill="#364152"/>
<path d="M46.1151 24.8986C46.1151 24.8986 45.0523 25.4883 43.4646 25.6C41.6402 25.6521 40.0143 24.5425 40.0143 22.5711C40.0143 20.648 41.4491 19.5459 43.4191 19.5459C44.627 19.5459 46.225 20.3519 46.225 20.3519C46.225 20.3519 47.3943 18.2862 48 17.2531C46.8909 16.4438 45.4136 16 43.6953 16C39.3588 16 36 18.7221 36 22.5467C36 26.4201 39.1569 29.0789 43.6953 28.9982C44.9638 28.9527 46.7139 28.5243 47.7805 27.8646L46.1151 24.8986Z" fill="#364152"/>
<path d="M0.961792 10.7065L5.82517 19.3649V24.6462L0.967481 33.2875L0.961792 10.7065Z" fill="#5B57A2"/>
<path d="M19.6353 16.2145L24.1924 13.4325L33.5189 13.4238L19.6353 21.8952V16.2145Z" fill="#D90751"/>
<path d="M19.6095 10.6557L19.6353 22.119L14.7605 19.1357V2L19.6095 10.6557Z" fill="#FAB718"/>
<path d="M33.5189 13.4237L24.1921 13.4323L19.6095 10.6557L14.7605 2L33.5189 13.4237Z" fill="#ED6F26"/>
<path d="M19.6353 33.3355V27.7738L14.7605 24.8472L14.7632 41.9998L19.6353 33.3355Z" fill="#63B22F"/>
<path d="M24.181 30.5789L5.82483 19.3649L0.961792 10.7065L33.4991 30.5675L24.181 30.5789Z" fill="#1487C9"/>
<path d="M14.7634 42.0002L19.6348 33.3359L24.1806 30.5792L33.4987 30.5679L14.7634 42.0002Z" fill="#017F36"/>
<path d="M0.967529 33.2879L14.8003 24.8479L10.1498 22.0059L5.82522 24.6465L0.967529 33.2879Z" fill="#984995"/>
</g>
<defs>
<clipPath id="clip0_250_2">
<rect width="80" height="40" fill="white"/>
</clipPath>
</defs>
</svg>
