<svg width="12" height="12" viewBox="0 0 12 12" fill="none" xmlns="http://www.w3.org/2000/svg">
<path d="M0.284169 10.3222L3.04305 7.52537C2.5743 6.76888 2.30224 5.87475 2.30224 4.91519C2.30224 2.20045 4.47326 0 7.15122 0C9.82918 0 12 2.20045 12 4.91519C12 7.63003 9.82928 9.83028 7.15122 9.83028C6.12107 9.83028 5.16689 9.5038 4.38173 8.94905L1.65568 11.7126C1.46626 11.9045 1.21794 12 0.969925 12C0.721606 12 0.473591 11.9045 0.283867 11.7126C-0.0946722 11.3285 -0.0946732 10.7063 0.284169 10.3222ZM7.15122 8.23783C8.96128 8.23783 10.4288 6.75035 10.4288 4.91539C10.4288 3.08044 8.96128 1.59286 7.15122 1.59286C5.34106 1.59286 3.87368 3.08044 3.87368 4.91539C3.87368 6.75035 5.34106 8.23783 7.15122 8.23783Z" fill="#C5D4EB"/>
</svg>
