<svg width="39" height="22" viewBox="0 0 39 22" fill="none" xmlns="http://www.w3.org/2000/svg">
<path fill-rule="evenodd" clip-rule="evenodd" d="M33.383 14.2777C33.331 14.699 33.261 15.1056 33.175 15.4937C32.807 15.376 32.399 15.1865 31.81 15.227C31.46 15.2509 31.045 15.3852 31.039 15.7016C31.039 16.0511 31.609 16.2535 31.93 16.4136C32.507 16.6895 33.127 17.0593 33.175 17.808C33.189 18.0605 33.149 18.313 33.056 18.5485C32.964 18.784 32.823 18.997 32.641 19.1731C31.832 19.9384 30.038 20.0175 28.813 19.53C28.89 19.1216 28.958 18.7058 29.021 18.2827C29.496 18.485 30.147 18.7573 30.861 18.669C31.186 18.6285 31.584 18.439 31.573 18.1042C31.56 17.6976 30.798 17.4548 30.415 17.2451C29.97 16.9986 29.464 16.592 29.437 15.9684C29.426 15.582 29.551 15.2041 29.792 14.9013C30.425 14.1158 32.051 13.8362 33.383 14.2795V14.2777Z" fill="#cbcfd3"/>
<path fill-rule="evenodd" clip-rule="evenodd" d="M18.8403 6.33008H20.476L19.469 12.6788H17.8322L18.8403 6.33008Z" fill="#cbcfd3"/>
<path fill-rule="evenodd" clip-rule="evenodd" d="M14.6072 7.59209L14.3551 9.18525H14.8279C15.0555 9.1815 15.2752 9.10069 15.4509 8.95601C15.6267 8.81133 15.7482 8.61133 15.7956 8.38867C15.8135 8.28783 15.8084 8.18424 15.7806 8.08567C15.7528 7.98709 15.7031 7.89608 15.6351 7.81945C15.5672 7.74282 15.4828 7.68257 15.3882 7.64319C15.2937 7.60382 15.1914 7.58635 15.0892 7.59209H14.6072ZM13.1722 6.33008H15.676C17.271 6.33008 17.6849 7.24992 17.5157 8.35372C17.4481 8.7774 17.2537 9.17066 16.9581 9.48166C16.6625 9.79266 16.2797 10.0068 15.86 10.0959L17.4476 12.688H15.3853L14.1951 10.186L13.7996 12.6788H12.1586L13.1667 6.33008H13.1722Z" fill="#cbcfd3"/>
<path fill-rule="evenodd" clip-rule="evenodd" d="M26.3111 6.33008H27.9491L26.9401 12.6788H25.3051L26.3111 6.33008Z" fill="#cbcfd3"/>
<path fill-rule="evenodd" clip-rule="evenodd" d="M29.19 6.33008H32.783L32.564 7.70983H30.609L30.436 8.79524H32.296L32.077 10.175H30.217L30.038 11.299H31.994L31.775 12.6788H28.184L29.19 6.33008Z" fill="#cbcfd3"/>
<path fill-rule="evenodd" clip-rule="evenodd" d="M8.60616 6.33008H12.1991L11.9802 7.70983H10.0246L9.85165 8.79524H11.7116L11.4927 10.175H9.63265L9.45425 11.299H11.4099L11.191 12.6788H7.59985L8.60616 6.33008Z" fill="#cbcfd3"/>
<path fill-rule="evenodd" clip-rule="evenodd" d="M21.716 6.33008H25.347L25.128 7.70983H23.132L22.957 8.79524H24.773L24.554 10.175H22.738L22.341 12.6788H20.707L21.716 6.33008Z" fill="#cbcfd3"/>
<path fill-rule="evenodd" clip-rule="evenodd" d="M35.155 7.70983H35.493C36.744 7.70983 37.233 8.59287 37.097 9.4428C36.913 10.5852 36.096 11.299 35.024 11.299H34.603L35.155 7.70983ZM33.738 6.33008H35.87C38.411 6.33008 38.998 8.25069 38.79 9.50535C38.506 11.299 36.908 12.6788 34.864 12.6788H32.739L33.745 6.33008H33.738Z" fill="#cbcfd3"/>
<path fill-rule="evenodd" clip-rule="evenodd" d="M0.936646 5.46566H3.96294L4.33085 10.0777C6.32505 6.61177 8.35974 3.27645 10.4109 0H11.397C9.22805 4.18525 7.08484 8.39809 5.00974 12.679H2.78745L2.24474 7.59232C2.11044 6.3303 1.85655 5.79496 0.936646 5.65883V5.46566Z" fill="#cbcfd3"/>
<path fill-rule="evenodd" clip-rule="evenodd" d="M2.08276 2.84236L4.66386 3.93696L4.88826 6.81052H5.07776L7.41966 2.8442V2.64551H2.08276V2.84236Z" fill="#cbcfd3"/>
<path fill-rule="evenodd" clip-rule="evenodd" d="M12.6902 14.1655H13.7498L13.3929 16.6674C13.6789 16.374 14.0687 16.2048 14.4783 16.1965C15.3283 16.1965 15.8857 17.0151 15.7348 18.0251C15.584 19.0351 14.7837 19.8685 13.9356 19.8685C13.7511 19.8726 13.5688 19.8278 13.4073 19.7386C13.2457 19.6494 13.1106 19.519 13.0158 19.3607L12.9606 19.7581H11.8954L12.6902 14.1655ZM14.0129 17.2212C14.4048 17.2212 14.6697 17.5891 14.6071 18.0214C14.5829 18.2293 14.4877 18.4225 14.3375 18.5683C14.1874 18.7141 13.9915 18.8036 13.7829 18.8217C13.3929 18.8217 13.1262 18.4538 13.1887 18.0214C13.2129 17.8135 13.3082 17.6204 13.4583 17.4746C13.6085 17.3288 13.8044 17.2393 14.0129 17.2212Z" fill="#cbcfd3"/>
<path fill-rule="evenodd" clip-rule="evenodd" d="M15.827 16.2866H17.0964L17.6649 18.06L18.7687 16.2866H19.9971L16.7745 21.4634H15.5474L16.9051 19.2797L15.827 16.2866Z" fill="#cbcfd3"/>
<path fill-rule="evenodd" clip-rule="evenodd" d="M26.311 19.7488L27.242 14.1709H28.765L27.834 19.7488H26.311Z" fill="#cbcfd3"/>
<path fill-rule="evenodd" clip-rule="evenodd" d="M25.036 14.1655C24.512 15.4017 24.063 16.7153 23.524 17.935L23.364 17.1991L23.392 17.3297C23.267 16.9376 23.072 16.5712 22.818 16.248C22.811 16.239 22.805 16.2304 22.797 16.2222C22.753 16.1652 22.705 16.1082 22.658 16.053L22.569 15.9518C22.193 15.548 21.759 15.2021 21.281 14.9253L22.645 19.7378H24.276C25.036 17.854 25.864 16.0327 26.64 14.1655H25.036Z" fill="#cbcfd3"/>
<path fill-rule="evenodd" clip-rule="evenodd" d="M22.165 14.1653H19.675V14.2867C21.109 14.5663 22.917 15.7676 23.392 17.3222L22.856 14.7172C22.835 14.5536 22.751 14.4048 22.622 14.3019C22.493 14.199 22.329 14.1501 22.165 14.1653Z" fill="#cbcfd3"/>
<path fill-rule="evenodd" clip-rule="evenodd" d="M36.205 15.7036L35.43 17.7788H36.685L36.205 15.7036ZM38.516 19.7675H37.121C37.031 19.5007 37.007 19.1696 36.913 18.9065H35.015L34.66 19.7675H33.057L35.134 14.9843C35.226 14.7746 35.39 14.4876 35.46 14.3607C35.567 14.1767 35.973 14.1528 36.148 14.1528H37.3L38.516 19.7619V19.7675Z" fill="#cbcfd3"/>
</svg>
