<svg width="21" height="21" viewBox="0 0 21 21" fill="none" xmlns="http://www.w3.org/2000/svg">
<path d="M19.0938 8.10391H19.0625C18.8141 8.10241 18.5718 8.02742 18.366 7.88839C18.1603 7.74935 18.0003 7.5525 17.9062 7.32266C17.9063 7.32129 17.906 7.31994 17.9055 7.31868C17.905 7.31743 17.9042 7.31629 17.9032 7.31534C17.9022 7.31439 17.9011 7.31365 17.8998 7.31316C17.8985 7.31267 17.8972 7.31245 17.8958 7.3125C17.8032 7.08337 17.7794 6.83217 17.8276 6.58975C17.8757 6.34733 17.9935 6.12423 18.1667 5.94785L18.1979 5.9166C18.5231 5.59019 18.7057 5.14817 18.7057 4.68738C18.7057 4.22658 18.5231 3.78457 18.1979 3.45815L17.375 2.64585C17.0486 2.32057 16.6066 2.13792 16.1458 2.13792C15.685 2.13792 15.243 2.32057 14.9167 2.64585L14.9062 2.6667C14.7258 2.84042 14.4986 2.95762 14.2524 3.0039C14.0063 3.05017 13.752 3.02349 13.5208 2.92715C13.2877 2.83654 13.0875 2.67766 12.9462 2.47133C12.8049 2.26499 12.7293 2.02081 12.7291 1.77075V1.7395C12.7299 1.51173 12.6857 1.28604 12.5992 1.07533C12.5127 0.864619 12.3856 0.673019 12.225 0.511476C12.0644 0.349933 11.8736 0.221615 11.6634 0.133854C11.4532 0.0460924 11.2278 0.000608155 11 0H9.8333C9.60553 0.000608155 9.38011 0.0460924 9.16992 0.133854C8.95973 0.221615 8.7689 0.349933 8.60832 0.511476C8.44774 0.673019 8.32057 0.864619 8.23407 1.07533C8.14757 1.28604 8.10344 1.51173 8.1042 1.7395V1.77075C8.10405 2.01941 8.0296 2.26236 7.8904 2.46841C7.75119 2.67446 7.55359 2.8342 7.32295 2.92715C7.16566 2.9973 6.99512 3.03277 6.8229 3.03115C6.49117 3.03158 6.1728 2.90053 5.9375 2.6667L5.91665 2.64585C5.59027 2.32057 5.14827 2.13792 4.68748 2.13792C4.22668 2.13792 3.78468 2.32057 3.4583 2.64585L2.63545 3.45815C2.3102 3.78457 2.12758 4.22658 2.12758 4.68738C2.12758 5.14817 2.3102 5.59019 2.63545 5.9166L2.66665 5.94785C2.84128 6.12547 2.9597 6.3506 3.00712 6.59513C3.05455 6.83966 3.02887 7.09274 2.9333 7.32276C2.83773 7.55278 2.67651 7.74954 2.46976 7.88847C2.26302 8.0274 2.01993 8.10233 1.77085 8.10391H1.73955C1.27841 8.10474 0.836398 8.28832 0.510343 8.61442C0.184289 8.94052 0.000774462 9.38256 0 9.8437V11C0.000839026 11.4611 0.184384 11.9031 0.510432 12.2292C0.836481 12.5552 1.27846 12.7387 1.73955 12.7396H1.77085C2.01997 12.7376 2.26384 12.8112 2.47026 12.9506C2.67668 13.0901 2.83596 13.2889 2.92705 13.5208C3.11455 13.9896 3.02085 14.5521 2.66665 14.9063L2.6458 14.9165C2.3205 15.245 2.13802 15.6886 2.13802 16.1509C2.13802 16.6132 2.3205 17.0568 2.6458 17.3854L3.4583 18.1979C3.78474 18.523 4.22672 18.7056 4.68748 18.7056C5.14823 18.7056 5.59021 18.523 5.91665 18.1979L5.9375 18.177C6.11144 18 6.33465 17.8795 6.57805 17.8312C6.82145 17.7829 7.07375 17.809 7.3021 17.9062C7.53697 17.9984 7.73886 18.1589 7.8818 18.3669C8.02474 18.5748 8.10219 18.8208 8.1042 19.0731V19.1042C8.10364 19.3314 8.14798 19.5565 8.23467 19.7666C8.32137 19.9766 8.44871 20.1675 8.60938 20.3282C8.77005 20.4889 8.96089 20.6162 9.17093 20.7029C9.38096 20.7897 9.60606 20.834 9.8333 20.8335H11C11.2272 20.834 11.4523 20.7897 11.6624 20.7029C11.8724 20.6162 12.0632 20.4889 12.2239 20.3282C12.3846 20.1675 12.5119 19.9766 12.5986 19.7666C12.6853 19.5565 12.7297 19.3314 12.7291 19.1042V19.0731C12.7311 18.8208 12.8086 18.5748 12.9515 18.3669C13.0944 18.1589 13.2963 17.9984 13.5312 17.9062C13.7595 17.809 14.0119 17.7829 14.2553 17.8312C14.4987 17.8795 14.7219 18 14.8958 18.177L14.9167 18.1979C15.2431 18.523 15.6851 18.7056 16.1458 18.7056C16.6066 18.7056 17.0486 18.523 17.375 18.1979L18.1875 17.3854C18.5128 17.0568 18.6953 16.6132 18.6953 16.1509C18.6953 15.6886 18.5128 15.245 18.1875 14.9165L18.1667 14.9063C17.8125 14.5521 17.7188 13.9895 17.9062 13.5208C17.9973 13.2889 18.1566 13.0901 18.363 12.9506C18.5695 12.8112 18.8133 12.7376 19.0625 12.7396H19.0938C19.5548 12.7387 19.9968 12.5552 20.3229 12.2292C20.6489 11.9031 20.8325 11.4611 20.8333 11V9.8437C20.8325 9.38256 20.649 8.94052 20.323 8.61442C19.9969 8.28832 19.5549 8.10474 19.0938 8.10391ZM10.4167 14.0625C9.69557 14.0625 8.99068 13.8487 8.39113 13.4481C7.79157 13.0475 7.32427 12.478 7.04833 11.8119C6.77238 11.1457 6.70018 10.4126 6.84085 9.70538C6.98153 8.99816 7.32876 8.34853 7.83865 7.83865C8.34853 7.32876 8.99816 6.98153 9.70538 6.84085C10.4126 6.70018 11.1457 6.77238 11.8119 7.04833C12.478 7.32427 13.0475 7.79157 13.4481 8.39113C13.8487 8.99068 14.0625 9.69557 14.0625 10.4167C14.0614 11.3833 13.677 12.31 12.9935 12.9935C12.31 13.677 11.3833 14.0614 10.4167 14.0625Z" fill="currentColor"/>
</svg>
