<svg width="21" height="21" viewBox="0 0 21 21" fill="none" xmlns="http://www.w3.org/2000/svg">
<path d="M6.23742 11.5441C6.95317 12.2528 7.8972 12.6442 8.89466 12.6442C9.0184 12.6442 9.14168 12.6381 9.26402 12.6259C9.32495 12.6198 9.38589 12.6123 9.44635 12.6034C9.50682 12.5945 9.56682 12.5837 9.62682 12.572C10.0745 12.4824 10.5019 12.3109 10.891 12.0648C10.8915 12.0643 10.8915 12.0648 10.8915 12.0648C10.9688 12.0156 11.0452 11.9636 11.1197 11.9083C11.2688 11.7976 11.4113 11.6758 11.5458 11.5427C13.0068 10.0793 13.0068 7.69964 11.5444 6.23724C11.4999 6.19318 11.4549 6.15053 11.4085 6.10881C11.3625 6.06756 11.3157 6.02725 11.2678 5.98835C11.22 5.94944 11.1713 5.91148 11.1216 5.87492C11.0475 5.82008 10.9716 5.76852 10.8943 5.71977C10.868 5.70384 10.8422 5.6879 10.816 5.67196C10.4494 5.45307 10.0491 5.29933 9.62963 5.21637C9.53963 5.19856 9.4487 5.18403 9.3573 5.17278C9.20496 5.15403 9.05028 5.14466 8.89466 5.14466C8.7381 5.14466 8.58295 5.15403 8.42968 5.17278C8.3378 5.18403 8.2464 5.19856 8.1564 5.21637C8.06594 5.23418 7.97688 5.25527 7.88829 5.27965C7.85876 5.28761 7.8297 5.29605 7.80017 5.30496C7.71298 5.3312 7.62627 5.36073 7.54096 5.39355C7.42706 5.43714 7.3155 5.48635 7.20675 5.54072C7.04317 5.62228 6.8852 5.71649 6.73427 5.82242C6.68365 5.85758 6.63443 5.89414 6.58522 5.9321C6.53647 5.9696 6.48866 6.00897 6.44131 6.04928C6.39444 6.08959 6.34804 6.13131 6.30257 6.17443C6.2796 6.19552 6.25757 6.21755 6.23507 6.23958C4.77497 7.70058 4.77497 10.0807 6.23742 11.5441ZM20.9964 18.2575C21.0353 18.9915 20.7592 19.7134 20.2408 20.2365C19.7458 20.7272 19.0807 21 18.394 21C17.6154 21.0009 16.8669 20.6447 16.3747 20.0401L13.447 16.5242C12.0333 17.3716 10.4569 17.7888 8.88856 17.7888C6.60209 17.7888 4.33108 16.9029 2.60474 15.1766C0.924808 13.4977 0 11.2652 0 8.89065C0 6.51613 0.924808 4.28362 2.60474 2.60467C4.28374 0.924782 6.51631 0 8.89091 0C11.2655 0 13.4981 0.924782 15.1771 2.60514C18.1034 5.53182 18.6129 9.99917 16.5045 13.4738L20.0416 16.3761C20.6092 16.8387 20.957 17.5249 20.9964 18.2575Z" fill="currentColor"/>
</svg>
