<svg width="19" height="21" viewBox="0 0 19 21" fill="none" xmlns="http://www.w3.org/2000/svg">
<path fill-rule="evenodd" clip-rule="evenodd" d="M0.606949 16.2862C2.51744 19.1268 5.79358 21 9.50929 21C13.2293 21 16.5054 19.124 18.4003 16.2708C18.9835 15.4196 19.1514 14.357 18.8597 13.3714C18.5681 12.383 17.8455 11.5738 16.8852 11.1636C16.8795 11.1608 16.8739 11.158 16.8682 11.1552C14.7016 10.2942 12.188 9.8 9.50929 9.8C6.83205 9.8 4.32124 10.2942 2.149 11.1356C2.14046 11.1384 2.13335 11.1426 2.12482 11.1454C1.16032 11.5584 0.433399 12.3718 0.140353 13.3658C-0.152693 14.3598 0.0180119 15.4294 0.606949 16.2862ZM9.50929 0C6.9615 0 4.89168 2.037 4.89168 4.5444C4.89168 7.0532 6.9615 9.0888 9.50929 9.0888C12.0585 9.0888 14.1269 7.0532 14.1269 4.5444C14.1269 2.037 12.0585 0 9.50929 0Z" fill="currentColor"/>
</svg>
