<svg width="26" height="15" viewBox="0 0 26 15" fill="none" xmlns="http://www.w3.org/2000/svg">
<path d="M25.7723 13.4747C25.7192 13.3669 25.2944 12.3967 23.1703 10.4564C20.9931 8.40822 21.2586 8.73161 23.9137 5.17429C25.5068 3.01833 26.144 1.67086 25.9316 1.13188C25.7192 0.592887 24.5509 0.754584 24.5509 0.754584H20.6214C20.6214 0.754584 20.3559 0.700685 20.0904 0.862381C19.8779 0.970179 19.7717 1.29357 19.7717 1.29357C19.7717 1.29357 19.1876 2.91054 18.3911 4.31191C16.6387 7.33024 15.9484 7.49194 15.6829 7.27634C15.0456 6.84515 15.2049 5.55158 15.2049 4.5814C15.2049 1.67086 15.6298 0.431191 14.3553 0.161697C13.8774 0.107798 13.5588 0 12.4967 0C11.1161 0 9.89472 0 9.25749 0.323393C8.77957 0.538988 8.46096 1.07798 8.67337 1.07798C8.93888 1.13188 9.523 1.23967 9.84162 1.67086C10.2664 2.20985 10.2133 3.44953 10.2133 3.44953C10.2133 3.44953 10.4257 6.89905 9.68231 7.33024C9.15129 7.59974 8.40786 7.00685 6.86789 4.31191C6.07136 2.91054 5.48723 1.34747 5.48723 1.34747C5.48723 1.34747 5.32793 1.07798 5.11552 0.91628C4.90311 0.700685 4.53139 0.646786 4.53139 0.646786H0.814234C0.814234 0.646786 0.23011 0.646786 0.070803 0.91628C-0.0885037 1.13188 0.070803 1.56307 0.070803 1.56307C0.070803 1.56307 2.99143 8.46212 6.28377 11.9655C9.31059 15.1456 12.7622 14.93 12.7622 14.93H14.3022C14.3022 14.93 14.7801 14.8761 14.9925 14.6066C15.2049 14.391 15.2049 13.9059 15.2049 13.9059C15.2049 13.9059 15.1518 11.8038 16.1608 11.4805C17.1166 11.1571 18.338 13.5286 19.6655 14.4449C20.6214 15.1456 21.4179 14.9839 21.4179 14.9839L24.8696 14.93C24.8165 15.0378 26.6219 14.93 25.7723 13.4747Z" fill="#428AE7"/>
</svg>
