<svg width="20" height="15" viewBox="0 0 20 15" fill="none" xmlns="http://www.w3.org/2000/svg">
<path fill-rule="evenodd" clip-rule="evenodd" d="M4.53316 5.05785C4.03516 4.55155 3.35973 4.26712 2.65543 4.26712C1.95113 4.26712 1.2757 4.55159 0.777695 5.05793C-0.259258 6.11219 -0.259219 7.82148 0.777734 8.87574C2.27766 10.4007 4.52371 12.6843 6.02367 14.2092C6.52164 14.7155 7.19707 15 7.90137 15C8.60562 15 9.28109 14.7156 9.77906 14.2093L19.2222 4.60889C20.2592 3.55471 20.2593 1.84554 19.2225 0.791202C18.7245 0.284822 18.0487 3.97172e-05 17.3444 4.15816e-09C16.6401 -3.97088e-05 15.9646 0.284385 15.4666 0.790726L8.12203 8.25756C8.06348 8.31709 7.98406 8.35057 7.90125 8.35057C7.81844 8.35057 7.73902 8.31709 7.68047 8.25756L4.53316 5.05785Z" fill="white"/>
</svg>
