<svg width="38" height="38" viewBox="0 0 38 38" fill="none" xmlns="http://www.w3.org/2000/svg">
<path d="M19 38C29.4907 38 38 29.4907 38 19C38 8.50926 29.4907 0 19 0C8.50926 0 0 8.50926 0 19C0 29.4907 8.50926 38 19 38ZM17.6428 8.14287C17.6428 7.39642 18.2535 6.78569 19 6.78569C19.7465 6.78569 20.3572 7.39642 20.3572 8.14287V18.3486L26.634 23.37C27.2176 23.8382 27.3125 24.6932 26.8443 25.2768C26.5796 25.6093 26.1861 25.7857 25.7857 25.7857C25.4871 25.7857 25.1885 25.6906 24.9375 25.4871L18.1518 20.0586C17.8329 19.8007 17.6429 19.414 17.6429 19V8.14287H17.6428Z" fill="#9FBAE2"/>
</svg>
