<svg width="23" height="22" viewBox="0 0 23 22" fill="none" xmlns="http://www.w3.org/2000/svg">
<path d="M3.46674 13.5317C3.8444 13.0986 4.01434 12.5152 3.93377 11.931C3.86455 11.4294 3.84942 10.9164 3.88844 10.4053C4.15029 6.94281 7.07335 4.07514 10.5428 3.87684C12.6677 3.75661 14.7197 4.59438 16.1522 6.13714L15.6575 6.63249C15.4724 6.81691 15.4183 7.09385 15.5178 7.33495C15.6172 7.57605 15.8526 7.73275 16.1132 7.73275H19.9804C20.3367 7.73275 20.6249 7.44447 20.6249 7.08822V3.221C20.6249 2.96044 20.4676 2.72501 20.2271 2.62558C19.988 2.52426 19.7097 2.58089 19.5247 2.76531L18.8915 3.39851C16.4733 0.85813 13.0026 -0.368637 9.46772 0.0971476C4.7067 0.725313 0.770259 4.63155 0.109351 9.38565C-0.0366575 10.4387 -0.0366575 11.4942 0.110598 12.5246C0.246552 13.4669 1.06735 14.1781 2.04296 14.1781C2.59812 14.1781 3.10417 13.9484 3.46674 13.5317ZM20.0589 9.10777C18.9825 9.10777 18.1366 9.96882 18.1328 11.0672C18.1303 11.5871 18.0724 12.1095 17.9616 12.6219C17.3863 15.2825 15.2022 17.4358 12.5284 17.9802C10.6577 18.361 8.8072 18.0249 7.25253 17.0323L7.63143 16.6534C7.8165 16.469 7.8706 16.192 7.77117 15.9509C7.67174 15.7098 7.43631 15.5531 7.17575 15.5531H3.30853C2.95227 15.5531 2.66399 15.8414 2.66399 16.1977V20.0649C2.66399 20.3254 2.82134 20.5609 3.0618 20.6603C3.30097 20.761 3.58044 20.7043 3.76426 20.5206L4.47299 19.8118C6.38142 21.2469 8.64989 21.9997 11.0266 21.9997C16.7985 21.9997 21.2826 17.5664 21.9145 12.4249C21.9724 11.9559 22.0001 11.4927 22.0001 11.0351C22 9.9726 21.1289 9.10777 20.0589 9.10777Z" fill="#C5D4EB"/>
<path fill-rule="evenodd" clip-rule="evenodd" d="M7.53316 8.05785C7.03516 7.55155 6.35973 7.26712 5.65543 7.26712C4.95113 7.26712 4.2757 7.55159 3.7777 8.05793C2.74074 9.11219 2.74078 10.8215 3.77773 11.8757C5.27766 13.4007 7.52371 15.6843 9.02367 17.2092C9.52164 17.7155 10.1971 18 10.9014 18C11.6056 18 12.2811 17.7156 12.7791 17.2093L22.2222 7.60889C23.2592 6.55471 23.2593 4.84554 22.2225 3.7912C21.7245 3.28482 21.0487 3.00004 20.3444 3C19.6401 2.99996 18.9646 3.28438 18.4666 3.79073L11.122 11.2576C11.0635 11.3171 10.9841 11.3506 10.9012 11.3506C10.8184 11.3506 10.739 11.3171 10.6805 11.2576L7.53316 8.05785Z" fill="#C5D4EB"/>
</svg>
