<svg width="16" height="17" viewBox="0 0 16 17" fill="none" xmlns="http://www.w3.org/2000/svg">
<path d="M8 8.81828C10.3621 8.81828 12.2831 6.40296 12.2831 4.12741C12.2831 1.85168 10.3621 0 8 0C5.63831 0 3.71692 1.85149 3.71692 4.12722C3.71711 6.40296 5.6385 8.81828 8 8.81828Z" fill="#C5D4EB"/>
<path d="M11.2156 8.8604C10.3846 9.47032 9.34817 9.83337 8.22545 9.83337H7.77455C6.65183 9.83337 5.61517 9.47032 4.78436 8.8604C2.07155 9.28294 0 11.5487 0 14.2815C0 15.7828 3.58165 17 8 17C12.4184 17 16 15.7828 16 14.2815C16 11.5487 13.9283 9.28294 11.2156 8.8604Z" fill="#C5D4EB"/>
</svg>
