<svg width="2000" height="1000" viewBox="0 0 2000 1000" fill="none" xmlns="http://www.w3.org/2000/svg">
<g clip-path="url(#clip0_59_21)">
<path d="M1975 400.022V725H1865.31V497.035H1759.69V725H1650V400H1975V400.022Z" fill="white"/>
<path fill-rule="evenodd" clip-rule="evenodd" d="M1414.57 724.99C1506.64 724.99 1575 666.686 1575 578.307C1575 492.758 1524.56 437.212 1440.27 437.212C1401.37 437.212 1369.27 451.357 1345.09 475.763C1350.86 425.318 1392.16 388.49 1437.63 388.49C1448.12 388.49 1527.13 388.318 1527.13 388.318L1571.79 300C1571.79 300 1472.62 302.332 1426.51 302.332C1321.16 304.238 1250 403.152 1250 523.279C1250 663.249 1319.4 725 1414.58 725L1414.57 724.99ZM1415.14 515.43C1449.32 515.43 1473.02 538.63 1473.02 578.297C1473.02 613.989 1451.96 643.415 1415.14 643.496C1379.92 643.496 1356.22 616.24 1356.22 578.906C1356.22 539.229 1379.92 515.43 1415.14 515.43Z" fill="white"/>
<path d="M1152.88 622.465C1152.88 622.465 1126.31 637.208 1086.62 640C1041.01 641.302 1000.36 613.563 1000.36 564.277C1000.36 516.2 1036.23 488.647 1085.48 488.647C1115.68 488.647 1155.63 508.798 1155.63 508.798C1155.63 508.798 1184.86 457.154 1200 431.327C1172.27 411.094 1135.34 400 1092.38 400C983.97 400 900 468.051 900 563.667C900 660.502 978.922 726.971 1092.38 724.955C1124.1 723.818 1167.85 713.107 1194.51 696.616L1152.88 622.465Z" fill="white"/>
<path d="M24.0449 267.664L145.629 484.122V616.155L24.1872 832.188L24.0449 267.664Z" fill="#5B57A2"/>
<path d="M490.881 405.362L604.81 335.812L837.972 335.596L490.881 547.379V405.362Z" fill="#D90751"/>
<path d="M490.237 266.392L490.881 552.975L369.012 478.392V50L490.237 266.392Z" fill="#FAB718"/>
<path d="M837.972 335.592L604.802 335.808L490.237 266.392L369.012 50L837.972 335.592Z" fill="#ED6F26"/>
<path d="M490.881 833.388V694.346L369.012 621.179L369.079 1050L490.881 833.388Z" fill="#63B22F"/>
<path d="M604.524 764.472L145.621 484.122L24.0449 267.664L837.477 764.189L604.524 764.472Z" fill="#1487C9"/>
<path d="M369.086 1050.01L490.871 833.397L604.515 764.48L837.468 764.197L369.086 1050.01Z" fill="#017F36"/>
<path d="M24.1882 832.197L370.008 621.196L253.744 550.146L145.63 616.163L24.1882 832.197Z" fill="#984995"/>
</g>
<defs>
<clipPath id="clip0_59_21">
<rect width="2000" height="1000" fill="white"/>
</clipPath>
</defs>
</svg>
