<svg width="1919" height="988" viewBox="0 0 1919 988" fill="none" xmlns="http://www.w3.org/2000/svg">
<path d="M515.152 933.15H295.86V529.834H515.156L515.152 933.15Z" fill="#C85343"/>
<path d="M309.763 731.5C309.763 649.687 347.194 576.808 405.482 529.842C361.361 494.239 306.791 474.915 250.604 475C112.196 475 0 589.837 0 731.5C0 873.163 112.196 988 250.604 988C306.792 988.086 361.364 968.762 405.486 933.158C347.202 886.2 309.763 813.317 309.763 731.5Z" fill="#C85343"/>
<path d="M811 731.5C811 873.163 698.804 988 560.396 988C504.202 988.084 449.616 968.761 405.486 933.158C463.789 886.192 501.229 813.317 501.229 731.5C501.229 649.683 463.785 576.808 405.482 529.842C449.611 494.24 504.199 474.917 560.392 475C698.8 475 811 589.837 811 731.5Z" fill="#F79E1B"/>
<path d="M1337.21 901.583H1253.41L1305.79 587.61H1389.6L1337.21 901.583ZM1182.91 587.61L1103.02 803.563L1093.57 757.06L1093.58 757.077L1065.38 615.88C1065.38 615.88 1061.97 587.61 1025.63 587.61H893.55L892 592.927C892 592.927 932.389 601.124 979.658 628.814L1052.46 901.591H1139.78L1273.1 587.61H1182.91ZM1842.05 901.583H1919L1851.91 587.602H1784.55C1753.44 587.602 1745.86 611 1745.86 611L1620.88 901.583H1708.24L1725.71 854.946H1832.24L1842.05 901.583ZM1749.84 790.52L1793.87 673.024L1818.64 790.52H1749.84ZM1627.43 663.113L1639.39 595.69C1639.39 595.69 1602.49 582 1564.02 582C1522.43 582 1423.68 599.729 1423.68 685.941C1423.68 767.054 1539.58 768.062 1539.58 810.668C1539.58 853.274 1435.62 845.64 1401.31 818.773L1388.85 889.271C1388.85 889.271 1426.27 907 1483.44 907C1540.63 907 1626.9 878.117 1626.9 799.507C1626.9 717.872 1509.95 710.272 1509.95 674.779C1509.96 639.278 1591.57 643.839 1627.43 663.113Z" fill="white"/>
<path d="M1093.58 757.077L1065.38 615.88C1065.38 615.88 1061.97 587.61 1025.63 587.61H893.55L892 592.927C892 592.927 955.481 605.752 1016.37 653.834C1074.59 699.791 1093.58 757.077 1093.58 757.077Z" fill="#E6A540"/>
<path fill-rule="evenodd" clip-rule="evenodd" d="M716.955 6.83028e-06V0.156775C716.799 0.156775 667.388 5.98025e-06 654.211 47.1873C642.133 90.4555 608.094 209.913 607.153 213.205H597.742C597.742 213.205 562.919 91.0825 550.684 47.0306C537.507 -0.156763 487.939 6.83028e-06 487.939 6.83028e-06H375V359H487.939V145.795H492.645H497.351L563.232 359H641.663L707.544 145.952H716.955V359H829.895V6.83028e-06H716.955Z" fill="#01A86C"/>
<path fill-rule="evenodd" clip-rule="evenodd" d="M1129.5 0C1129.5 0 1096.4 2.9786 1080.87 37.6245L1000.87 213.205H991.461V0H878.521V359H985.187C985.187 359 1019.85 355.865 1035.38 321.376L1113.81 145.795H1123.22V359H1236.16V0H1129.5Z" fill="#01A86C"/>
<path fill-rule="evenodd" clip-rule="evenodd" d="M1286.36 163.039V359H1399.3V244.559H1521.65C1574.98 244.559 1620.16 210.54 1636.94 163.039H1286.36Z" fill="#01A86C"/>
<path fill-rule="evenodd" clip-rule="evenodd" d="M1521.65 0H1270.52C1283.06 68.3511 1334.36 123.22 1400.71 141.092C1415.77 145.168 1431.61 147.362 1447.92 147.362H1641.49C1643.22 139.21 1644 130.902 1644 122.279C1644 54.7122 1589.26 0 1521.65 0Z" fill="url(#paint0_linear_59_42)"/>
<defs>
<linearGradient id="paint0_linear_59_42" x1="1270.55" y1="73.6812" x2="1644" y2="73.6812" gradientUnits="userSpaceOnUse">
<stop offset="0.3" stop-color="#00B4E6"/>
<stop offset="1" stop-color="#088CCB"/>
</linearGradient>
</defs>
</svg>
