<svg width="1649" height="694" viewBox="0 0 1649 694" fill="none" xmlns="http://www.w3.org/2000/svg">
<mask id="mask0_65_74" style="mask-type:luminance" maskUnits="userSpaceOnUse" x="0" y="0" width="675" height="694">
<path d="M674.691 0H0V694H674.691V0Z" fill="white"/>
</mask>
<g mask="url(#mask0_65_74)">
<path d="M0 9.68848H670.491V351.181C670.491 438.749 623.843 519.483 547.997 563.432L335.246 688.765L122.718 563.432C46.8738 519.811 0.325508 438.749 0.325508 351.181V9.68848H0Z" fill="#E7BB0B"/>
<path fill-rule="evenodd" clip-rule="evenodd" d="M180.517 189.388V295.512C195.165 279.236 221.531 268.167 251.478 268.167H284.355V391.548C284.355 424.425 275.567 453.073 262.221 469.024H408.226C394.881 453.073 386.822 424.425 386.822 391.548V268.167H418.799C449.072 268.167 475.651 279.236 489.974 295.512V189.388H180.517Z" fill="#333333"/>
</g>
<path d="M914.5 128C983.5 128 1037 181.5 1037 248C1037 314.5 983.5 368 914.5 368H862V478H782V128H914.5ZM914.5 293C939 293 957 273.5 957 248C957 222.5 939 203 914.5 203H862V293H914.5ZM1264.27 478L1246.77 423H1116.77L1099.27 478H1011.77L1130.77 128H1232.77L1351.77 478H1264.27ZM1140.77 348H1222.77L1181.77 219.5L1140.77 348ZM1621.69 128L1504.19 343.5V478H1424.19V343.5L1306.69 128H1397.69L1464.19 263L1530.69 128H1621.69Z" fill="white"/>
</svg>
