<svg width="2039" height="1000" viewBox="0 0 2039 1000" fill="none" xmlns="http://www.w3.org/2000/svg">
<path d="M1304.5 322C1373.5 322 1427 375.5 1427 442C1427 508.5 1373.5 562 1304.5 562H1252V672H1172V322H1304.5ZM1304.5 487C1329 487 1347 467.5 1347 442C1347 416.5 1329 397 1304.5 397H1252V487H1304.5ZM1654.27 672L1636.77 617H1506.77L1489.27 672H1401.77L1520.77 322H1622.77L1741.77 672H1654.27ZM1530.77 542H1612.77L1571.77 413.5L1530.77 542ZM2011.69 322L1894.19 537.5V672H1814.19V537.5L1696.69 322H1787.69L1854.19 457L1920.69 322H2011.69Z" fill="white"/>
<circle cx="500" cy="500" r="500" fill="#C85343"/>
<path d="M582.6 516V303.2H533C496.2 303.2 467.667 312 447.4 329.6C427.133 347.2 417 374.4 417 411.2C417 443.2 426.067 468.8 444.2 488C462.867 506.667 491.133 516 529 516H582.6ZM582.6 595.2H511.4L391.4 780H257.8L401.8 569.6C366.6 555.733 339.667 535.467 321 508.8C302.333 481.6 293 450.4 293 415.2C293 351.733 314.333 304 357 272C399.667 240 457.8 224 531.4 224H703.4V780H582.6V595.2Z" fill="white"/>
</svg>
