<svg width="7" height="10" viewBox="0 0 7 10" fill="none" xmlns="http://www.w3.org/2000/svg">
<path d="M6.73608 5.5777L2.08876 9.75612C1.91761 9.91873 1.7039 10 1.44719 10C1.19048 10 0.97677 9.91864 0.805624 9.75612L0.263897 9.27467C0.0880324 9.11634 9.98117e-05 8.92387 9.98117e-05 8.69709C9.98117e-05 8.47459 0.0880074 8.27984 0.263897 8.113L3.7281 4.99998L0.263748 1.88054C0.0879326 1.72221 0 1.52975 0 1.30294C0 1.08046 0.0879076 0.885644 0.263748 0.718879L0.805524 0.237491C0.981364 0.0791559 1.1953 0 1.44709 0C1.69898 0 1.91287 0.0791559 2.08866 0.237491L6.73608 4.41592C6.91199 4.5828 7 4.7775 7 5C7.00002 5.22679 6.91199 5.41936 6.73608 5.5777Z" fill="#364152"/>
</svg>
