<svg width="18" height="18" viewBox="0 0 18 18" fill="none" xmlns="http://www.w3.org/2000/svg">
<path d="M18 12.15C18 9.216 15.84 6.795 13.032 6.372V6.426C12.753 9.918 9.91804 12.753 6.39904 13.032H6.37204C6.79504 15.84 9.21604 18 12.15 18C15.381 18 18 15.381 18 12.15Z" fill="#364152"/>
<path d="M11.6819 6.318C11.4569 9.171 9.17095 11.457 6.31797 11.682C6.16497 11.691 6.00297 11.7 5.84997 11.7C2.61899 11.7 0 9.081 0 5.85C0 2.619 2.61899 0 5.84997 0C9.08095 0 11.6999 2.619 11.6999 5.85C11.6999 6.003 11.6909 6.165 11.6819 6.318ZM6.64197 5.058L5.84997 3.6L5.05797 5.058L3.59998 5.85L5.05797 6.642L5.84997 8.1L6.64197 6.642L8.09996 5.85L6.64197 5.058Z" fill="#364152"/>
</svg>
