<svg width="18" height="18" viewBox="0 0 18 18" fill="none" xmlns="http://www.w3.org/2000/svg">
<path d="M13.425 0H4.575C2.1 0 0 2.1 0 4.575V13.425C0 15.975 2.1 18 4.575 18H13.425C15.975 18 18 15.9 18 13.425V4.575C18 2.1 15.975 0 13.425 0ZM4.425 7.875C3.675 7.35 3.525 6.375 3.975 5.625C4.5 4.875 5.475 4.725 6.225 5.175C6.975 5.7 7.125 6.675 6.675 7.425C6.15 8.175 5.175 8.325 4.425 7.875ZM5.4 14.325C5.025 14.1 4.95 13.65 5.175 13.275L11.4 4.05C11.625 3.675 12.075 3.6 12.45 3.825C12.825 4.05 12.9 4.5 12.675 4.875L6.45 14.1C6.225 14.475 5.775 14.55 5.4 14.325ZM14.025 12.375C13.5 13.125 12.525 13.275 11.775 12.825C11.025 12.375 10.875 11.325 11.325 10.575C11.85 9.825 12.825 9.675 13.575 10.125C14.325 10.575 14.475 11.625 14.025 12.375Z" fill="#364152"/>
</svg>
