<svg width="22" height="22" viewBox="0 0 22 22" fill="none" xmlns="http://www.w3.org/2000/svg">
<path fill-rule="evenodd" clip-rule="evenodd" d="M10.9936 22C4.93615 22 0 17.0639 0 10.9936C0 4.93615 4.93615 0 10.9936 0C17.0639 0 22 4.93615 22 10.9936C22 17.0639 17.0639 22 10.9936 22Z" fill="url(#paint0_linear_2047_3)"/>
<path d="M14.5597 12.4139C14.8418 12.6989 15 13.0839 15 13.4852C15 13.8864 14.8418 14.2714 14.5597 14.5565C14.2759 14.8405 13.891 15 13.4897 15C13.0884 15 12.7035 14.8405 12.4196 14.5565L11 13.1352L9.58039 14.5565C9.29198 14.8317 8.9088 14.9853 8.51034 14.9853C8.11187 14.9853 7.72869 14.8317 7.44029 14.5565C7.15823 14.2714 7 13.8864 7 13.4852C7 13.0839 7.15823 12.6989 7.44029 12.4139L8.8599 10.9926L7.44029 9.57136C7.15823 9.28632 7 8.90131 7 8.50008C7 8.09884 7.15823 7.71383 7.44029 7.42879C7.72871 7.15354 8.11188 7 8.51034 7C8.9088 7 9.29197 7.15354 9.58039 7.42879L11 8.85005L12.4196 7.42879C12.708 7.15354 13.0912 7 13.4897 7C13.8881 7 14.2713 7.15354 14.5597 7.42879C14.8418 7.71383 15 8.09884 15 8.50008C15 8.90131 14.8418 9.28632 14.5597 9.57136L13.1401 10.9926L14.5597 12.4139Z" fill="#E6E6F8"/>
<defs>
<linearGradient id="paint0_linear_2047_3" x1="16.0778" y1="-58.4375" x2="55.088" y2="-43.3114" gradientUnits="userSpaceOnUse">
<stop offset="1" stop-color="#C85343"/>
<stop offset="1" stop-color="#C85343"/>
</linearGradient>
</defs>
</svg>
