<svg width="676" height="812" viewBox="0 0 676 812" fill="none" xmlns="http://www.w3.org/2000/svg">
<g filter="url(#filter0_d_360_433)">
<path d="M418.825 529.751C411.893 529.751 404.961 535.86 404.961 556.324C404.961 576.787 411.893 582.897 418.825 582.897C425.757 582.897 432.689 576.787 432.689 556.324C432.689 535.859 425.757 529.751 418.825 529.751Z" fill="#E6E6F8"/>
<path d="M257.178 428.959C250.246 428.959 243.314 435.068 243.314 455.532C243.314 475.995 250.246 482.105 257.178 482.105C264.11 482.105 271.042 475.995 271.042 455.532C271.042 435.068 264.11 428.959 257.178 428.959Z" fill="#E6E6F8"/>
<path d="M577.855 285.684C508.403 211.332 467.13 145.879 444.732 104.063C420.476 58.7692 412.527 30.683 412.466 30.4595L407.067 10.6726C406.105 7.15058 402.248 5.29601 398.897 6.7448L379.458 15.1491C376.445 16.4514 305.196 47.9461 265.274 125.338C245.234 164.19 241.226 207.447 241.394 236.891C241.492 254.027 228.966 268.906 211.613 272.269C199.446 274.625 186.931 270.959 178.149 262.447L135.011 220.633C132.414 218.116 128.197 218.451 126.03 221.347L113.591 237.973C111.876 240.265 71.4944 294.248 64.1428 305.034C28.2432 357.709 9.524 419.07 10.0092 482.483C10.6593 567.176 45.0201 646.524 106.761 705.912C168.5 765.296 250.622 798 338.002 798C518.861 797.998 666 655.376 666 480.068C666.002 416.506 633.873 345.656 577.855 285.684ZM418.825 615.881C385.425 615.881 360.215 594.502 360.215 556.324C360.215 518.451 385.423 496.765 418.825 496.765C452.226 496.765 477.434 518.45 477.434 556.324C477.434 594.502 452.225 615.881 418.825 615.881ZM384.892 401.572C386.016 399.976 387.846 399.027 389.797 399.027H428.37C433.232 399.027 436.075 404.508 433.275 408.483L291.11 610.282C289.986 611.878 288.157 612.827 286.205 612.827H247.633C242.77 612.827 239.927 607.346 242.728 603.371L384.892 401.572ZM198.57 455.532C198.57 417.659 223.778 395.974 257.18 395.974C290.581 395.974 315.789 417.659 315.789 455.532C315.789 493.71 290.581 515.091 257.18 515.091C223.778 515.091 198.57 493.71 198.57 455.532Z" fill="#E6E6F8"/>
</g>
<defs>
<filter id="filter0_d_360_433" x="0" y="0.249512" width="676" height="811.75" filterUnits="userSpaceOnUse" color-interpolation-filters="sRGB">
<feFlood flood-opacity="0" result="BackgroundImageFix"/>
<feColorMatrix in="SourceAlpha" type="matrix" values="0 0 0 0 0 0 0 0 0 0 0 0 0 0 0 0 0 0 127 0" result="hardAlpha"/>
<feOffset dy="4"/>
<feGaussianBlur stdDeviation="5"/>
<feComposite in2="hardAlpha" operator="out"/>
<feColorMatrix type="matrix" values="0 0 0 0 0 0 0 0 0 0 0 0 0 0 0 0 0 0 0.25 0"/>
<feBlend mode="normal" in2="BackgroundImageFix" result="effect1_dropShadow_360_433"/>
<feBlend mode="normal" in="SourceGraphic" in2="effect1_dropShadow_360_433" result="shape"/>
</filter>
</defs>
</svg>
