<svg width="7" height="17" viewBox="0 0 7 17" fill="none" xmlns="http://www.w3.org/2000/svg">
<path d="M6.79042 15.1654L6.56906 16.1364C5.90497 16.4177 5.37449 16.6317 4.97947 16.7789C4.58403 16.9266 4.12455 17 3.60103 17C2.79707 17 2.17175 16.7887 1.72575 16.3689C1.27976 15.9475 1.05669 15.4135 1.05669 14.7656C1.05669 14.5148 1.07288 14.2569 1.10653 13.9941C1.14047 13.7309 1.19443 13.4346 1.26826 13.1034L2.0982 9.95132C2.17203 9.64949 2.23479 9.36351 2.28506 9.09307C2.33603 8.8243 2.3606 8.57702 2.3606 8.35442C2.3606 7.95188 2.28293 7.67032 2.1283 7.51201C1.97367 7.35417 1.67861 7.27403 1.24057 7.27403C1.02602 7.27403 0.805513 7.3109 0.580742 7.3822C0.354977 7.45381 0.162011 7.52298 0 7.58728L0.221931 6.61552C0.765614 6.37799 1.2853 6.17459 1.78241 6.00577C2.27952 5.8365 2.74922 5.75179 3.19351 5.75179C3.99193 5.75179 4.60802 5.95884 5.04067 6.37296C5.47332 6.78738 5.68957 7.32461 5.68957 7.98662C5.68957 8.12359 5.67537 8.36493 5.64484 8.70988C5.61502 9.05558 5.5595 9.37234 5.47857 9.66046L4.65218 12.7999C4.58445 13.052 4.52354 13.3403 4.47058 13.6647C4.41591 13.9869 4.38978 14.2331 4.38978 14.3983C4.38978 14.8151 4.4764 15.0998 4.65005 15.251C4.82499 15.4023 5.12629 15.4776 5.55425 15.4776C5.75517 15.4776 5.98377 15.4394 6.23779 15.3643C6.49111 15.2891 6.67583 15.2232 6.79042 15.1654ZM7 1.98527C7 2.53224 6.80789 2.99938 6.42181 3.38348C6.03673 3.76896 5.57271 3.96185 5.02988 3.96185C4.48534 3.96185 4.02018 3.76896 3.6307 3.38348C3.24193 2.99923 3.04712 2.53224 3.04712 1.98527C3.04712 1.43936 3.24193 0.971455 3.6307 0.582477C4.01947 0.194108 4.48549 0 5.02988 0C5.57257 0 6.03673 0.194565 6.42181 0.582477C6.80817 0.971455 7 1.43951 7 1.98527Z" fill="#1C232D"/>
</svg>
