<svg width="18" height="18" viewBox="0 0 18 18" fill="none" xmlns="http://www.w3.org/2000/svg">
<path d="M11.9993 0C8.68567 0 6.00007 2.68583 6.00007 6.00007C6.00007 9.31365 8.68522 11.9999 11.9999 11.9999C15.3135 11.9999 18 9.31365 18 6.00007C17.9993 2.68583 15.3135 0 11.9993 0ZM13.0606 6.4395C12.2321 6.4395 11.5605 5.76787 11.5605 4.93942C11.5605 4.1103 12.2321 3.43935 13.0606 3.43935C13.889 3.43935 14.5606 4.11097 14.5597 4.93942C14.5606 5.76787 13.889 6.4395 13.0606 6.4395Z" fill="#364152"/>
<path d="M6.69577 11.3033C5.95305 10.5606 5.39145 9.6876 5.0193 8.73855L0 13.7579L0.000675058 17.9986L4.24215 18L9.26145 12.9807C8.31217 12.6086 7.4385 12.0461 6.69577 11.3033Z" fill="#364152"/>
</svg>
