<svg width="19" height="15" viewBox="0 0 19 15" fill="none" xmlns="http://www.w3.org/2000/svg">
<path fill-rule="evenodd" clip-rule="evenodd" d="M3.76962 4.05627e-07H15.2304C15.6471 -8.96937e-06 16.0066 -1.84309e-05 16.3043 0.0200159C16.6176 0.0411191 16.931 0.0875256 17.2407 0.214088C17.9389 0.499538 18.4938 1.04707 18.783 1.7362C18.9113 2.04176 18.9583 2.35105 18.9798 2.66027C19 2.95395 19 3.30878 19 3.72001V11.28C19 11.6912 19 12.046 18.9798 12.3397C18.9583 12.6489 18.9113 12.9582 18.783 13.2638C18.4938 13.9529 17.9389 14.5005 17.2407 14.7859C16.931 14.9124 16.6176 14.9588 16.3043 14.98C16.0066 15 15.6471 15 15.2304 15H3.76961C3.35289 15 2.99334 15 2.69574 14.98C2.3824 14.9588 2.06899 14.9124 1.75935 14.7859C1.06103 14.5005 0.506198 13.9529 0.216942 13.2638C0.0886924 12.9582 0.0416673 12.6489 0.0202828 12.3397C-1.86768e-05 12.046 -9.08896e-06 11.6912 4.11035e-07 11.28V3.72002C-9.08896e-06 3.30878 -1.86768e-05 2.95395 0.0202828 2.66027C0.0416673 2.35105 0.0886924 2.04176 0.216942 1.7362C0.506198 1.04707 1.06103 0.499538 1.75935 0.214088C2.06899 0.0875256 2.3824 0.0411191 2.69574 0.0200159C2.99334 -1.84309e-05 3.3529 -8.96937e-06 3.76962 4.05627e-07ZM2.20158 2.13541C2.54708 1.74576 3.14726 1.70627 3.54211 2.04722L8.87442 6.65156C9.23258 6.96084 9.76742 6.96084 10.1256 6.65156L15.4579 2.04722C15.8527 1.70627 16.453 1.74576 16.7984 2.13541C17.1439 2.52507 17.1039 3.11735 16.7091 3.4583L11.3767 8.06269C10.3022 8.99053 8.69782 8.99053 7.62327 8.06269L2.29095 3.4583C1.8961 3.11735 1.85608 2.52507 2.20158 2.13541Z" fill="#364152"/>
</svg>
