<svg width="21" height="17" viewBox="0 0 21 17" fill="none" xmlns="http://www.w3.org/2000/svg">
<path fill-rule="evenodd" clip-rule="evenodd" d="M-1.35008e-07 13.9114C-6.04439e-08 15.6172 1.25556 17 2.8007 17L18.1993 17C19.7444 17 21 15.6172 21 13.9114L21 10.819C21 10.1833 20.5271 9.65758 19.9514 9.65758C19.3673 9.65758 18.8993 9.1448 18.8993 8.5C18.8993 7.8552 19.3673 7.34168 19.9514 7.34168C20.5271 7.34168 21 6.81669 21 6.18108L21 3.09168C21 1.38585 19.7444 -8.63057e-07 18.1993 -7.95517e-07L2.8007 -1.22422e-07C1.25555 -5.48821e-08 -6.82516e-07 1.38585 -6.07952e-07 3.09168L-4.7291e-07 6.18109C4.64465e-09 6.81673 0.473549 7.34168 1.0493 7.34168C1.63334 7.34168 2.10066 7.85524 2.10066 8.5C2.10066 9.14476 1.63334 9.65759 1.0493 9.65759C0.47355 9.65759 -2.97967e-07 10.1833 -2.70182e-07 10.819L-1.35008e-07 13.9114ZM6.1236 4.25151C6.12361 4.09744 6.1792 3.94972 6.27809 3.841C6.48301 3.61517 6.81489 3.61517 7.01978 3.841L14.7205 12.3418C14.925 12.568 14.925 12.9343 14.7205 13.1605C14.5153 13.3878 14.1819 13.3878 13.9767 13.1605L6.27813 4.66206C6.17924 4.55334 6.12361 4.40558 6.1236 4.25151ZM6.29997 11.2037C6.29997 10.1416 7.08852 9.27269 8.05067 9.27269C9.01282 9.27269 9.79997 10.1417 9.79997 11.2037C9.79997 12.2658 9.01278 13.1363 8.05067 13.1363C7.08855 13.1363 6.29997 12.2658 6.29997 11.2037ZM11.2 5.79542C11.2 5.28307 11.3843 4.7917 11.7125 4.42942C12.0407 4.06713 12.4858 3.8636 12.95 3.8636C13.1798 3.8636 13.4073 3.91357 13.6197 4.01065C13.832 4.10773 14.0249 4.25003 14.1874 4.42942C14.3499 4.6088 14.4788 4.82176 14.5668 5.05614C14.6547 5.29052 14.7 5.54173 14.7 5.79542C14.7 6.04911 14.6547 6.30031 14.5668 6.53469C14.4788 6.76907 14.3499 6.98203 14.1874 7.16142C14.0249 7.3408 13.832 7.4831 13.6197 7.58018C13.4073 7.67727 13.1798 7.72724 12.95 7.72724C12.4858 7.72723 12.0407 7.5237 11.7125 7.16142C11.3843 6.79913 11.2 6.30777 11.2 5.79542Z" fill="#364152"/>
</svg>
