<svg width="22" height="22" viewBox="0 0 22 22" fill="none" xmlns="http://www.w3.org/2000/svg">
<path d="M11 22C17.0751 22 22 17.0751 22 11C22 4.92487 17.0751 0 11 0C4.92487 0 0 4.92487 0 11C0 17.0751 4.92487 22 11 22Z" fill="#F0F0F0"/>
<path d="M0 10.9998C0 17.0864 4.91333 21.9998 11 21.9998C17.0867 21.9998 22 17.0864 22 10.9998C22 9.7531 21.78 8.50643 21.34 7.25977H0.66C0.22 8.50643 0 9.7531 0 10.9998Z" fill="#0071BC"/>
<path d="M11.0002 21.9998C6.30682 21.9998 2.20016 19.0665 0.660156 14.6665H21.4135C19.8002 19.0665 15.6935 21.9998 11.0002 21.9998Z" fill="#C85343"/>
</svg>
