<svg width="30" height="32" viewBox="0 0 30 32" fill="none" xmlns="http://www.w3.org/2000/svg">
<path d="M27.1052 4.14646C25.0788 3.93084 23.0843 3.48005 21.1622 2.80321C19.3982 2.17998 17.7062 1.36936 16.1152 0.385264C15.7 0.133258 15.2236 0 14.7379 0C14.2523 0 13.7759 0.133258 13.3607 0.385264L13.3592 0.386776C11.7685 1.37007 10.077 2.18017 8.31371 2.80321C6.39201 3.4799 4.39809 3.9307 2.37219 4.14651C1.72142 4.21315 1.11853 4.51892 0.680291 5.00461C0.24205 5.49029 -0.000363093 6.12133 4.08215e-07 6.7755V14.6286C0.0010647 17.5261 0.776461 20.3707 2.24594 22.8679C3.71541 25.3652 5.82557 27.4243 8.358 28.8322L13.4522 31.6634C13.8445 31.8841 14.2871 32 14.7372 32C15.1873 32 15.6299 31.8841 16.0222 31.6634L21.1179 28.8322C23.6503 27.4243 25.7605 25.3652 27.23 22.8679C28.6994 20.3707 29.4748 17.5261 29.4759 14.6286V6.7755C29.4763 6.12154 29.2341 5.49068 28.7962 5.00501C28.3582 4.51935 27.7557 4.21343 27.1052 4.14646ZM20.7533 13.219L15.0848 19.2653C14.8157 19.553 14.4447 19.7241 14.0511 19.742C13.6576 19.76 13.2726 19.6233 12.9784 19.3613L9.57731 16.3381C9.27781 16.0719 9.09633 15.6976 9.0728 15.2976C9.04927 14.8976 9.18561 14.5046 9.45183 14.2051C9.71805 13.9056 10.0923 13.7241 10.4924 13.7006C10.8924 13.677 11.2854 13.8134 11.5849 14.0796L13.8862 16.1241L18.5479 11.1524C18.6894 11.0017 18.8602 10.8815 19.0498 10.7992C19.2394 10.717 19.4439 10.6744 19.6506 10.674C19.9453 10.6742 20.2335 10.7605 20.4798 10.9223C20.7261 11.084 20.9197 11.3143 21.0369 11.5847C21.154 11.8551 21.1896 12.1538 21.1392 12.4442C21.0888 12.7345 20.9547 13.0039 20.7533 13.219Z" fill="currentColor"/>
</svg>
