<svg width="22" height="22" viewBox="0 0 22 22" fill="none" xmlns="http://www.w3.org/2000/svg">
<path fill-rule="evenodd" clip-rule="evenodd" d="M10.9936 22C4.93615 22 0 17.0639 0 10.9936C0 4.93615 4.93615 0 10.9936 0C17.0639 0 22 4.93615 22 10.9936C22 17.0639 17.0639 22 10.9936 22Z" fill="#00A86C"/>
<path fill-rule="evenodd" clip-rule="evenodd" d="M8.26658 10.3603C8.01758 10.1241 7.67986 9.99132 7.32771 9.99132C6.97557 9.99132 6.63785 10.1241 6.38885 10.3604C5.87037 10.8524 5.87039 11.65 6.38887 12.142C7.13883 12.8536 8.26186 13.9193 9.01184 14.631C9.26082 14.8672 9.59853 15 9.95068 15C10.3028 15 10.6405 14.8673 10.8895 14.631L15.6111 10.1508C16.1296 9.65887 16.1296 8.86125 15.6112 8.36923C15.3622 8.13292 15.0244 8.00002 14.6722 8C14.3201 7.99998 13.9823 8.13271 13.7333 8.36901L10.061 11.8535C10.0317 11.8813 9.99203 11.8969 9.95062 11.8969C9.90922 11.8969 9.86951 11.8813 9.84023 11.8535L8.26658 10.3603Z" fill="#E6E6F8"/>
</svg>
