<svg width="20" height="19" viewBox="0 0 20 19" fill="none" xmlns="http://www.w3.org/2000/svg">
<path d="M11.7241 11.0225V12.473C11.7241 14.4746 13.269 16.0991 15.1724 16.0991H17.931V16.8243C17.931 18.0209 17 19 15.8621 19H2.06897C0.931035 19 0 18.0209 0 16.8243V6.67117C0 5.4673 0.931035 4.4955 2.06897 4.4955H15.8621C17 4.4955 17.931 5.4673 17.931 6.67117V7.3964H15.1724C13.269 7.3964 11.7241 9.0209 11.7241 11.0225ZM20 11.0225V12.473C20 13.1112 19.731 13.6914 19.3103 14.0902C18.9448 14.4383 18.4552 14.6486 17.931 14.6486H15.1724C14.0345 14.6486 13.1034 13.6696 13.1034 12.473V11.0225C13.1034 9.81865 14.0345 8.84685 15.1724 8.84685H17.931C18.4552 8.84685 18.9448 9.05716 19.3103 9.40527C19.731 9.79689 20 10.3771 20 11.0225ZM16.5517 11.7477C16.5517 11.3489 16.2414 11.0225 15.8621 11.0225C15.4828 11.0225 15.1724 11.3489 15.1724 11.7477C15.1724 12.1466 15.4828 12.473 15.8621 12.473C16.2414 12.473 16.5517 12.1466 16.5517 11.7477ZM14.2138 1.58009C14.0414 0.963652 13.6345 0.463247 13.0828 0.194914C12.531 -0.0661675 11.8966 -0.0661675 11.3448 0.202166L5.55862 3.04505H14.6138L14.2138 1.58009Z" fill="#364152"/>
</svg>
